<?xml version="1.0" encoding="UTF-8"?>
<svg id="Livello_2" data-name="Livello 2" xmlns="http://www.w3.org/2000/svg" viewBox="0 0 264.35 138.94">
  <defs>
    <style>
      .cls-1 {
        fill: #fff;
        stroke-width: 0px;
      }
    </style>
  </defs>
  <g id="Livello_1-2" data-name="Livello 1">
    <g>
      <g>
        <g>
          <path class="cls-1" d="M136.8,100.73c.08,1.07.15,2.5.26,2.74.12-.05.76-2.33.79-2.44,0,0,.38-.54.56-.64,0,0,.11-.23.26-.48-.61.32-1.23.59-1.87.82ZM136.8,100.73c.08,1.07.15,2.5.26,2.74.12-.05.76-2.33.79-2.44,0,0,.38-.54.56-.64,0,0,.11-.23.26-.48-.61.32-1.23.59-1.87.82ZM136.8,100.73c.08,1.07.15,2.5.26,2.74.12-.05.76-2.33.79-2.44,0,0,.38-.54.56-.64,0,0,.11-.23.26-.48-.61.32-1.23.59-1.87.82ZM136.8,100.73c.08,1.07.15,2.5.26,2.74.12-.05.76-2.33.79-2.44,0,0,.38-.54.56-.64,0,0,.11-.23.26-.48-.61.32-1.23.59-1.87.82ZM136.8,100.73c.08,1.07.15,2.5.26,2.74.12-.05.76-2.33.79-2.44,0,0,.38-.54.56-.64,0,0,.11-.23.26-.48-.61.32-1.23.59-1.87.82ZM136.8,100.73c.08,1.07.15,2.5.26,2.74.12-.05.76-2.33.79-2.44,0,0,.38-.54.56-.64,0,0,.11-.23.26-.48-.61.32-1.23.59-1.87.82ZM136.8,100.73c.08,1.07.15,2.5.26,2.74.12-.05.76-2.33.79-2.44,0,0,.38-.54.56-.64,0,0,.11-.23.26-.48-.61.32-1.23.59-1.87.82ZM138.9,99.54c-.07.11-.15.24-.23.37.13-.05.24-.11.36-.18-.03-.08-.08-.14-.13-.19ZM136.8,100.73c.08,1.07.15,2.5.26,2.74.12-.05.76-2.33.79-2.44,0,0,.38-.54.56-.64,0,0,.11-.23.26-.48-.61.32-1.23.59-1.87.82ZM138.9,99.54c-.07.11-.15.24-.23.37.13-.05.24-.11.36-.18-.03-.08-.08-.14-.13-.19ZM138.9,99.54c-.07.11-.15.24-.23.37.13-.05.24-.11.36-.18-.03-.08-.08-.14-.13-.19ZM136.8,100.73c.08,1.07.15,2.5.26,2.74.12-.05.76-2.33.79-2.44,0,0,.38-.54.56-.64,0,0,.11-.23.26-.48-.61.32-1.23.59-1.87.82ZM138.9,99.54c-.07.11-.15.24-.23.37.13-.05.24-.11.36-.18-.03-.08-.08-.14-.13-.19ZM136.8,100.73c.08,1.07.15,2.5.26,2.74.12-.05.76-2.33.79-2.44,0,0,.38-.54.56-.64,0,0,.11-.23.26-.48-.61.32-1.23.59-1.87.82ZM136.8,100.73c.08,1.07.15,2.5.26,2.74.12-.05.76-2.33.79-2.44,0,0,.38-.54.56-.64,0,0,.11-.23.26-.48-.61.32-1.23.59-1.87.82ZM136.8,100.73c.08,1.07.15,2.5.26,2.74.12-.05.76-2.33.79-2.44,0,0,.38-.54.56-.64,0,0,.11-.23.26-.48-.61.32-1.23.59-1.87.82ZM136.8,100.73c.08,1.07.15,2.5.26,2.74.12-.05.76-2.33.79-2.44,0,0,.38-.54.56-.64,0,0,.11-.23.26-.48-.61.32-1.23.59-1.87.82ZM136.8,100.73c.08,1.07.15,2.5.26,2.74.12-.05.76-2.33.79-2.44,0,0,.38-.54.56-.64,0,0,.11-.23.26-.48-.61.32-1.23.59-1.87.82ZM136.8,100.73c.08,1.07.15,2.5.26,2.74.12-.05.76-2.33.79-2.44,0,0,.38-.54.56-.64,0,0,.11-.23.26-.48-.61.32-1.23.59-1.87.82ZM136.8,100.73c.08,1.07.15,2.5.26,2.74.12-.05.76-2.33.79-2.44,0,0,.38-.54.56-.64,0,0,.11-.23.26-.48-.61.32-1.23.59-1.87.82ZM136.8,100.73c.08,1.07.15,2.5.26,2.74.12-.05.76-2.33.79-2.44,0,0,.38-.54.56-.64,0,0,.11-.23.26-.48-.61.32-1.23.59-1.87.82Z"/>
          <path class="cls-1" d="M139.03,99.73c-.12.07-.23.13-.36.18.08-.13.16-.26.23-.37.05.05.1.11.13.19Z"/>
          <path class="cls-1" d="M264.04,17.69c-.26-1.77-1.23-3.3-2.59-4.28l-1.53-1.78c-1.09-1.28-2.62-2.05-4.24-2.21-.5-.15-1.01-.23-1.53-.25h-.26c-.4,0-.77.04-1.12.08,0,0-.7-.11-.75-.11-.38-.05-.99-.15-1.71-.15-.82,0-1.61.12-2.36.33-.89.25-1.64.66-2.28,1.18-1.25.17-2.48.71-3.43,1.51-1.54.71-2.74,1.97-3.35,3.51-.41.97-.65,2-.79,3.17-.03.28-.04.56-.04.85,0,.35.01.67,0,1.02-.09-.15-.18-.3-.28-.44-.1-.33-.25-.66-.4-.97-.31-.84-.78-1.63-1.44-2.28-.25-.27-.54-.54-.92-.81-.93-1.38-2.38-2.34-4-2.69-.46-.1-.9-.15-1.35-.15-.11,0-.23,0-.34.02-.17-.03-.33-.05-.49-.06-.58-.3-1.22-.5-1.89-.61-.33-.05-.67-.07-1-.07-.69,0-1.38.1-2.02.31h-.2c-.8,0-1.6.14-2.47.41-.23.09-.45.17-.63.25-.69.08-1.34.26-1.97.54-.36.17-.72.36-1.03.56-.49.33-.93.72-1.31,1.16-.74.84-1.12,1.69-1.28,2.06-.07.14-.15.34-.2.49-.15.38-.88,2.29-2.25,5.77-.46,1.13-.88,2.37-1.31,3.68-1.38-2.36-3.44-4.15-6.02-5.22-2.12-.84-4.28-1.28-6.46-1.28-1.28,0-2.58.16-3.79.44-2.99.68-5.86,2.01-8.6,3.97-2.36,1.74-4.54,3.78-6.5,6.06-.74.85-1.42,1.72-2.08,2.59.13-.75.25-1.49.38-2.21.8-4.5,1.62-8.27,2.43-11.19.63-2.33,1.01-3.32,1.16-3.66.2-.3.38-.61.54-.92l.53-1.07c.06-.1.13-.21.18-.31.55-1.07.9-2.16,1.01-3.3.18-1.65-.29-3.29-1.28-4.61-.18-.28-.36-.54-.55-.8-.27-.64-.63-1.26-1.07-1.81-.89-1.11-2.07-1.88-3.4-2.28-.83-.91-1.9-1.55-2.97-1.87-.6-.16-1.21-.26-1.82-.26-.39,0-.8.05-1.19.12-.18.01-.38.03-.56.05-.56-.07-1.17-.14-1.82-.14-1.15,0-2.14.18-2.97.45-.43.01-.84.06-1.25.16-.26,0-.54.03-.82.07-1.51.23-2.87.98-3.86,2.1-.37.14-.75.34-1.09.55-.84.38-1.58.92-2.19,1.61-2.21,2.48-3.8,5.76-4.87,10.03-.88,3.49-1.61,7.56-2.12,12.1-.27,2.43-.47,4.91-.62,7.44-2.23-1.79-4.72-3.04-7.45-3.68-1.39-.33-2.84-.51-4.28-.51-4.15,0-8.42,1.43-12.34,4.09-.46.31-.88.69-1.24,1.11-.51.23-.97.54-1.4.91-2.21,1.9-4.26,4.2-6.08,6.8.52-4.75,1.19-9.51,1.98-14.25.95-6.09,1.71-7.63,1.79-7.8.05-.11.11-.23.16-.32,1.81-.73,3.25-2.25,3.83-4.24.44-1.57.26-3.18-.4-4.56-.29-.83-.74-1.59-1.31-2.24-.11-.14-.21-.28-.33-.41-.08-.12-.15-.23-.23-.33-.1-.2-.19-.38-.31-.58-.33-.49-.71-.95-1.13-1.33-.31-.29-.67-.55-1.05-.78s-.79-.43-1.22-.56c-.67-.44-1.41-.74-2.18-.89-.97-.54-2.03-.8-3.1-.8-.21,0-.44.02-.65.05-.09-.03-.19-.05-.27-.08-.52-.14-1.05-.2-1.57-.2-.31,0-.63.03-.94.08-.36-.06-.72-.1-1.06-.1-1.56,0-2.74.53-3.5.95-.62.18-1.21.46-1.77.82-2.38,1.58-4.43,4.01-6.05,7.17-1.81,3.45-3.3,7.42-4.56,12.16-1.17,4.38-2.15,9.14-2.91,14.16-.83,5.43-1.39,9.78-1.77,13.63-.18,1.72-.34,3.35-.49,4.91-.82-.36-1.64-.74-2.48-1.12-2.9-1.34-6.1-2.52-9.58-3.51.54-4,1.05-7.2,1.56-9.69.85-4.47,1.52-6.91,1.92-8.11.34-1.05.59-1.61.7-1.84l.56-.55c.53-.55.97-1.17,1.28-1.86l.15-.33c.47-1.03.65-2.16.56-3.24.34-1.92-.18-3.94-1.55-5.48-.37-.43-.8-.79-1.28-1.09-.24-.34-.52-.67-.85-.97-.74-.67-1.61-1.14-2.54-1.42-1.08-.71-2.32-1.07-3.56-1.07-.53-.1-1.07-.15-1.61-.15-.23,0-.44,0-.67.02-.49-.11-1.02-.18-1.54-.18-1.12,0-2.04.28-2.83.62-.16-.01-.34-.01-.52-.01-1.35,0-2.66.41-3.77,1.21-.71.46-1.3.94-1.94,1.54-1.13,1.12-2.15,2.48-3.15,4.2-1.53,2.69-2.82,5.78-3.95,9.45-1.04,3.41-1.97,7.06-2.73,10.81-.38,1.79-.72,3.58-1.03,5.34-.82.04-1.67.09-2.51.13,0,0-.28,0-.38.01-1.59.07-6.33.46-8.01.64l-.98.12c-1.66.16-3.92.41-7.12.85-4.56.67-9.15,2.12-13.67,4.33-4.36,2.17-8.05,5.24-10.97,9.11-.82,1.1-1.25,2.38-1.3,3.67-.36.82-.57,1.73-.6,2.61,0,.05-.04.17-.1.23-1.05,1.2-1.59,2.72-1.59,4.28-1.15,1.69-1.45,3.84-.76,5.81-.02.02-.02.03-.03.05-.74,1.44-.9,3.12-.48,4.66-.62,1.59-.62,3.07.33,4.92-.26,1.05-.25,2.17.05,3.23.25.92.69,1.76,1.3,2.46.78,3.38,4.02,4.37,7.17,5.34,1.8.54,2.72.83,3.31.96v.02c1.48.31,2.76.56,4.82.56.38,0,.79-.02,1.25-.04.67.07,1.36.1,2.07.1,2.93,0,6.03-.57,8.95-1.62,9.91-3.56,15.93-11.63,14.31-19.2-.11-.57-.33-1.13-.59-1.64-.12-.51-.3-1-.54-1.46.92-.29,1.8-.55,2.66-.77-.25,4.07-.45,8.34-.61,12.77-.26,8.13.7,15.71,2.87,22.54.85,2.64,2.1,5.35,3.66,7.94.41.72.85,1.41,1.31,2.07.74,1.06,1.76,1.87,2.9,2.34.79.76,1.74,1.3,2.78,1.59.28.49.57.97.92,1.4.98,1.23,2.34,2.02,3.82,2.29.11.12.21.23.33.35.9.87,1.97,1.43,3.11,1.67.02.03.04.05.07.07,1.21,1.16,2.81,1.77,4.45,1.77.44,0,.88-.05,1.34-.13.84.36,1.72.54,2.63.54.32,0,.67-.02,1-.07.23.02.46.04.69.04.09,0,.19,0,.31-.02.42.1.87.15,1.31.15.84,0,1.67-.17,2.46-.49.08-.02.18-.02.33-.02h.03c.2.02.41.03.63.03,1.9,0,3.72-.85,4.97-2.33,1.36-1.65,1.82-3.87,1.23-5.92l-.51-1.79c-.07-.19-.13-.38-.2-.56,0-.01-.44-1.14-.57-1.51-.56-1.8-1.5-2.83-1.99-3.39-.28-.31-.65-.72-1.44-2.02-1.69-2.79-3.38-6.82-5.02-12.01-1.77-5.59-3.14-11.61-4.04-17.91-.52-3.53-.74-6.91-.67-10.14,1.97.44,3.89,1.03,5.79,1.74,2.58.96,5.07,2.16,7.45,3.59.03.28.06.57.06.9.05,1.97.35,5.15.45,6.12l.03.36c.26,2.56.51,4.78.72,5.96.49,2.51,1.18,4.69,2.13,7.69l.17.51c1.08,3.33,2.66,7.09,4.72,11.17,2.2,4.32,5.01,8.29,8.37,11.82,3.56,3.67,7.7,6.52,12.34,8.48,2.71,1.13,5.64,1.7,8.69,1.7,2.79,0,5.71-.49,8.68-1.42l.15-.04c.28-.08.56-.19.84-.31,2.44-.97,4.75-2.21,6.9-3.72,3.04-2.15,5.06-4.38,6.01-5.5,3.31-4,4.74-7.91,5.23-9.25,1.3-3.51,1.97-6.63,2.05-9.53v-.2c0-.85-.16-1.69-.49-2.46-.23-.71-.57-1.35-1.03-1.92l-.04-.1c-.11-.34-.23-.67-.36-1.02-.15-.36-.33-.7-.52-1.03-.12-.33-.27-.62-.41-.92-.15-.44-.33-.88-.56-1.29-.43-.79-1.02-1.46-1.71-1.99-.29-.31-.6-.62-.95-.9-.18-.15-.38-.3-.59-.43-.06-.08-.13-.18-.2-.26-.09-.12-.19-.23-.29-.35-.38-.57-.84-1.09-1.38-1.51.39-.37.77-.75,1.15-1.14,2.31-2.42,4.4-5.29,6.18-8.52.05.17.12.33.18.48.86,2.1,1.78,3.85,2.81,5.36.98,1.45,2.53,2.45,4.27,2.74.13.02.26.03.39.05,1.13,1.2,2.71,1.94,4.4,2.02.34.08.69.13,1.05.15.05.03.11.05.16.06,1.02.61,2.17.92,3.31.92.23,0,.45-.02.68-.03.28.03.57.05.87.05.47,0,.96-.05,1.46-.17.24-.05.49-.13.72-.21.03.02.05.02.06.02.68.19,1.22.36,1.81.44.31.05.62.07.93.07,2.2,0,4.29-1.14,5.48-3.04.97-1.54,1.09-3.05.94-4.28.2-1.2.06-2.4-.38-3.46.62.13,1.25.23,1.92.31,1.15.15,2.31.23,3.45.23,3.74,0,7.36-.82,10.76-2.45-.31.35-.63.71-.94,1.07-.16.18-.31.34-.46.52-2.38,2.81-4.36,5.78-5.87,8.75-1.41,2.66-2.38,5.22-2.9,7.6-.25,1.06-.2,2.18.11,3.21.1.44.25.89.44,1.3-.03,1.83.73,3.62,2.09,4.87.16.72.44,1.41.83,2.03.09.32.18.61.32.91.41,2.15,1.9,3.98,3.95,4.8.02.02.05.04.07.05.37.35.78.63,1.19.87.38.31.79.59,1.23.82.89.56,1.73.79,2.33.9.43.17.86.3,1.3.37.1.04.2.08.29.11,1.02.62,2.19.95,3.38.95.33,0,.73,0,1.14-.05.57-.06,1.13-.21,1.65-.42,6.86-2.73,10.4-4.91,10.68-9.21.12-1.93-.64-3.8-2.03-5.13-.41-.38-.87-.71-1.35-.97.68-1.18,1.45-2.51,2.42-4.14,1.24-2.16,2.97-4.65,5.11-7.39.17-.2.33-.4.48-.59,0,0,.31-.4.34-.45,3.17-4,5.91-7.25,8.37-9.94,2.63-2.87,5.17-5.76,7.5-8.53,2.36-2.76,4.76-5.79,7.12-9.01.49-.65,1.02-1.33,1.56-2.02,1.92-2.46,4.33-5.51,6.43-9.66l.11-.23c.22-.41.43-.84.64-1.25,1.97-4.05,3.66-8.39,5.02-12.92,1.33-4.48,2.3-8.91,2.87-13.23.56-4.1.61-7.71.15-10.69ZM146.26,105.75c.04.12.17.25.22.14.13.31.23.65.34.98.07.2-1.13,3.67-1.03,3.86l1.93-2.24s.04.04.04.05c.01.02.03.04.03.04.03.13.08.26.15.39v.02c-.07,2.18-.61,4.66-1.64,7.48-.36.97-1.48,4.11-4.17,7.35-.46.55-2.1,2.47-4.76,4.36-2.16,1.51-4.18,2.46-5.72,3.05-.04.02-.05.04-.07.04l-.23.06c-4.85,1.54-9.22,1.51-13.02-.06-3.86-1.63-7.22-3.94-10.16-7.01-2.9-3.05-5.33-6.45-7.27-10.25-1.92-3.81-3.36-7.22-4.33-10.22-1-3.15-1.67-5.21-2.1-7.44-.2-1.05-.51-4.08-.67-5.77-.17-1.67-.38-4.15-.41-5.6-.02-1.46-.36-2.78-.3-4.41-2.75-1.92-6.58-4.18-11.43-5.99-5.38-2.02-10.24-2.82-13.82-3.11-.93,5.64-.93,11.82.07,18.52.95,6.71,2.38,13.02,4.27,18.93,1.78,5.66,3.65,10.11,5.64,13.39,2,3.26,2.46,2.97,2.79,4,.15.44.72,1.92.72,1.92l.53,1.79c-1.01-.1-2.56.01-3.45.47-.46-.24-.95-1.08-1.41-1.31.13.15-.21,1.18-.21,1.18,0,0-.81-.42-1.01-.65l-.68.69-2.74-1.79s-1.14.8-1.23,1.38c-1.22-1.15-2.43-2.28-3.65-3.42-.11.63.1,1.3.54,1.74-1.34-1.31-1.96-2.51-3.31-3.82-.02.51-.33,1.12-.31,1.77-1.23-1.54-2.53-6.77-3.76-8.3-.18.36-.26,4.38-.46,4.72-.37-.54-.7-1.42-.98-2.01-.41.18-.69.57-1.12.64-.36-.51-.72-1.05-1.03-1.61-1.43-2.38-2.45-4.63-3.12-6.73-1.97-6.15-2.8-12.94-2.56-20.34.27-7.37.64-14.34,1.18-20.87-.24.03-.6.08-1.03.15-3.15.47-7.86,1.21-13.3,3.28-3.56,1.35-5.6,2.1-7.03,2.76-.73.32-2.49,1.6-1.39,1.57,4.15-.15,5.94,1.35,7.32,3.89-.02.9-.14,1.82-.35,2.72-.11.49-.24.97-.47,1.43.31-.38.55-.79.77-1.2.24-.49.44-.98.6-1.49.91,4.23-3.46,9.35-10.17,11.76-3.03,1.1-6.07,1.45-8.66,1.13-2.43.14-3.38-.04-4.89-.36-.02,0-5.58-1.69-5.58-1.7v-1.74l-1.33-.72,1.86-3.1-2.38-1.35s1.92-2.84,1.92-2.84l-1.77-.87s1-1.95.88-3.16l3.84-2.19c-.83.35-3.67.15-4.36.2.98-.92,1.41-2.38,1.13-3.71,1.05-1.21,1.67-2.79,1.69-4.39.49-.41,3.25-1.86,3.72-2.27-.24-.42-2.8.18-3.11-.19,2.34-3.12,5.23-5.5,8.68-7.22,3.64-1.77,7.53-3.1,11.73-3.71,3.7-.53,6.08-.74,7.87-.94,1.62-.18,6.19-.55,7.6-.62h.24c1.36-.06,2.78-.15,4.02-.2.25,0,.48-.01.69-.01,1.05-.04,2.12-.05,3.17-.05.46-3.17,1.05-6.63,1.82-10.35.77-3.71,1.64-7.12,2.59-10.24.97-3.13,2.08-5.84,3.4-8.15.65-1.15,1.34-2.07,2.05-2.76.36-.35.67-.59,1.01-.8.04-.04.05-.05.09-.05.03-.04.06-.05.08-.07,0,.1.01.2.01.3l-.9,4.1,3.27-4.48.03-.02c.46-.29.94-.57.97-.51.15.36.28.73.44,1.07.46-.69,1.4-1.07,2.2-.85.02.19.03.39.03.6.41-.06.81-.23,1.12-.5l-1.38,3.1,2.28-2.05c.28-.09.57-.17.85-.25-.08.41-.18.82-.28,1.21.38.02.66-.18.99-.05-.12.48-.23.97-.35,1.46.4-.42.81-.77,1.3-1.03l-1.59,2.3.69-.2.82-.36-.15.33s-.29.29-.89.9c-.59.62-1.23,1.94-1.9,3.97-.65,2.02-1.38,5-2.13,8.92-.79,3.94-1.56,9.21-2.35,15.82,5.24,1.1,9.93,2.59,14,4.48,4.07,1.87,7.76,3.25,10.91,5.43l.28-4c.18-2.83.49-6.29.93-10.41.39-4.11,1-8.56,1.72-13.33.73-4.79,1.66-9.27,2.76-13.47,1.13-4.2,2.48-7.8,4.07-10.83,1.15-2.23,2.44-3.82,3.89-4.77h.01c.43-.07.86-.25,1.23-.48.17-.11.35-.25.51-.2.17.05-1.54,4.73-1.64,4.83.43-.28,3.58-4.83,3.58-4.83l.15,1.18-.18,1.02c.36,0,2.52-1.97,2.52-1.97l-.79,2.38,1.35-1.97c.11.25.2.51.29.74.33-.13.64-.31.97-.47l-.31,1.55,1.67-.9s0,.02.02.02l-.44.93.6-.1h.35l-1.49,1.61,1.24-.51.46-.19.4-.05-.36.47h.34s.28-.03.44.04l-.6.36.9.34c-.28-.03-.71.07-1.22.35-.68.37-1.44,1.36-2.29,3-.86,1.66-1.68,4.92-2.43,9.78-1,5.97-1.77,11.81-2.36,17.55-.46,4.89-.73,9.78-.77,14.7v.02c-.02.85-.02,1.72-.02,2.57.03,5.78.44,11.62,1.23,17.51.49,3.79,1.21,7.63,2.15,11.55h.02c.5,2.2,1.09,4.39,1.75,6.63.67,2.1,1.59,4.54,2.79,7.36,1.18,2.81,2.48,5.43,3.89,7.86,1.43,2.44,2.89,4.43,4.41,5.99,0,.01.02.01.02.01.88.92,2.43.63,3.02-.5.65-1.25,1.24-2.45,1.72-3.6,1.28-2.92,2.2-5.39,2.74-7.48.54-2.07.82-3.82.79-5.26-.02-.45-.02-.87-.05-1.25-.04-.85-.09-1.56-.17-2.13-.1-.48-.1-.86.04-1.14.19.33.44.63.75.84,0,0,0,.02.02.02.13.06.39,1.97.51,2.02.14,0,.11-1.78.23-1.78.18.02.34-.01.49-.06.14.16.29.33.46.46.19-.1.36-.23.49-.36.1.09.16.59.21,1.19h.02c.64-.23,1.26-.5,1.87-.82.08-.13.16-.26.23-.37.05.05.1.11.13.19.03.05.05.12.07.18.27-.14.54-.29.8-.44.33.33.59.74.77,1.18.03-.24.25-.44.46-.44.25-.13.46-.26.7-.39.2.45.35.91.42,1.42.08-.21.14-.39.22-.59.32.4.53.85.64,1.33.4.03.79.15,1.12.36.18.15.34.31.43.51.05.13.06.26.11.39.12.27.28.12.58.14-.1.18-.09.72-.14.9,0,0-.31,2.33-.39,2.74.17-.3.99-2.33,1.05-2.4.13.38.26.76.39,1.13ZM121.98,100.49c1.07.51,2.19.88,3.33,1.16.66.15,1.32.28,1.99.36.02.3.02.66.03,1.05.02.45-.05,1.5-.59,3.51-.18.76-.46,1.63-.8,2.6-1.02-1.87-1.95-3.81-2.79-5.81-.43-1-.82-1.97-1.17-2.87ZM151.94,70.6c-.38,1.55-.82,3.08-1.33,4.54v.03c-2.84,8.19-7.64,14.65-12.99,17.98-3.17,1.99-6.51,2.88-9.78,2.4-.34-.05-.69-.12-1.03-.2-3.28-.77-6.02-2.88-8.11-5.94-4.3-6.3-5.76-16.65-3.16-27.49.06-.25.13-.51.21-.76v-.03c2.13-8.47,6.37-15.49,11.37-19.77.1.13.18.28.33.3.05,0,.13-.02.16.01.08.07.03.17.03.27,0,.24.3.34.53.44.43.16,1.38,1.18,1.56,1.59-.22-.72-1-2.22-.66-2.9.05-.12.13-.25.15-.38.02-.13-.05-.26-.07-.4-.03-.18,0-.34.04-.52,3.67-2.49,7.67-3.53,11.46-2.63,3.58.86,6.52,3.29,8.65,6.78,3.89,6.37,5.1,16.29,2.64,26.68ZM176.3,90.61c-.36-.05-2.01-.61-2.38-.61,0,0-1.44-1.28-2.59-1.75-.01.41-.01,2.21-.01,2.21-.15-.31-.97-.52-1.28-.65-.09.21-.17.42-.27.64-.26-.2-.47-.36-.68-.48-.78-.08-1.5-.42-2.06-.97-.13.15-.23.33-.36.48-.32-.43-.65-.87-1-1.28.04.38,0,.77-.11,1.13-.31-.64-1-4.67-1.54-5.12-.17.15-.59,3.3-.76,3.48-.46-.69-.66-.72-1.48-.47-.09.03-.18.06-.24.11-.79-1.15-1.51-2.54-2.17-4.17-.67-1.65-1.23-3.39-1.65-5.21-.18-.76-.35-1.51-.48-2.27-.2-1.03-.34-2.07-.46-3.08-.2-1.76-.34-3.25-.48-4.51-.01-.58-.09-2.2-.24-4.93-.13-2.69-.25-5.95-.3-9.77-.05-3.42-.03-7.11.04-11.08,0-.46,0-.92.01-1.39.08-4.53.36-8.88.84-13.09.48-4.19,1.13-7.94,1.97-11.24.8-3.25,1.95-5.68,3.43-7.32.29-.11.57-.26.85-.46-.13,1.71,1.13.03,1.53-.33.42-.39.67-.9.9-1.39.33.34,1,.26,1.26-.15-.16.23.15.54.43.49.28-.05.47-.26.69-.44.85-.66,2.03-.52,3.08-.34.1.13.21.27.3.42.36-.05.7-.24.96-.49.09.2.17.38.25.57.21-.21.44-.44.67-.68.1.03-.05.52.05.54-.03,1.21-.85,3.95-1.47,4.98.78-.7,2.39-3.06,3.2-3.75.11.31.11.34.22.67.33-.13.61-.33.84-.59.36-.03.53.44.44.77-.06.35-.24.71-.14,1.03.13.43.82.55,1.1.17.08.24.24.47.42.65-.03.32-.13.64-.31,1.01-.1.16-.21.39-.34.65-.13.25-.3.56-.46.9-.54.59-1.25,2.5-2.12,5.66-.87,3.17-1.72,7.09-2.56,11.78-.82,4.66-1.51,9.88-2.08,15.62,0,0-.12,1.22-.2,3.55-.15,4.06-.21,11.56.56,21.83.15,1.97.54,3.96,1.03,5.97.17.68.35,1.33.56,1.99.38,1.29.85,2.57,1.38,3.79.82,1.84,2.03,3.95,3.23,5l-.54.22c-.07.19.62,1.55.52,1.7ZM257.5,27.55c-.54,3.97-1.43,8.04-2.68,12.2-1.24,4.17-2.77,8.16-4.62,11.95-.23.47-.48.92-.71,1.36,0,0,0,.01-.02.03-2.36,4.68-5.13,7.71-7.39,10.75-2.25,3.05-4.53,5.94-6.85,8.66-2.31,2.74-4.77,5.54-7.36,8.37-2.58,2.82-5.45,6.25-8.65,10.28-.28.33-.51.66-.79.97-2.36,3.02-4.26,5.76-5.69,8.25-1.61,2.73-2.71,4.61-3.72,6.48-.56,1.07-1.05,2.12-1.41,3.1,0,.02-.27.73-.27.74-.54,1.36.32,2.82,1.82,2.91,1.73.08,3.68-.17,3.68-.17-.05,1.02-6.6,3.61-6.6,3.61-.14.02-.29.02-.41.02-.14-.13-.31-.22-.5-.28-.09-.03.06-1.33-.05-1.38-.12-.05-.46,1.2-.58,1.12-.26-.17-.51-.33-.77-.51-.13-.08-.26-.17-.41-.18-.15,0-.31.1-.33.24-.16-.29-.57-.26-.9-.29-.38-.05-.31-.05-.56-.33-.05.07-.16-.07-.23-.02-.11-.34.87-4.79.76-5.15,0,.26-1.46,4.45-1.63,4.48-.31.07-.28-.51-.57-.64-.13-.05-.28.02-.41-.03-.23-.12-.15-.43-.2-.66-.06-.23-.29-.41-.52-.39-.23,0-.45.18-.49.41.04-.48-.1-.97-.41-1.33.21-.12.21-.43.09-.64-.11-.2-.29-.36-.37-.57-.1-.27-.07-.58.09-.78-.19.05-.41.12-.6.17-.08-.59.92-1,1.08-1.56l-1.21-.2c.13-.36.13-.74,0-1.1-.04-.05-.05-.09-.1-.11-.05-.02-.1,0-.15.03-.16.12-.34.23-.52.35-.28-.28-.51-.59-.69-.92-.12.06-.22.13-.33.18.06-.53.03-.89.01-1.07,0-.26,3.61-5.87,3.61-6.1-.18,0-4,4.28-4.25,4.28-.01-.15-.04-.25-.09-.36.41-1.84,1.18-3.84,2.31-5.99,1.33-2.59,3.02-5.13,5.15-7.63.1-.14.23-.26.36-.41,2-2.31,4.09-4.44,6.22-6.4,2.3-2.06,4.41-3.92,6.38-5.51,1.97-1.59,3.5-2.77,4.63-3.54,1.64-1.25,3.12-2.5,4.48-3.71,1.34-1.21,2.54-2.31,3.59-3.25,1.12-1.05,2.18-2.03,3.25-2.98,4.02-3.97,5.76-5.4,8.4-11.73t.01-.05c.1-.22.17-.48.25-.74.56-1.72,1.03-3.38,1.4-4.94.14-.67.31-1.36.52-2.15.18-.8.33-1.57.44-2.34-1.26,3.37-2.65,6.54-4.18,9.51-1.54,2.99-3.3,5.48-5.2,7.47-.9,1.05-1.72,1.7-2.51,1.98-.72.53-1.35.82-1.86.92-4.93,1.33-8.71.46-11.28-2.66-.53-.62-.95-1.31-1.33-2.08-.33.56-.66,1.16-.99,1.79-1.93,3.47-4.38,6.85-7.28,10.17-2.97,3.31-6.32,6.07-10.11,8.28-3.77,2.22-7.84,3.04-12.15,2.48-3.27-.39-5.79-1.54-7.57-3.45-.44-.45-.83-.95-1.18-1.49-1.82-2.8-2.77-6.1-2.88-9.87-.1-3.76.5-7.75,1.8-11.92.23-.73.48-1.47.74-2.19v-.02c1.16-3.35,2.64-6.46,4.4-9.33,1.26-2.07,2.73-4.09,4.41-6.03,1.64-1.92,3.46-3.62,5.43-5.05,1.97-1.43,4.03-2.39,6.18-2.89,2.14-.49,4.29-.31,6.42.55,1.38.55,2.41,1.52,3.08,2.87.69,1.34,1.05,2.88,1.12,4.62.05,1.74-.18,3.58-.71,5.51-.28.99-.62,1.96-1,2.93l-3.46,3.29,1.77-.77-.6,1.25.72-.15c-.58,1.15-1.17,2.15-1.81,2.94-.44.65-.83,1.13-1.15,1.51-.39.42-.98,1.08-1.42,1.52-2.2,2.4-4.5,4.15-6.88,5.24-2.39,1.1-4.38,1.93-5.94,2.52.43,2.87,1.35,4.68,2.76,5.47,1.41.77,3.1.95,5.05.49,1.94-.45,4.07-1.45,6.35-3.02,2.3-1.58,4.46-3.3,6.48-5.17,2.02-1.87,3.83-3.8,5.4-5.79.57-.74,1.12-1.43,1.56-2.08-.2-2.25-.12-4.81.24-7.73.07-.38.1-.76.1-1.13-.01-.36.05-.69.12-.97.11-.15.13-.39.05-.76,1.15-6.07,2.44-10.97,3.92-14.68,1.47-3.72,2.23-5.71,2.33-5.99.08-.18.16-.34.28-.47.05-.04.1-.04.14-.07.22.35.71.33,1.05.12.33-.23.59-.56.97-.69.45-.15.94.05,1.38.11.48.1,1.05-.03,1.2-.47,0,.41-1.53,3.77-1.49,4.13.55-.23,2.73-3.44,3.33-3.49h.57s-.3.93-.3.93l.81-.83v.52l.8-.54c.12.18.86,1.25.74,1.8l.56-.19s.28.01.33.05l-.18.62.5.13.18.59-.5,1.17.88-.43-.13.49.43-.1c.05.4.1.77.28,1.09-.05.19-.12.37-.2.57-.46,1.1-.95,2.43-1.48,4.02-.49,1.59-.98,3.33-1.44,5.15-.16.66-.31,1.28-.46,1.87-.16.61-.31,1.22-.44,1.87l.06.35c-.16.67-.24,1.59-.29,2.78s-.02,2.37.08,3.53c.1,1.17.34,2.18.79,3.04.44.83,1.13,1.23,2.06,1.18.28-.07.53-.17.76-.35.87-.55,1.82-1.64,2.89-3.24,1.03-1.66,2.13-3.58,3.26-5.81,1.15-2.22,2.22-4.58,3.23-7.07,1.02-2.5,1.86-4.89,2.51-7.14.12-.13.15-.26.13-.38-.03-.13,0-.32.09-.6.18-1.91.24-3.63.21-5.27.07-.56.18-1.05.38-1.48h0c.54-.19,1.08-.57,1.52-.98.46-.39,1.79,2.12,1.79,2.12.02-.46,1.05-3.4,1.51-3.53.46-.13.94-.07,1.41,0,.2.03.38.06.58.1-.28.39.47.8.9.6.46-.21.85-.62,1.31-.6.07.26-.67,5.13-.59,5.39.39,0,1.59-4.82,1.69-5.18.67.79,1.38,1.59,2.07,2.4.13.11.06.83.23.9.08,0,.29-.51.34-.51.35,2.38.3,5.36-.16,8.91Z"/>
          <path class="cls-1" d="M194.09,37.59c-.54-.59-1.26-.49-2.15.31-.9.8-1.76,2-2.59,3.56-.8,1.56-1.56,3.43-2.26,5.61-.71,2.17-1.15,4.27-1.33,6.41-.07.59-.11,1.23-.11,1.71s-.03.92-.03,1.54c1.08-.94,1.99-1.76,2.76-2.54.77-.77,1.43-1.57,1.97-2.38l1.15-1.71c1.2-1.77,1.92-3.12,2.15-4,.66-1.67,1.12-3.33,1.35-5,.25-1.66-.07-2.82-.89-3.51ZM194.09,37.59c-.54-.59-1.26-.49-2.15.31-.9.8-1.76,2-2.59,3.56-.8,1.56-1.56,3.43-2.26,5.61-.71,2.17-1.15,4.27-1.33,6.41-.07.59-.11,1.23-.11,1.71s-.03.92-.03,1.54c1.08-.94,1.99-1.76,2.76-2.54.77-.77,1.43-1.57,1.97-2.38l1.15-1.71c1.2-1.77,1.92-3.12,2.15-4,.66-1.67,1.12-3.33,1.35-5,.25-1.66-.07-2.82-.89-3.51ZM194.09,37.59c-.54-.59-1.26-.49-2.15.31-.9.8-1.76,2-2.59,3.56-.8,1.56-1.56,3.43-2.26,5.61-.71,2.17-1.15,4.27-1.33,6.41-.07.59-.11,1.23-.11,1.71s-.03.92-.03,1.54c1.08-.94,1.99-1.76,2.76-2.54.77-.77,1.43-1.57,1.97-2.38l1.15-1.71c1.2-1.77,1.92-3.12,2.15-4,.66-1.67,1.12-3.33,1.35-5,.25-1.66-.07-2.82-.89-3.51ZM194.09,37.59c-.54-.59-1.26-.49-2.15.31-.9.8-1.76,2-2.59,3.56-.8,1.56-1.56,3.43-2.26,5.61-.71,2.17-1.15,4.27-1.33,6.41-.07.59-.11,1.23-.11,1.71s-.03.92-.03,1.54c1.08-.94,1.99-1.76,2.76-2.54.77-.77,1.43-1.57,1.97-2.38l1.15-1.71c1.2-1.77,1.92-3.12,2.15-4,.66-1.67,1.12-3.33,1.35-5,.25-1.66-.07-2.82-.89-3.51ZM194.09,37.59c-.54-.59-1.26-.49-2.15.31-.9.8-1.76,2-2.59,3.56-.8,1.56-1.56,3.43-2.26,5.61-.71,2.17-1.15,4.27-1.33,6.41-.07.59-.11,1.23-.11,1.71s-.03.92-.03,1.54c1.08-.94,1.99-1.76,2.76-2.54.77-.77,1.43-1.57,1.97-2.38l1.15-1.71c1.2-1.77,1.92-3.12,2.15-4,.66-1.67,1.12-3.33,1.35-5,.25-1.66-.07-2.82-.89-3.51ZM194.09,37.59c-.54-.59-1.26-.49-2.15.31-.9.8-1.76,2-2.59,3.56-.8,1.56-1.56,3.43-2.26,5.61-.71,2.17-1.15,4.27-1.33,6.41-.07.59-.11,1.23-.11,1.71s-.03.92-.03,1.54c1.08-.94,1.99-1.76,2.76-2.54.77-.77,1.43-1.57,1.97-2.38l1.15-1.71c1.2-1.77,1.92-3.12,2.15-4,.66-1.67,1.12-3.33,1.35-5,.25-1.66-.07-2.82-.89-3.51ZM194.09,37.59c-.54-.59-1.26-.49-2.15.31-.9.8-1.76,2-2.59,3.56-.8,1.56-1.56,3.43-2.26,5.61-.71,2.17-1.15,4.27-1.33,6.41-.07.59-.11,1.23-.11,1.71s-.03.92-.03,1.54c1.08-.94,1.99-1.76,2.76-2.54.77-.77,1.43-1.57,1.97-2.38l1.15-1.71c1.2-1.77,1.92-3.12,2.15-4,.66-1.67,1.12-3.33,1.35-5,.25-1.66-.07-2.82-.89-3.51ZM194.09,37.59c-.54-.59-1.26-.49-2.15.31-.9.8-1.76,2-2.59,3.56-.8,1.56-1.56,3.43-2.26,5.61-.71,2.17-1.15,4.27-1.33,6.41-.07.59-.11,1.23-.11,1.71s-.03.92-.03,1.54c1.08-.94,1.99-1.76,2.76-2.54.77-.77,1.43-1.57,1.97-2.38l1.15-1.71c1.2-1.77,1.92-3.12,2.15-4,.66-1.67,1.12-3.33,1.35-5,.25-1.66-.07-2.82-.89-3.51ZM194.09,37.59c-.54-.59-1.26-.49-2.15.31-.9.8-1.76,2-2.59,3.56-.8,1.56-1.56,3.43-2.26,5.61-.71,2.17-1.15,4.27-1.33,6.41-.07.59-.11,1.23-.11,1.71s-.03.92-.03,1.54c1.08-.94,1.99-1.76,2.76-2.54.77-.77,1.43-1.57,1.97-2.38l1.15-1.71c1.2-1.77,1.92-3.12,2.15-4,.66-1.67,1.12-3.33,1.35-5,.25-1.66-.07-2.82-.89-3.51ZM194.09,37.59c-.54-.59-1.26-.49-2.15.31-.9.8-1.76,2-2.59,3.56-.8,1.56-1.56,3.43-2.26,5.61-.71,2.17-1.15,4.27-1.33,6.41-.07.59-.11,1.23-.11,1.71s-.03.92-.03,1.54c1.08-.94,1.99-1.76,2.76-2.54.77-.77,1.43-1.57,1.97-2.38l1.15-1.71c1.2-1.77,1.92-3.12,2.15-4,.66-1.67,1.12-3.33,1.35-5,.25-1.66-.07-2.82-.89-3.51ZM194.09,37.59c-.54-.59-1.26-.49-2.15.31-.9.8-1.76,2-2.59,3.56-.8,1.56-1.56,3.43-2.26,5.61-.71,2.17-1.15,4.27-1.33,6.41-.07.59-.11,1.23-.11,1.71s-.03.92-.03,1.54c1.08-.94,1.99-1.76,2.76-2.54.77-.77,1.43-1.57,1.97-2.38l1.15-1.71c1.2-1.77,1.92-3.12,2.15-4,.66-1.67,1.12-3.33,1.35-5,.25-1.66-.07-2.82-.89-3.51Z"/>
        </g>
        <path class="cls-1" d="M138.9,99.54c-.07.11-.15.24-.23.37.13-.05.24-.11.36-.18-.03-.08-.08-.14-.13-.19Z"/>
      </g>
      <path class="cls-1" d="M139.03,99.73c-.12.07-.23.13-.36.18.08-.13.16-.26.23-.37.05.05.1.11.13.19Z"/>
      <path class="cls-1" d="M135.67,53.24c-3.97-.95-9.14,6.43-11.53,16.47-2.4,10.04-1.12,18.95,2.89,19.9,3.95.95,9.12-6.43,11.5-16.47,2.41-10.04,1.12-18.97-2.85-19.9ZM131.78,74.29c-1.21,5.32-2.97,9.45-3.92,9.24s-.72-4.71.49-10.04c1.21-5.32,2.97-9.45,3.92-9.24.95.2.74,4.71-.49,10.04Z"/>
    </g>
  </g>
</svg>