<?xml version="1.0" encoding="UTF-8"?>
<svg id="Livello_2" data-name="Livello 2" xmlns="http://www.w3.org/2000/svg" viewBox="0 0 51.4 51.4">
  <defs>
    <style>
      .cls-1 {
        fill: #fff;
        stroke-width: 0px;
      }
    </style>
  </defs>
  <g id="OBJECTS">
    <g>
      <circle class="cls-1" cx="39.31" cy="13.32" r="3.01" transform="translate(-1.06 3.69) rotate(-5.3)"/>
      <path class="cls-1" d="M25.91,13.04c-6.98,0-12.66,5.68-12.66,12.66s5.68,12.66,12.66,12.66,12.66-5.68,12.66-12.66-5.68-12.66-12.66-12.66ZM25.91,33.81c-4.47,0-8.11-3.64-8.11-8.11s3.64-8.11,8.11-8.11,8.11,3.64,8.11,8.11-3.64,8.11-8.11,8.11Z"/>
      <path class="cls-1" d="M35.96,0H15.44C6.93,0,0,6.93,0,15.44v20.52c0,8.51,6.93,15.44,15.44,15.44h20.52c8.51,0,15.44-6.93,15.44-15.44V15.44c0-8.51-6.93-15.44-15.44-15.44ZM46.56,35.96c0,5.85-4.76,10.6-10.6,10.6H15.44c-5.85,0-10.6-4.76-10.6-10.6V15.44c0-5.85,4.76-10.6,10.6-10.6h20.52c5.85,0,10.6,4.76,10.6,10.6v20.52Z"/>
    </g>
  </g>
</svg>