<?xml version="1.0" encoding="UTF-8"?>
<svg id="Livello_2" data-name="Livello 2" xmlns="http://www.w3.org/2000/svg" viewBox="0 0 277.76 60.3">
  <defs>
    <style>
      .cls-1 {
        fill: #fff;
        stroke-width: 0px;
      }
    </style>
  </defs>
  <g id="Livello_1-2" data-name="Livello 1">
    <g>
      <path class="cls-1" d="M41.76,2.56c.55,1.66,1.21,3.57,1.96,5.73.75,2.16,1.53,4.45,2.34,6.86.8,2.41,1.65,4.89,2.53,7.43.88,2.54,1.72,5.01,2.53,7.43.8,2.41,1.58,4.7,2.34,6.86.75,2.16,1.41,4.07,1.96,5.73.6,1.66,1.17,3.22,1.7,4.67.53,1.46,1.09,2.82,1.7,4.07.6,1.26,1.32,2.43,2.15,3.51.83,1.08,1.85,2.07,3.05,2.98h-20.66c.65-.95.99-2.12,1.02-3.51.02-1.38-.14-2.84-.49-4.37-.35-1.53-.79-3.05-1.32-4.56-.53-1.51-.99-2.86-1.39-4.07h-19.53c-.45,1.26-.93,2.6-1.43,4.03-.5,1.43-.88,2.87-1.13,4.3-.25,1.43-.3,2.85-.15,4.26.15,1.41.65,2.71,1.51,3.92H5.8c.91-.5,1.77-1.13,2.6-1.88s1.61-1.6,2.34-2.53c.73-.93,1.38-1.9,1.96-2.9.58-1,1.04-1.99,1.39-2.94.91-2.71,1.96-5.84,3.17-9.39,1.21-3.54,2.44-7.16,3.7-10.86,1.26-3.69,2.49-7.31,3.69-10.86,1.21-3.54,2.29-6.7,3.24-9.46-.55-.85-1.18-1.67-1.88-2.45-.71-.78-1.46-1.44-2.26-2h18.02M23.44,36.03h15.91c-.55-1.56-1.16-3.36-1.81-5.39-.65-2.04-1.35-4.11-2.07-6.22s-1.45-4.16-2.15-6.14c-.71-1.99-1.38-3.71-2.04-5.17l-7.84,22.92M42.85,1.06h-23.92l3.97,2.74c.71.49,1.38,1.08,2,1.77.48.53.93,1.09,1.33,1.66-.9,2.59-1.89,5.51-3,8.76-1.21,3.54-2.44,7.16-3.69,10.86l-1.68,4.94-2.01,5.92c-1.21,3.55-2.26,6.68-3.17,9.4-.3.82-.74,1.74-1.27,2.67-.54.93-1.16,1.85-1.84,2.72-.67.86-1.4,1.65-2.17,2.34-.74.67-1.52,1.24-2.32,1.68l-5.07,2.81h23.33l-1.68-2.37c-.71-1-1.12-2.05-1.24-3.21-.14-1.26-.09-2.55.14-3.84.24-1.35.6-2.71,1.07-4.06.37-1.06.73-2.07,1.07-3.03h17.4c.31.91.66,1.92,1.06,3.07.51,1.45.93,2.93,1.27,4.4.32,1.41.47,2.75.45,4.01-.02,1.09-.27,1.97-.76,2.69l-1.6,2.35h28l-3.6-2.7c-1.1-.82-2.03-1.73-2.76-2.69-.76-1-1.43-2.09-1.99-3.24-.58-1.2-1.13-2.53-1.64-3.93-.53-1.46-1.09-3.02-1.7-4.68-.55-1.66-1.22-3.6-1.95-5.71-.76-2.19-1.55-4.49-2.33-6.84-.8-2.41-1.65-4.91-2.53-7.44-.88-2.55-1.73-5.04-2.52-7.41-.81-2.44-1.6-4.76-2.34-6.88-.75-2.16-1.41-4.08-1.95-5.71l-.34-1.03h0ZM25.54,34.53l5.86-17.14c.17.45.33.91.5,1.38.7,1.98,1.42,4.02,2.14,6.13.72,2.1,1.42,4.18,2.06,6.19.39,1.22.77,2.37,1.13,3.43h-11.7Z"/>
      <path class="cls-1" d="M87.46,2.56c7.19,0,12.57,1.09,16.13,3.28s5.28,5.42,5.13,9.69c0,6.08-2.97,10.13-8.9,12.14,1.96.45,3.79,1.07,5.5,1.85,1.71.78,3.18,1.75,4.41,2.9,1.23,1.16,2.2,2.58,2.9,4.26.7,1.68,1.05,3.66,1.05,5.92,0,3.52-.84,6.3-2.53,8.33-1.68,2.04-3.85,3.57-6.48,4.6-2.64,1.03-5.58,1.68-8.82,1.96s-6.45.41-9.61.41c-1.31,0-2.59-.01-3.84-.04-1.26-.03-2.46-.04-3.62-.04h-7.24c.5-1.81.91-3.85,1.21-6.11s.53-4.62.68-7.09c.15-2.46.24-4.94.26-7.43.02-2.49.04-4.84.04-7.05s-.01-4.56-.04-7.05c-.03-2.49-.11-4.95-.26-7.39-.15-2.44-.38-4.79-.68-7.05-.3-2.26-.71-4.3-1.21-6.11h15.91M85.35,26.08c1.76,0,3.4-.15,4.94-.45,1.53-.3,2.89-.83,4.07-1.58,1.18-.75,2.1-1.78,2.75-3.09.65-1.31.98-2.97.98-4.98,0-1.36-.19-2.61-.57-3.77-.38-1.16-.99-2.17-1.85-3.05-.85-.88-1.97-1.57-3.35-2.07-1.38-.5-3.1-.78-5.17-.83h-1.81v19.83M87.38,53c1.96,0,3.79-.18,5.5-.53,1.71-.35,3.2-.94,4.49-1.77,1.28-.83,2.29-1.93,3.02-3.32.73-1.38,1.09-3.1,1.09-5.17.05-1.96-.25-3.67-.91-5.13-.65-1.46-1.56-2.66-2.71-3.62-1.16-.95-2.54-1.66-4.15-2.11-1.61-.45-3.34-.68-5.2-.68h-3.17v22.24c.35,0,.69.01,1.02.04.33.03.67.04,1.02.04M87.46,1.06h-17.88l.53,1.9c.48,1.74.88,3.73,1.17,5.9.29,2.21.52,4.54.67,6.94.15,2.38.23,4.84.26,7.31.03,2.61.04,4.91.04,7.03s-.01,4.43-.04,7.04c-.03,2.47-.11,4.94-.26,7.35-.15,2.42-.37,4.77-.67,6.98-.29,2.18-.68,4.16-1.17,5.9l-.53,1.9h9.21c1.19,0,2.39.01,3.59.04,1.28.02,2.58.04,3.88.04,3.2,0,6.48-.14,9.74-.42,3.37-.29,6.48-.98,9.24-2.06,2.86-1.12,5.25-2.81,7.09-5.04,1.9-2.3,2.87-5.43,2.87-9.29,0-2.45-.39-4.64-1.17-6.5-.78-1.87-1.88-3.48-3.26-4.78-1.35-1.26-2.97-2.33-4.82-3.17-.62-.28-1.26-.54-1.91-.79,4.1-2.53,6.17-6.48,6.18-11.81.16-4.82-1.8-8.52-5.84-10.99-3.84-2.36-9.38-3.5-16.92-3.5h0ZM86.85,7.75h.31c1.85.05,3.43.29,4.65.74,1.16.42,2.1,1,2.79,1.71.7.72,1.19,1.53,1.5,2.47.33,1,.49,2.11.49,3.31,0,1.77-.28,3.21-.82,4.31-.53,1.07-1.26,1.89-2.22,2.5-1.02.65-2.21,1.11-3.55,1.38-.99.19-2.05.32-3.15.38V7.75h0ZM86.85,32.18h1.67c1.71,0,3.33.21,4.8.62,1.4.39,2.61,1.01,3.6,1.82.97.8,1.74,1.84,2.3,3.08.56,1.24.82,2.75.77,4.48,0,1.84-.31,3.34-.92,4.5-.61,1.16-1.43,2.06-2.5,2.76-1.12.72-2.46,1.25-3.97,1.56-1.6.33-3.35.5-5.2.5-.19,0-.36,0-.54-.01v-19.31h0Z"/>
      <path class="cls-1" d="M145.82,1.5c3.42,0,6.61.7,9.58,2.11s5.57,3.38,7.8,5.92c2.24,2.54,4,5.57,5.28,9.09,1.28,3.52,1.92,7.39,1.92,11.61-.05,4.73-.78,8.89-2.19,12.48-1.41,3.59-3.27,6.57-5.58,8.93-2.31,2.36-4.93,4.15-7.84,5.35-2.92,1.21-5.91,1.81-8.97,1.81s-5.98-.6-8.9-1.81c-2.92-1.21-5.53-2.99-7.84-5.35-2.31-2.36-4.18-5.34-5.62-8.93s-2.17-7.75-2.22-12.48c0-4.22.64-8.09,1.92-11.61,1.28-3.52,3.04-6.55,5.28-9.09,2.24-2.54,4.85-4.51,7.84-5.92,2.99-1.41,6.17-2.11,9.54-2.11M145.82,53.68c1.51,0,2.91-.58,4.22-1.73,1.31-1.16,2.44-2.78,3.39-4.86.95-2.09,1.7-4.56,2.22-7.43.53-2.87.79-6.01.79-9.43,0-3.92-.3-7.34-.9-10.25-.6-2.92-1.41-5.34-2.41-7.28-1.01-1.93-2.14-3.39-3.39-4.37-1.26-.98-2.56-1.47-3.92-1.47s-2.6.49-3.88,1.47c-1.28.98-2.43,2.44-3.43,4.37-1.01,1.94-1.81,4.36-2.41,7.28-.6,2.92-.91,6.33-.91,10.25,0,3.42.26,6.56.79,9.43.53,2.87,1.27,5.34,2.22,7.43.95,2.09,2.08,3.71,3.39,4.86,1.31,1.16,2.71,1.73,4.22,1.73M145.82,0c-3.57,0-7,.76-10.18,2.25-3.16,1.49-5.96,3.6-8.33,6.28-2.35,2.67-4.22,5.88-5.56,9.56-1.34,3.67-2.01,7.75-2.01,12.13.05,4.9.84,9.28,2.33,13.03,1.5,3.76,3.5,6.94,5.94,9.43,2.44,2.5,5.25,4.41,8.34,5.69,3.09,1.28,6.27,1.92,9.47,1.92s6.46-.65,9.55-1.92c3.09-1.28,5.9-3.2,8.34-5.69,2.44-2.5,4.43-5.67,5.9-9.44,1.47-3.75,2.24-8.13,2.29-13.01,0-4.39-.68-8.47-2.01-12.14-1.34-3.68-3.21-6.89-5.56-9.56-2.36-2.68-5.15-4.79-8.29-6.28-3.16-1.5-6.59-2.26-10.22-2.26h0ZM145.82,52.18c-1.14,0-2.2-.44-3.23-1.36-1.14-1.01-2.16-2.48-3.02-4.36-.9-1.96-1.61-4.34-2.11-7.07-.51-2.76-.77-5.84-.77-9.15,0-3.8.29-7.15.87-9.95.57-2.77,1.34-5.09,2.27-6.89.9-1.73,1.91-3.03,3.01-3.87,1.02-.78,1.99-1.16,2.97-1.16s2,.38,3,1.15c1.08.84,2.08,2.15,2.98,3.88.94,1.8,1.7,4.12,2.28,6.89.58,2.8.87,6.15.87,9.95,0,3.31-.26,6.39-.77,9.15-.5,2.73-1.21,5.11-2.11,7.07-.86,1.88-1.88,3.35-3.02,4.36-1.03.91-2.09,1.36-3.23,1.36h0Z"/>
      <path class="cls-1" d="M224.31,2.56c-1.86,2.76-2.84,6.51-2.94,11.23v28.43c.1,2.76-.42,5.18-1.55,7.24-1.13,2.06-2.65,3.78-4.56,5.17-1.91,1.38-4.11,2.43-6.6,3.13s-5.01,1.06-7.58,1.06-5.08-.35-7.54-1.06c-2.46-.7-4.65-1.75-6.56-3.13-1.91-1.38-3.43-3.1-4.56-5.17-1.13-2.06-1.65-4.47-1.54-7.24V13.79c-.05-2.26-.34-4.37-.87-6.33-.53-1.96-1.22-3.59-2.07-4.9h18.02c-.85,1.31-1.54,2.93-2.07,4.86-.53,1.94-.79,4.03-.79,6.3v27.37c0,1.66.14,3.22.41,4.67.28,1.46.73,2.73,1.36,3.81.63,1.08,1.44,1.94,2.45,2.56,1,.63,2.26.94,3.77.94s2.78-.31,3.81-.94c1.03-.63,1.86-1.48,2.49-2.56.63-1.08,1.08-2.35,1.36-3.81s.42-3.02.42-4.67V13.79c0-2.31-.26-4.44-.79-6.37-.53-1.93-1.24-3.56-2.15-4.86h18.1M227.12,1.06h-23.77l1.63,2.35c.8,1.16,1.46,2.64,1.94,4.4.49,1.8.74,3.81.74,5.98v27.29c0,1.56-.13,3.03-.39,4.4-.24,1.28-.64,2.4-1.18,3.33-.51.87-1.15,1.54-1.97,2.04-.79.48-1.8.72-3.03.72s-2.22-.24-2.97-.71c-.8-.5-1.44-1.17-1.95-2.05-.54-.93-.94-2.05-1.18-3.33-.26-1.36-.39-2.84-.39-4.4V13.71c0-2.12.25-4.1.74-5.9.48-1.78,1.12-3.27,1.88-4.44l1.52-2.32h-23.56l1.52,2.32c.76,1.17,1.4,2.67,1.88,4.47.49,1.84.77,3.85.82,5.98v28.37c-.11,3.01.48,5.7,1.73,7.99,1.24,2.25,2.92,4.15,5,5.66,2.04,1.48,4.41,2.61,7.03,3.36,2.59.74,5.26,1.11,7.95,1.11s5.37-.37,7.98-1.11c2.64-.75,5.02-1.88,7.07-3.36,2.08-1.51,3.76-3.41,5-5.66,1.25-2.28,1.84-4.97,1.73-7.99V13.79c.09-4.38,1-7.89,2.68-10.4l1.57-2.34h0Z"/>
      <path class="cls-1" d="M276.26,2.56v13.95c-1.81-2.31-4.03-4.11-6.67-5.39-2.64-1.28-5.54-2.17-8.71-2.68-.45,3.32-.74,6.87-.87,10.67-.13,3.8-.19,7.5-.19,11.12.05,4.67.15,9.35.3,14.02s.78,9.2,1.88,13.57h-15.98c.5-1.81.9-3.85,1.21-6.11s.53-4.62.68-7.09c.15-2.46.24-4.94.26-7.43s.04-4.84.04-7.05c0-3.72-.05-7.41-.15-11.08-.1-3.67-.38-7.21-.83-10.63-3.17.5-6.07,1.39-8.71,2.68-2.64,1.28-4.86,3.08-6.67,5.39V2.56h44.41M277.76,1.06h-47.41v19.8l2.68-3.42c1.66-2.12,3.73-3.79,6.15-4.97,2.06-1,4.33-1.76,6.76-2.27.33,2.88.54,5.87.62,8.91.1,3.65.15,7.37.15,11.04,0,2.2-.01,4.56-.04,7.03-.03,2.45-.11,4.93-.26,7.35-.15,2.41-.37,4.76-.67,6.98-.29,2.18-.68,4.17-1.16,5.9l-.53,1.9h19.88l-.47-1.87c-1.07-4.25-1.69-8.71-1.84-13.25-.15-4.69-.25-9.4-.3-13.99,0-3.58.06-7.3.19-11.06.1-3.13.32-6.14.66-8.96,2.43.5,4.7,1.26,6.77,2.27,2.42,1.17,4.49,2.85,6.15,4.97l2.68,3.42V1.06h0Z"/>
    </g>
  </g>
</svg>