<?xml version="1.0" encoding="UTF-8"?>
<svg id="Livello_2" data-name="Livello 2" xmlns="http://www.w3.org/2000/svg" viewBox="0 0 1214.95 103.17">
  <defs>
    <style>
      .cls-1 {
        fill: #fff;
        stroke-width: 0px;
      }
    </style>
  </defs>
  <g id="Livello_1-2" data-name="Livello 1">
    <g>
      <path class="cls-1" d="M42.79,2c5.91,0,11.48,1.74,16.7,5.22.09,0,.72-.15,1.89-.46,1.17-.3,2.48-.63,3.91-.98,1.44-.35,3.37-.78,5.81-1.3v23.75c-.26-.26-1.24-1.3-2.94-3.13-1.7-1.83-3.78-3.8-6.26-5.94-2.48-2.13-5.22-4.04-8.22-5.74-3-1.7-5.89-2.54-8.68-2.54-1.3,0-2.61.26-3.91.78-2.61.87-4.87,2.68-6.79,5.42-1.91,2.74-3.5,6.09-4.76,10.05-1.26,3.96-2.18,8.31-2.74,13.05-.57,4.74-.78,9.5-.65,14.29.13,4.79.61,9.46,1.44,14.03.83,4.57,2.02,8.59,3.59,12.07,1.57,3.48,3.48,6.29,5.74,8.42,2.26,2.13,4.91,3.2,7.96,3.2.43,0,.85-.02,1.24-.07.39-.04.8-.11,1.24-.2,2.43-.61,4.83-1.8,7.18-3.59,2.35-1.78,4.57-3.83,6.65-6.13,2.09-2.3,3.98-4.7,5.68-7.18,1.7-2.48,3.11-4.67,4.24-6.59v27.66c-3.91,1.83-8.2,3.13-12.85,3.91-4.65.78-9.16,1.17-13.5,1.17-6.7,0-12.61-1.26-17.75-3.78-5.13-2.52-9.48-5.89-13.05-10.11-3.57-4.22-6.33-9.05-8.29-14.48-1.96-5.44-3.13-11.07-3.52-16.9-.39-5.83,0-11.63,1.17-17.42,1.17-5.78,3.17-11.11,6-15.98,2.83-4.87,6.48-9.05,10.96-12.53,4.48-3.48,9.76-5.87,15.85-7.18,2.26-.52,4.48-.78,6.65-.78M42.79,0c-2.32,0-4.71.28-7.11.83-6.32,1.35-11.93,3.9-16.63,7.54-4.66,3.62-8.52,8.03-11.46,13.1-2.92,5.04-5.02,10.62-6.23,16.59C.16,44-.25,50.04.15,56.02c.4,5.99,1.63,11.86,3.64,17.44,2.03,5.64,4.94,10.72,8.64,15.1,3.73,4.41,8.33,7.98,13.69,10.62,5.38,2.65,11.65,3.99,18.63,3.99,4.44,0,9.09-.4,13.84-1.2,4.81-.81,9.31-2.18,13.37-4.07l1.15-.54v-36.25l-3.72,6.29c-1.11,1.88-2.51,4.06-4.17,6.48-1.64,2.4-3.49,4.74-5.51,6.96-2,2.21-4.14,4.18-6.38,5.88-2.11,1.6-4.26,2.69-6.41,3.23-.36.07-.7.13-1.02.16-.31.04-.65.05-1.02.05-2.54,0-4.7-.87-6.59-2.65-2.06-1.94-3.84-4.56-5.29-7.78-1.49-3.32-2.65-7.22-3.44-11.6-.8-4.44-1.28-9.06-1.4-13.73-.13-4.67.09-9.38.64-14,.55-4.59,1.44-8.86,2.66-12.68,1.19-3.75,2.71-6.95,4.5-9.51,1.65-2.37,3.6-3.93,5.78-4.66l.06-.02.05-.02c1.06-.42,2.13-.64,3.17-.64,2.42,0,5.01.77,7.69,2.29,2.87,1.62,5.53,3.48,7.9,5.52,2.42,2.08,4.47,4.02,6.1,5.78,2.29,2.46,2.8,3,2.99,3.19l3.41,3.41V2.01l-2.42.52c-2.37.51-4.35.95-5.86,1.32-1.45.35-2.76.68-3.95.99-.44.11-.77.2-1.01.26C54.55,1.71,48.8,0,42.79,0h0Z"/>
      <path class="cls-1" d="M146.39,3.83c.96,2.87,2.09,6.18,3.39,9.92,1.3,3.74,2.65,7.7,4.04,11.87,1.39,4.18,2.85,8.46,4.37,12.85,1.52,4.39,2.98,8.68,4.37,12.85,1.39,4.18,2.74,8.13,4.04,11.87,1.3,3.74,2.43,7.05,3.39,9.92,1.04,2.87,2.02,5.57,2.94,8.09.91,2.52,1.89,4.87,2.94,7.05,1.04,2.18,2.28,4.2,3.72,6.07,1.44,1.87,3.2,3.59,5.28,5.15h-35.75c1.13-1.65,1.72-3.67,1.76-6.07.04-2.39-.24-4.91-.85-7.57-.61-2.65-1.37-5.28-2.28-7.89-.91-2.61-1.72-4.96-2.41-7.05h-33.79c-.78,2.18-1.61,4.5-2.48,6.98-.87,2.48-1.52,4.96-1.96,7.44-.44,2.48-.52,4.94-.26,7.37.26,2.44,1.13,4.7,2.61,6.79h-25.31c1.57-.87,3.07-1.96,4.5-3.26,1.44-1.31,2.78-2.76,4.04-4.37,1.26-1.61,2.39-3.28,3.39-5.02,1-1.74,1.8-3.43,2.41-5.09,1.57-4.7,3.39-10.11,5.48-16.25,2.09-6.13,4.22-12.4,6.39-18.79,2.17-6.39,4.31-12.66,6.39-18.79,2.09-6.13,3.96-11.59,5.61-16.38-.96-1.48-2.04-2.89-3.26-4.24-1.22-1.35-2.52-2.5-3.91-3.46h31.19M114.69,61.76h27.53c-.96-2.7-2-5.81-3.13-9.33-1.13-3.52-2.33-7.11-3.59-10.76-1.26-3.65-2.5-7.2-3.72-10.63-1.22-3.44-2.39-6.41-3.52-8.94l-13.57,39.67M147.83,1.83h-39.06l5.29,3.65c1.26.87,2.46,1.93,3.57,3.15.92,1.02,1.77,2.09,2.53,3.19-1.55,4.5-3.29,9.56-5.29,15.44-2.09,6.13-4.22,12.4-6.39,18.79l-1.55,4.55-4.84,14.23c-2.1,6.16-3.94,11.62-5.47,16.23-.57,1.53-1.33,3.13-2.26,4.76-.94,1.64-2.03,3.25-3.23,4.79-1.18,1.51-2.47,2.9-3.82,4.12-1.32,1.2-2.71,2.21-4.13,2.99l-6.76,3.75h36.92l-2.24-3.16c-1.29-1.82-2.03-3.73-2.25-5.84-.24-2.24-.16-4.53.24-6.81.41-2.36,1.04-4.76,1.87-7.12.69-1.98,1.36-3.86,2-5.64h30.95c.58,1.72,1.24,3.63,1.97,5.71.88,2.52,1.63,5.11,2.22,7.68.57,2.49.84,4.87.8,7.08-.04,2.01-.5,3.64-1.41,4.97l-2.14,3.13h45.54l-4.8-3.6c-1.93-1.45-3.58-3.06-4.9-4.77-1.35-1.75-2.52-3.68-3.5-5.72-1.01-2.11-1.97-4.42-2.86-6.86-.91-2.52-1.89-5.21-2.93-8.07-.97-2.9-2.11-6.24-3.39-9.92-1.32-3.77-2.67-7.76-4.04-11.85-1.38-4.13-2.85-8.46-4.38-12.87-1.53-4.41-3-8.73-4.36-12.83-1.4-4.21-2.77-8.21-4.05-11.9-1.3-3.72-2.44-7.04-3.38-9.89l-.46-1.37h0ZM117.48,59.76l10.95-32.01c.48,1.24.97,2.56,1.46,3.95,1.21,3.42,2.46,6.99,3.71,10.62,1.26,3.65,2.46,7.26,3.57,10.72.78,2.42,1.52,4.67,2.22,6.72h-21.92Z"/>
      <path class="cls-1" d="M274.79,3.83v24.14c-3.13-4-6.98-7.11-11.55-9.33-4.57-2.22-9.59-3.76-15.07-4.63-.78,5.74-1.28,11.9-1.5,18.46-.22,6.57-.33,12.98-.33,19.25.09,8.09.26,16.18.52,24.27.26,8.09,1.35,15.92,3.26,23.49h-27.66c.87-3.13,1.57-6.65,2.09-10.57.52-3.91.91-8,1.17-12.27.26-4.26.41-8.55.46-12.85.04-4.31.06-8.37.06-12.2,0-6.44-.09-12.83-.26-19.18-.18-6.35-.65-12.48-1.44-18.4-5.48.87-10.5,2.41-15.07,4.63-4.57,2.22-8.42,5.33-11.55,9.33V3.83h76.85M276.79,1.83h-80.85v31.94l3.57-4.57c2.93-3.74,6.58-6.69,10.85-8.76,3.8-1.84,7.98-3.22,12.47-4.1.62,5.18,1.01,10.59,1.16,16.12.17,6.32.26,12.75.26,19.13,0,3.72-.02,7.82-.06,12.18-.04,4.28-.2,8.57-.45,12.75-.26,4.19-.65,8.27-1.16,12.12-.51,3.79-1.19,7.26-2.03,10.3l-.7,2.53h32.86l-.63-2.49c-1.87-7.39-2.95-15.15-3.2-23.06-.26-8.1-.44-16.25-.52-24.23,0-6.2.11-12.65.33-19.16.19-5.68.6-11.12,1.22-16.2,4.49.88,8.68,2.25,12.48,4.1,4.27,2.07,7.92,5.02,10.85,8.76l3.57,4.57V1.83h0Z"/>
      <path class="cls-1" d="M328.54,2c5.91,0,11.48,1.74,16.7,5.22.09,0,.72-.15,1.89-.46,1.17-.3,2.48-.63,3.91-.98,1.44-.35,3.37-.78,5.81-1.3v23.75c-.26-.26-1.24-1.3-2.94-3.13-1.7-1.83-3.78-3.8-6.26-5.94-2.48-2.13-5.22-4.04-8.22-5.74-3-1.7-5.89-2.54-8.68-2.54-1.3,0-2.61.26-3.91.78-2.61.87-4.87,2.68-6.79,5.42-1.91,2.74-3.5,6.09-4.76,10.05-1.26,3.96-2.18,8.31-2.74,13.05-.57,4.74-.78,9.5-.65,14.29.13,4.79.61,9.46,1.44,14.03.83,4.57,2.02,8.59,3.59,12.07,1.57,3.48,3.48,6.29,5.74,8.42,2.26,2.13,4.91,3.2,7.96,3.2.43,0,.85-.02,1.24-.07.39-.04.8-.11,1.24-.2,2.43-.61,4.83-1.8,7.18-3.59,2.35-1.78,4.57-3.83,6.65-6.13,2.09-2.3,3.98-4.7,5.68-7.18,1.7-2.48,3.11-4.67,4.24-6.59v27.66c-3.91,1.83-8.2,3.13-12.85,3.91-4.65.78-9.16,1.17-13.5,1.17-6.7,0-12.61-1.26-17.75-3.78-5.13-2.52-9.48-5.89-13.05-10.11-3.57-4.22-6.33-9.05-8.29-14.48-1.96-5.44-3.13-11.07-3.52-16.9-.39-5.83,0-11.63,1.17-17.42,1.17-5.78,3.17-11.11,6-15.98,2.83-4.87,6.48-9.05,10.96-12.53,4.48-3.48,9.76-5.87,15.85-7.18,2.26-.52,4.48-.78,6.65-.78M328.54,0c-2.32,0-4.71.28-7.11.83-6.32,1.35-11.93,3.9-16.63,7.54-4.66,3.62-8.52,8.03-11.46,13.1-2.92,5.04-5.02,10.62-6.23,16.59-1.2,5.93-1.61,11.97-1.21,17.95.4,5.99,1.63,11.86,3.64,17.44,2.03,5.64,4.94,10.72,8.64,15.1,3.73,4.41,8.33,7.98,13.69,10.62,5.38,2.65,11.65,3.99,18.63,3.99,4.44,0,9.09-.4,13.84-1.2,4.81-.81,9.31-2.18,13.37-4.07l1.15-.54v-36.25l-3.72,6.29c-1.11,1.88-2.51,4.06-4.17,6.48-1.64,2.4-3.49,4.74-5.51,6.96-2,2.21-4.14,4.18-6.38,5.88-2.11,1.6-4.26,2.69-6.41,3.23-.36.07-.7.13-1.02.16-.31.04-.65.05-1.02.05-2.54,0-4.7-.87-6.59-2.65-2.06-1.94-3.84-4.56-5.29-7.78-1.49-3.32-2.65-7.22-3.44-11.6-.8-4.44-1.28-9.06-1.4-13.73-.13-4.67.09-9.38.64-14,.55-4.59,1.44-8.86,2.66-12.68,1.19-3.75,2.71-6.95,4.5-9.51,1.65-2.37,3.6-3.93,5.78-4.66l.06-.02.05-.02c1.06-.42,2.13-.64,3.17-.64,2.42,0,5.01.77,7.69,2.29,2.87,1.62,5.53,3.48,7.9,5.52,2.42,2.08,4.47,4.02,6.1,5.78,2.29,2.46,2.8,3,2.99,3.19l3.41,3.41V2.01l-2.42.52c-2.37.51-4.35.95-5.86,1.32-1.45.35-2.76.68-3.95.99-.44.11-.77.2-1.01.26-5.33-3.37-11.07-5.08-17.09-5.08h0Z"/>
      <path class="cls-1" d="M449.37,3.83c-.87,3.13-1.57,6.65-2.09,10.57-.52,3.92-.91,7.98-1.17,12.2-.26,4.22-.44,8.48-.52,12.79-.09,4.31-.13,8.37-.13,12.2s.04,7.89.13,12.2c.09,4.31.26,8.59.52,12.85.26,4.26.65,8.35,1.17,12.27.52,3.92,1.22,7.44,2.09,10.57h-27.79c.87-3.04,1.57-6.52,2.09-10.44.52-3.92.91-7.96,1.17-12.13.26-4.18.41-8.39.46-12.66.04-4.26.07-8.26.07-12h-31.58c0,3.74.04,7.74.13,12,.09,4.26.26,8.48.52,12.66.26,4.17.63,8.22,1.11,12.13.48,3.91,1.15,7.39,2.02,10.44h-27.66c.87-3.13,1.57-6.65,2.09-10.57.52-3.91.91-8,1.17-12.27.26-4.26.41-8.55.46-12.85.04-4.31.07-8.37.07-12.2s-.02-7.89-.07-12.2c-.04-4.31-.2-8.57-.46-12.79-.26-4.22-.65-8.29-1.17-12.2-.52-3.91-1.22-7.44-2.09-10.57h27.66c-.7,2.52-1.28,5.35-1.76,8.48-.48,3.13-.85,6.42-1.11,9.85-.26,3.44-.46,6.94-.59,10.5-.13,3.57-.24,7.05-.33,10.44h31.58c0-3.39-.07-6.87-.2-10.44-.13-3.57-.35-7.07-.65-10.5-.31-3.43-.7-6.72-1.17-9.85-.48-3.13-1.07-5.96-1.76-8.48h27.79M452,1.83h-33.05l.7,2.53c.67,2.44,1.25,5.21,1.71,8.25.47,3.07.86,6.34,1.16,9.73.3,3.4.52,6.9.65,10.4.1,2.83.17,5.64.19,8.37h-27.52c.07-2.67.17-5.47.27-8.37.13-3.52.33-7.03.58-10.43.26-3.38.62-6.64,1.09-9.7.46-3.04,1.04-5.81,1.71-8.25l.7-2.53h-32.92l.7,2.53c.84,3.04,1.53,6.5,2.03,10.3.51,3.85.9,7.91,1.16,12.06.26,4.14.41,8.41.45,12.69.04,4.34.07,8.44.07,12.18s-.02,7.84-.07,12.18c-.04,4.28-.2,8.57-.45,12.75-.26,4.19-.65,8.27-1.16,12.12-.51,3.8-1.19,7.26-2.03,10.3l-.7,2.53h32.95l-.73-2.55c-.84-2.93-1.5-6.34-1.96-10.13-.47-3.85-.84-7.89-1.1-12.02-.26-4.16-.43-8.39-.52-12.57-.07-3.46-.11-6.8-.13-9.96h27.57c0,3.11-.03,6.46-.06,9.98-.04,4.23-.2,8.46-.45,12.55-.26,4.11-.65,8.15-1.16,12-.51,3.79-1.19,7.21-2.03,10.15l-.73,2.55h33.08l-.7-2.54c-.84-3.02-1.52-6.49-2.03-10.3-.51-3.84-.9-7.92-1.16-12.12-.26-4.24-.43-8.54-.52-12.77-.09-4.25-.13-8.34-.13-12.16s.04-7.91.13-12.16c.08-4.23.26-8.5.52-12.71.26-4.16.65-8.21,1.16-12.06.51-3.81,1.19-7.27,2.03-10.3l.71-2.54h0Z"/>
      <path class="cls-1" d="M530.53,2c3.57,0,6.96.46,10.18,1.37,3.22.91,6.07,2.22,8.55,3.91,2.48,1.7,4.44,3.76,5.87,6.2,1.44,2.44,2.15,5.22,2.15,8.35,0,2.87-.61,5.53-1.83,7.96-1.22,2.44-2.83,4.7-4.83,6.79-2,2.09-4.24,3.98-6.72,5.68-2.48,1.7-5.02,3.28-7.63,4.76l16.96,20.09c1.74-2.87,2.94-5.74,3.59-8.61.65-2.87.63-5.78-.06-8.74h24.79c-3.31,3.05-6.39,6.05-9.26,9-2.52,2.52-5,5.2-7.44,8.03-2.44,2.83-4.31,5.37-5.61,7.63l1.83,2.22c4.26,5.22,8.33,9.61,12.2,13.18,3.87,3.57,7.89,6.78,12.07,9.66h-33.93c-.35-1.74-.83-3.37-1.44-4.89-.61-1.52-1.35-3.02-2.22-4.5-3.22,3.13-7.22,5.66-12,7.57-4.79,1.91-9.53,2.87-14.22,2.87-3.22,0-6.39-.5-9.53-1.5-3.13-1-5.96-2.48-8.48-4.44-2.52-1.96-4.57-4.37-6.13-7.24-1.57-2.87-2.35-6.18-2.35-9.92s.54-6.79,1.63-9.66c1.09-2.87,2.5-5.46,4.24-7.76,1.74-2.3,3.78-4.35,6.13-6.13,2.35-1.78,4.74-3.37,7.18-4.76l-7.05-8.48c-2.26-2.7-3.98-5.61-5.15-8.74-1.17-3.13-1.76-6.35-1.76-9.66,0-3.57.93-6.63,2.81-9.2,1.87-2.56,4.26-4.67,7.18-6.33,2.91-1.65,6.15-2.85,9.72-3.59,3.57-.74,7.09-1.11,10.57-1.11M530.66,40.23c5.91-4.87,8.87-10.92,8.87-18.14,0-4.18-.98-7.29-2.94-9.33-1.96-2.04-4.42-3.07-7.37-3.07-2,0-3.72.31-5.15.91-1.44.61-2.61,1.39-3.52,2.35-.91.96-1.57,2-1.96,3.13-.39,1.13-.59,2.22-.59,3.26,0,2.96.87,5.68,2.61,8.16,1.74,2.48,3.78,5.15,6.13,8.02l3.91,4.7M529.1,83.29c1.83,0,3.72-.24,5.68-.72,1.96-.48,3.89-1.19,5.81-2.15-.7-.7-1.33-1.35-1.89-1.96-.57-.61-1.07-1.22-1.5-1.83l-17.09-20.49c-2.09,1.91-3.68,3.94-4.76,6.07-1.09,2.13-1.7,4.24-1.83,6.33-.13,2.09.15,4.09.85,6,.7,1.91,1.78,3.57,3.26,4.96,1.22,1.22,2.83,2.15,4.83,2.81,2,.65,4.22.98,6.65.98M530.53,0c-3.59,0-7.29.39-10.97,1.15-3.75.78-7.22,2.06-10.3,3.81-3.15,1.79-5.78,4.1-7.81,6.89-2.12,2.9-3.19,6.39-3.19,10.38,0,3.53.64,7.02,1.89,10.36,1.25,3.34,3.1,6.47,5.5,9.33l5.55,6.68c-1.81,1.12-3.6,2.36-5.35,3.69-2.49,1.89-4.68,4.08-6.52,6.52-1.85,2.45-3.37,5.23-4.51,8.26-1.17,3.08-1.76,6.57-1.76,10.36,0,4.06.87,7.72,2.59,10.87,1.69,3.1,3.93,5.75,6.66,7.86,2.7,2.09,5.76,3.7,9.1,4.76,3.32,1.06,6.73,1.6,10.13,1.6,4.93,0,9.96-1.01,14.97-3.01,4.09-1.63,7.68-3.73,10.71-6.24.34.68.64,1.37.92,2.06.56,1.4,1.01,2.93,1.33,4.54l.32,1.61h42l-5.31-3.65c-4.09-2.81-8.08-6-11.85-9.48-3.79-3.49-7.83-7.85-12.01-12.97l-.93-1.13c1.19-1.86,2.75-3.92,4.68-6.15,2.39-2.77,4.86-5.43,7.34-7.92,2.86-2.95,5.95-5.95,9.2-8.95l3.77-3.47h-32.44l.58,2.46c.62,2.65.64,5.29.06,7.84-.42,1.83-1.08,3.68-1.99,5.54l-13.55-16.05c1.93-1.15,3.84-2.37,5.7-3.64,2.58-1.76,4.95-3.76,7.03-5.94,2.13-2.22,3.87-4.67,5.17-7.27,1.35-2.71,2.04-5.68,2.04-8.85,0-3.48-.82-6.63-2.43-9.37-1.58-2.68-3.75-4.98-6.47-6.83-2.64-1.81-5.72-3.22-9.13-4.19-3.38-.96-6.99-1.45-10.72-1.45h0ZM530.88,37.37l-2.6-3.12c-2.3-2.81-4.33-5.47-6.03-7.89-1.51-2.15-2.25-4.44-2.25-7.01,0-.82.16-1.69.48-2.61.29-.85.8-1.66,1.51-2.4.72-.75,1.68-1.39,2.86-1.89,1.18-.5,2.65-.76,4.37-.76,2.41,0,4.35.8,5.93,2.45,1.58,1.65,2.38,4.32,2.38,7.95,0,6.02-2.18,11.03-6.65,15.28h0ZM529.1,81.29c-2.21,0-4.24-.3-6.03-.88-1.69-.55-3.05-1.33-4.03-2.32l-.02-.02-.02-.02c-1.26-1.18-2.16-2.55-2.75-4.18-.6-1.64-.84-3.39-.73-5.2.11-1.8.66-3.67,1.61-5.54.7-1.37,1.65-2.72,2.84-4.02l15.65,18.75c.46.63.97,1.27,1.54,1.88-.95.36-1.9.65-2.85.89-1.79.44-3.54.66-5.2.66h0Z"/>
      <path class="cls-1" d="M648.62,3.7c3.22,0,6.5.04,9.85.13,3.35.09,6.54.26,9.59.52,3.04.26,5.87.61,8.48,1.04,2.61.44,4.83,1.04,6.65,1.83,6,2.09,10.24,5.02,12.72,8.81,2.48,3.78,3.72,8.29,3.72,13.5.17,5.48-1.35,10.4-4.57,14.74-3.22,4.35-7.96,7.39-14.22,9.13,5.04,2.26,8.57,6.48,10.57,12.66l.78,2.48c.26.87.61,2,1.04,3.39.43,1.39,1,3.13,1.7,5.22,1.74,4.87,3.54,9.11,5.42,12.72,1.87,3.61,4.46,6.81,7.76,9.59h-32.75c1.04-1.48,1.61-3.26,1.7-5.35.09-2.09-.11-4.28-.59-6.59-.48-2.3-1.09-4.59-1.83-6.85-.74-2.26-1.42-4.31-2.02-6.13-.7-2.09-1.52-4.2-2.48-6.33-.96-2.13-2.13-4.04-3.52-5.74-1.39-1.7-3.05-3.13-4.96-4.31-1.91-1.17-4.18-1.8-6.79-1.89.09,7.13.3,14.44.65,21.92.35,7.48,1.39,14.57,3.13,21.27h-27.66c.78-2.87,1.44-6.18,1.96-9.92.52-3.74.91-7.63,1.17-11.68.26-4.04.43-8.11.52-12.2.09-4.09.13-7.92.13-11.48,0-4.18-.02-8.42-.07-12.72-.04-4.31-.18-8.57-.39-12.79-.22-4.22-.57-8.42-1.04-12.59-.48-4.17-1.24-8.26-2.28-12.26h2.22c2.26,0,4.7-.02,7.31-.07,2.61-.04,5.31-.07,8.09-.07M654.88,49.5h2.22c3.83,0,7.13-.52,9.92-1.57,2.78-1.04,5.09-2.43,6.92-4.17,1.83-1.74,3.15-3.83,3.98-6.26.83-2.43,1.19-5,1.11-7.7.09-2.7-.28-5.2-1.11-7.5-.83-2.3-2.13-4.31-3.91-6-1.78-1.7-4.07-3.02-6.85-3.98-2.79-.96-6.05-1.44-9.79-1.44-.44,0-.85.02-1.24.07-.39.04-.81.06-1.24.06v38.49M648.62,1.7c-2.74,0-5.48.02-8.12.07-2.51.04-4.96.07-7.27.07h-4.81l.65,2.5c1.01,3.89,1.77,7.92,2.23,11.99.47,4.12.82,8.32,1.03,12.47.21,4.18.34,8.46.39,12.7.04,4.34.07,8.62.07,12.7,0,3.47-.04,7.32-.13,11.44-.09,4.05-.26,8.13-.52,12.11-.26,3.98-.65,7.86-1.16,11.53-.51,3.64-1.15,6.89-1.91,9.67l-.69,2.53h32.87l-.65-2.5c-1.7-6.53-2.73-13.55-3.07-20.86-.31-6.65-.52-13.23-.62-19.61,1.38.25,2.62.71,3.71,1.38,1.72,1.05,3.22,2.36,4.46,3.87,1.27,1.55,2.36,3.33,3.24,5.29.92,2.06,1.73,4.13,2.41,6.14.61,1.82,1.28,3.86,2.02,6.12.71,2.19,1.31,4.42,1.77,6.63.44,2.13.63,4.19.55,6.1-.07,1.71-.51,3.11-1.33,4.28l-2.23,3.15h42.09l-4.19-3.53c-3.09-2.6-5.54-5.62-7.28-8.98-1.82-3.51-3.61-7.71-5.31-12.47-.67-2.01-1.24-3.76-1.67-5.14-.43-1.38-.78-2.51-1.04-3.37l-.79-2.51c-1.63-5.02-4.22-8.89-7.75-11.57,4.67-1.95,8.39-4.77,11.1-8.43,3.47-4.69,5.14-10.06,4.96-15.97,0-5.58-1.37-10.48-4.05-14.57-2.71-4.13-7.31-7.35-13.67-9.58-1.95-.83-4.32-1.48-7.05-1.93-2.66-.44-5.56-.8-8.64-1.06-3.07-.26-6.34-.44-9.71-.53-3.4-.09-6.73-.13-9.9-.13h0ZM656.88,12.88c.16,0,.32-.01.48-.01,3.5,0,6.57.45,9.14,1.33,2.5.86,4.56,2.05,6.12,3.54,1.54,1.47,2.69,3.23,3.41,5.23.74,2.05,1.07,4.33.99,6.76v.06s0,.06,0,.06c.08,2.45-.26,4.8-1,6.99-.72,2.12-1.88,3.95-3.46,5.46-1.62,1.54-3.72,2.8-6.24,3.75-2.55.95-5.65,1.44-9.21,1.44h-.22V12.88h0Z"/>
      <path class="cls-1" d="M784.32,3.83v24.14c-2.18-2.87-4.79-5.26-7.83-7.18-3.05-1.91-6.33-3.43-9.85-4.57-3.52-1.13-7.13-1.93-10.83-2.41-3.7-.48-7.24-.72-10.63-.72v32.23c5.92-.35,11.31-1.44,16.18-3.26,4.87-1.83,8.87-4.74,12-8.74v30.53c-3.13-4.09-7.13-7.05-12-8.87-4.87-1.83-10.26-2.91-16.18-3.26,0,6.52.11,12.96.33,19.31.22,6.35.72,12.48,1.5,18.4h2.22c7.65-.43,14.59-2.09,20.81-4.96,6.22-2.87,11.37-7.39,15.46-13.57v28.58h-64.2c.87-3.13,1.57-6.65,2.09-10.57.52-3.91.91-8,1.17-12.27.26-4.26.41-8.55.46-12.85.04-4.31.07-8.37.07-12.2s-.02-7.89-.07-12.2c-.04-4.31-.2-8.57-.46-12.79-.26-4.22-.65-8.29-1.17-12.2-.52-3.91-1.22-7.44-2.09-10.57h63.02M786.32,1.83h-67.65l.7,2.53c.84,3.04,1.53,6.5,2.03,10.3.51,3.85.9,7.91,1.16,12.06.26,4.15.41,8.42.45,12.69.04,4.34.07,8.44.07,12.18s-.02,7.84-.07,12.18c-.04,4.27-.2,8.56-.45,12.75-.26,4.19-.65,8.27-1.16,12.12-.51,3.8-1.19,7.26-2.03,10.3l-.7,2.53h68.83v-37.22l-3.67,5.54c-3.86,5.83-8.78,10.16-14.63,12.86-5.95,2.75-12.69,4.35-20.03,4.77h-.4c-.65-5.3-1.07-10.83-1.26-16.47-.19-5.59-.3-11.33-.32-17.09,4.87.45,9.4,1.45,13.47,2.98,4.49,1.68,8.23,4.45,11.12,8.22l3.59,4.68V27.51l-3.58,4.57c-2.89,3.69-6.63,6.41-11.13,8.1-4.08,1.53-8.61,2.53-13.48,2.98V15.12c2.68.08,5.49.3,8.38.67,3.56.46,7.08,1.25,10.47,2.33,3.34,1.07,6.51,2.54,9.4,4.36,2.82,1.78,5.28,4.03,7.3,6.69l3.59,4.74V1.83h0Z"/>
      <path class="cls-1" d="M826.2,3.83c-1.74,6.52-2.76,13.31-3.07,20.35-.31,7.05-.54,14.09-.72,21.14,0,7.66.07,15.07.2,22.25.13,7.18.67,14.46,1.63,21.86,7.83-.17,15.16-1.7,21.99-4.57,6.83-2.87,12.33-7.52,16.51-13.96v28.58h-64.2c.87-3.13,1.57-6.65,2.09-10.57.52-3.91.91-8,1.17-12.27.26-4.26.41-8.55.46-12.85.04-4.31.07-8.37.07-12.2s-.02-7.89-.07-12.2c-.04-4.31-.2-8.57-.46-12.79-.26-4.22-.65-8.29-1.17-12.2-.52-3.91-1.22-7.44-2.09-10.57h27.66M828.81,1.83h-32.9l.7,2.53c.84,3.04,1.53,6.5,2.03,10.3.51,3.85.9,7.91,1.16,12.06.26,4.15.41,8.42.45,12.69.04,4.34.07,8.44.07,12.18s-.02,7.84-.07,12.18c-.04,4.27-.2,8.56-.45,12.75-.26,4.19-.65,8.27-1.16,12.12-.51,3.8-1.19,7.26-2.03,10.3l-.7,2.53h68.83v-37.34l-3.68,5.67c-3.93,6.06-9.18,10.51-15.6,13.21-6.04,2.54-12.58,4-19.45,4.35-.8-6.67-1.27-13.34-1.39-19.83-.13-7.13-.2-14.6-.2-22.21.17-7,.41-14.1.72-21.05.3-6.87,1.31-13.58,3-19.93l.67-2.52h0Z"/>
      <path class="cls-1" d="M938.81,3.83v24.14c-2.18-2.87-4.79-5.26-7.83-7.18-3.05-1.91-6.33-3.43-9.85-4.57-3.52-1.13-7.13-1.93-10.83-2.41-3.7-.48-7.24-.72-10.63-.72v32.23c5.92-.35,11.31-1.44,16.18-3.26,4.87-1.83,8.87-4.74,12-8.74v30.53c-3.13-4.09-7.13-7.05-12-8.87-4.87-1.83-10.26-2.91-16.18-3.26,0,6.52.11,12.96.33,19.31.22,6.35.72,12.48,1.5,18.4h2.22c7.65-.43,14.59-2.09,20.81-4.96,6.22-2.87,11.37-7.39,15.46-13.57v28.58h-64.2c.87-3.13,1.57-6.65,2.09-10.57.52-3.91.91-8,1.17-12.27.26-4.26.41-8.55.46-12.85.04-4.31.07-8.37.07-12.2s-.02-7.89-.07-12.2c-.04-4.31-.2-8.57-.46-12.79-.26-4.22-.65-8.29-1.17-12.2-.52-3.91-1.22-7.44-2.09-10.57h63.02M940.81,1.83h-67.65l.7,2.53c.84,3.04,1.53,6.5,2.03,10.3.51,3.85.9,7.91,1.16,12.06.26,4.15.41,8.42.45,12.69.04,4.34.07,8.44.07,12.18s-.02,7.84-.07,12.18c-.04,4.27-.2,8.56-.45,12.75-.26,4.19-.65,8.27-1.16,12.12-.51,3.8-1.19,7.26-2.03,10.3l-.7,2.53h68.83v-37.22l-3.67,5.54c-3.86,5.83-8.78,10.16-14.63,12.86-5.95,2.75-12.69,4.35-20.03,4.77h-.4c-.65-5.3-1.07-10.83-1.26-16.47-.19-5.59-.3-11.33-.32-17.09,4.87.45,9.4,1.45,13.47,2.98,4.49,1.68,8.23,4.45,11.12,8.22l3.59,4.68V27.51l-3.58,4.57c-2.89,3.69-6.63,6.41-11.13,8.1-4.08,1.53-8.61,2.53-13.48,2.98V15.12c2.68.08,5.49.3,8.38.67,3.56.46,7.08,1.25,10.47,2.33,3.34,1.07,6.51,2.54,9.4,4.36,2.82,1.78,5.28,4.03,7.3,6.69l3.59,4.74V1.83h0Z"/>
      <path class="cls-1" d="M1015.27,3.83c.96,2.87,2.09,6.18,3.39,9.92,1.3,3.74,2.65,7.7,4.04,11.87,1.39,4.18,2.85,8.46,4.37,12.85,1.52,4.39,2.98,8.68,4.37,12.85,1.39,4.18,2.74,8.13,4.04,11.87,1.3,3.74,2.43,7.05,3.39,9.92,1.04,2.87,2.02,5.57,2.94,8.09.91,2.52,1.89,4.87,2.94,7.05,1.04,2.18,2.28,4.2,3.72,6.07,1.43,1.87,3.2,3.59,5.28,5.15h-35.75c1.13-1.65,1.72-3.67,1.76-6.07.04-2.39-.24-4.91-.85-7.57-.61-2.65-1.37-5.28-2.28-7.89-.91-2.61-1.72-4.96-2.41-7.05h-33.79c-.78,2.18-1.61,4.5-2.48,6.98-.87,2.48-1.52,4.96-1.96,7.44-.44,2.48-.52,4.94-.26,7.37.26,2.44,1.13,4.7,2.61,6.79h-25.31c1.57-.87,3.07-1.96,4.5-3.26,1.44-1.31,2.78-2.76,4.04-4.37,1.26-1.61,2.39-3.28,3.39-5.02,1-1.74,1.8-3.43,2.41-5.09,1.57-4.7,3.39-10.11,5.48-16.25,2.09-6.13,4.22-12.4,6.39-18.79,2.17-6.39,4.31-12.66,6.39-18.79,2.09-6.13,3.96-11.59,5.61-16.38-.96-1.48-2.04-2.89-3.26-4.24-1.22-1.35-2.52-2.5-3.91-3.46h31.19M983.56,61.76h27.53c-.96-2.7-2-5.81-3.13-9.33-1.13-3.52-2.33-7.11-3.59-10.76-1.26-3.65-2.5-7.2-3.72-10.63-1.22-3.44-2.39-6.41-3.52-8.94l-13.57,39.67M1016.71,1.83h-39.06l5.29,3.65c1.26.87,2.46,1.93,3.57,3.15.92,1.02,1.77,2.09,2.53,3.19-1.56,4.51-3.33,9.7-5.29,15.44l-1.87,5.5-4.52,13.29c-2.17,6.39-4.31,12.66-6.39,18.79-2.04,6-3.89,11.46-5.47,16.23-.56,1.53-1.33,3.13-2.26,4.76-.95,1.65-2.03,3.26-3.23,4.79-1.18,1.51-2.47,2.9-3.82,4.12-1.32,1.2-2.71,2.2-4.13,2.99l-6.76,3.75h36.91l-2.24-3.16c-1.29-1.82-2.03-3.73-2.25-5.84-.24-2.24-.16-4.53.24-6.81.41-2.36,1.04-4.76,1.87-7.12.69-1.98,1.36-3.86,2-5.64h30.95c.59,1.74,1.24,3.65,1.97,5.71.88,2.52,1.63,5.11,2.22,7.68.57,2.48.84,4.87.8,7.09-.04,2.01-.5,3.64-1.41,4.97l-2.14,3.13h45.54l-4.8-3.6c-1.94-1.45-3.58-3.06-4.9-4.77-1.35-1.75-2.52-3.67-3.5-5.72-1.01-2.1-1.97-4.41-2.86-6.86-.91-2.52-1.89-5.21-2.93-8.07-.97-2.9-2.11-6.24-3.39-9.92-1.32-3.77-2.67-7.76-4.04-11.85-1.36-4.09-2.84-8.42-4.38-12.87-1.51-4.34-2.97-8.66-4.36-12.83-1.4-4.21-2.77-8.21-4.05-11.9-1.31-3.75-2.45-7.08-3.38-9.89l-.46-1.37h0ZM986.36,59.76l10.95-32.01c.48,1.24.97,2.56,1.46,3.95,1.25,3.53,2.5,7.1,3.71,10.62,1.27,3.68,2.47,7.29,3.57,10.72.78,2.43,1.52,4.67,2.22,6.72h-21.92Z"/>
      <path class="cls-1" d="M1100.08,2.13c3.13,0,6.22.39,9.26,1.17,3.04.78,5.87,2.04,8.48,3.78.09.09.3.22.65.39.17,0,.85-.15,2.02-.46,1.17-.3,2.46-.61,3.85-.91,1.39-.3,2.65-.61,3.78-.91,1.13-.3,1.74-.46,1.83-.46v25.18c-1.48-1.74-3.31-3.7-5.48-5.87-2.17-2.17-4.52-4.22-7.05-6.13-2.52-1.91-5.13-3.5-7.83-4.76-2.7-1.26-5.31-1.89-7.83-1.89-3.13,0-5.98.72-8.55,2.15-2.57,1.44-4.33,3.33-5.29,5.68-.96,2.35-.76,4.96.59,7.83,1.35,2.87,4.37,5.74,9.07,8.61l26.62,16.57c3.48,2.09,6.15,4.76,8.02,8.02,1.87,3.26,2.96,6.72,3.26,10.37.3,3.65-.2,7.31-1.5,10.96s-3.39,6.94-6.26,9.85c-2.87,2.92-6.5,5.28-10.9,7.11-4.39,1.83-9.55,2.74-15.46,2.74-1.92,0-4.11-.18-6.59-.52-2.48-.35-4.89-.74-7.24-1.17s-4.5-.93-6.46-1.5c-1.96-.56-3.42-1.02-4.37-1.37l-8.35,1.96v-30.4c1.65,2.61,3.44,5.18,5.35,7.7,1.74,2.09,3.67,4.26,5.81,6.52,2.13,2.26,4.41,4.18,6.85,5.74,1.74,1.13,3.7,2,5.87,2.61,2.17.61,4.39.91,6.65.91s4.41-.3,6.46-.91c2.04-.61,3.8-1.52,5.28-2.74.87-.7,1.72-1.78,2.54-3.26.83-1.48,1.26-3.15,1.3-5.02.04-1.87-.48-3.83-1.57-5.87-1.09-2.04-3.11-3.98-6.07-5.81l-24.53-15.4c-1.92-1.22-3.81-2.63-5.68-4.24-1.87-1.61-3.52-3.39-4.96-5.35-1.43-1.96-2.61-4.07-3.52-6.33-.91-2.26-1.37-4.61-1.37-7.05-.09-4.17.83-7.96,2.74-11.35,1.91-3.39,4.44-6.28,7.57-8.68,3.13-2.39,6.7-4.24,10.7-5.54,4-1.3,8.09-1.96,12.26-1.96M1100.08.13c-4.37,0-8.7.69-12.88,2.06-4.19,1.37-7.99,3.34-11.29,5.86-3.34,2.55-6.06,5.68-8.1,9.29-2.08,3.69-3.09,7.86-3,12.38,0,2.64.51,5.27,1.52,7.75.97,2.4,2.23,4.68,3.76,6.76,1.52,2.08,3.3,3.99,5.27,5.68,1.93,1.66,3.92,3.15,5.91,4.41l24.54,15.4c2.65,1.64,4.45,3.33,5.37,5.05.92,1.73,1.37,3.37,1.33,4.89-.04,1.55-.38,2.89-1.05,4.1-.7,1.24-1.39,2.15-2.05,2.67-1.29,1.06-2.83,1.86-4.6,2.38-1.85.55-3.83.83-5.89.83s-4.13-.28-6.11-.84c-1.97-.55-3.76-1.34-5.32-2.36-2.3-1.48-4.48-3.31-6.48-5.44-2.07-2.2-3.99-4.35-5.7-6.4-1.87-2.46-3.62-4.99-5.23-7.52l-3.69-5.83v39.83l2.46-.58,7.78-1.82c.97.33,2.29.74,3.93,1.21,2,.58,4.23,1.1,6.65,1.55,2.37.44,4.83.84,7.33,1.19,2.58.36,4.89.54,6.87.54,6.15,0,11.61-.97,16.23-2.89,4.62-1.92,8.51-4.47,11.55-7.55,3.06-3.11,5.32-6.67,6.72-10.58,1.39-3.91,1.94-7.88,1.61-11.8-.33-3.93-1.51-7.7-3.52-11.2-2.03-3.55-4.97-6.49-8.73-8.74l-26.59-16.55c-4.35-2.66-7.14-5.27-8.31-7.76-1.11-2.36-1.29-4.4-.55-6.22.79-1.93,2.23-3.47,4.41-4.69,2.25-1.26,4.8-1.9,7.57-1.9,2.21,0,4.56.57,6.98,1.7,2.55,1.19,5.06,2.72,7.47,4.54,2.43,1.85,4.74,3.85,6.84,5.95,2.12,2.12,3.92,4.05,5.37,5.75l3.52,4.14V2.74h-2c-.28,0-.4,0-2.35.53-1.08.29-2.32.59-3.69.89-1.42.31-2.74.63-3.92.93-.52.14-.89.23-1.14.29-2.76-1.83-5.8-3.18-9.01-4.01-3.19-.82-6.48-1.24-9.76-1.24h0Z"/>
      <path class="cls-1" d="M1211.78,3.83v24.14c-2.18-2.87-4.79-5.26-7.83-7.18-3.05-1.91-6.33-3.43-9.85-4.57-3.52-1.13-7.13-1.93-10.83-2.41-3.7-.48-7.24-.72-10.63-.72v32.23c5.92-.35,11.31-1.44,16.18-3.26,4.87-1.83,8.87-4.74,12-8.74v30.53c-3.13-4.09-7.13-7.05-12-8.87-4.87-1.83-10.26-2.91-16.18-3.26,0,6.52.11,12.96.33,19.31.22,6.35.72,12.48,1.5,18.4h2.22c7.65-.43,14.59-2.09,20.81-4.96,6.22-2.87,11.37-7.39,15.46-13.57v28.58h-64.2c.87-3.13,1.57-6.65,2.09-10.57.52-3.91.91-8,1.17-12.27.26-4.26.41-8.55.46-12.85.04-4.31.07-8.37.07-12.2s-.02-7.89-.07-12.2c-.04-4.31-.2-8.57-.46-12.79-.26-4.22-.65-8.29-1.17-12.2-.52-3.91-1.22-7.44-2.09-10.57h63.02M1213.78,1.83h-67.65l.7,2.53c.84,3.04,1.53,6.5,2.03,10.3.51,3.85.9,7.91,1.16,12.06.26,4.15.41,8.42.45,12.69.04,4.34.07,8.44.07,12.18s-.02,7.84-.07,12.18c-.04,4.27-.2,8.56-.45,12.75-.26,4.19-.65,8.27-1.16,12.12-.51,3.8-1.19,7.26-2.03,10.3l-.7,2.53h68.83v-37.22l-3.67,5.54c-3.86,5.83-8.78,10.16-14.63,12.86-5.95,2.75-12.69,4.35-20.03,4.77h-.4c-.65-5.3-1.07-10.83-1.26-16.47-.19-5.59-.3-11.33-.32-17.09,4.87.45,9.4,1.45,13.47,2.98,4.49,1.68,8.23,4.45,11.12,8.22l3.59,4.68V27.51l-3.58,4.57c-2.89,3.69-6.63,6.41-11.13,8.1-4.08,1.53-8.61,2.53-13.48,2.98V15.12c2.68.08,5.49.3,8.38.67,3.56.46,7.08,1.25,10.47,2.33,3.34,1.07,6.51,2.54,9.4,4.36,2.82,1.78,5.28,4.03,7.3,6.69l3.59,4.74V1.83h0Z"/>
    </g>
  </g>
</svg>