<?xml version="1.0" encoding="UTF-8"?>
<svg id="Livello_2" data-name="Livello 2" xmlns="http://www.w3.org/2000/svg" viewBox="0 0 376.87 60.3">
  <defs>
    <style>
      .cls-1 {
        fill: #fff;
        stroke-width: 0px;
      }
    </style>
  </defs>
  <g id="Livello_1-2" data-name="Livello 1">
    <g>
      <path class="cls-1" d="M25.07,1.5c3.42,0,6.63,1.01,9.65,3.02.05,0,.41-.09,1.09-.26.68-.18,1.43-.36,2.26-.57.83-.2,1.95-.45,3.35-.75v13.72c-.15-.15-.72-.75-1.7-1.81-.98-1.06-2.19-2.2-3.62-3.43-1.43-1.23-3.02-2.34-4.75-3.32s-3.41-1.47-5.01-1.47c-.75,0-1.51.15-2.26.45-1.51.5-2.82,1.55-3.92,3.13-1.11,1.58-2.02,3.52-2.75,5.81-.73,2.29-1.26,4.8-1.58,7.54-.33,2.74-.45,5.49-.38,8.26.08,2.76.35,5.47.83,8.11.48,2.64,1.17,4.96,2.07,6.97.91,2.01,2.01,3.63,3.32,4.86,1.31,1.23,2.84,1.85,4.6,1.85.25,0,.49-.01.72-.04.23-.03.46-.06.72-.11,1.41-.35,2.79-1.04,4.15-2.07,1.36-1.03,2.64-2.21,3.84-3.54,1.21-1.33,2.3-2.71,3.28-4.15.98-1.43,1.8-2.7,2.45-3.81v15.99c-2.26,1.05-4.74,1.81-7.43,2.26-2.69.45-5.29.68-7.8.68-3.87,0-7.29-.73-10.25-2.19-2.97-1.46-5.48-3.41-7.54-5.84-2.06-2.44-3.66-5.23-4.79-8.37-1.13-3.14-1.81-6.4-2.04-9.76-.23-3.37,0-6.72.68-10.07.68-3.34,1.83-6.42,3.47-9.24,1.63-2.81,3.74-5.23,6.33-7.24,2.59-2.01,5.64-3.39,9.16-4.15,1.31-.3,2.59-.45,3.85-.45M25.07,0c-1.36,0-2.77.17-4.18.49-3.7.79-6.99,2.28-9.74,4.42-2.73,2.12-4.99,4.7-6.71,7.67-1.71,2.94-2.93,6.2-3.64,9.69C.09,25.73-.15,29.25.09,32.74c.23,3.49.95,6.92,2.12,10.17,1.19,3.3,2.89,6.27,5.05,8.83,2.18,2.59,4.88,4.68,8.02,6.22,3.16,1.55,6.83,2.34,10.92,2.34,2.58,0,5.29-.24,8.05-.7,2.81-.47,5.44-1.27,7.81-2.38l.87-.4v-22.43l-2.79,4.73c-.63,1.07-1.44,2.33-2.4,3.72-.94,1.38-2,2.72-3.15,3.99-1.14,1.26-2.37,2.39-3.64,3.36-1.18.89-2.38,1.5-3.57,1.81-.19.04-.38.07-.55.09-.16.02-.35.03-.55.03-1.38,0-2.54-.47-3.57-1.44-1.16-1.09-2.16-2.56-2.98-4.39-.85-1.89-1.51-4.12-1.97-6.63-.46-2.55-.73-5.2-.81-7.88-.07-2.69.05-5.39.37-8.04.31-2.63.83-5.08,1.52-7.26.68-2.13,1.54-3.95,2.55-5.4.92-1.32,1.96-2.16,3.17-2.57h.04s.04-.03.04-.03c.58-.23,1.14-.35,1.71-.35,1.34,0,2.78.43,4.28,1.28,1.64.93,3.16,1.99,4.51,3.15,1.38,1.19,2.56,2.31,3.5,3.31,1.33,1.43,1.62,1.74,1.73,1.85l2.56,2.56V1.08l-1.81.39c-1.39.3-2.53.55-3.39.76-.84.2-1.6.39-2.29.57-.17.05-.32.08-.44.11-3.1-1.93-6.44-2.91-9.93-2.91h0Z"/>
      <path class="cls-1" d="M73.55,1.5c3.42,0,6.61.7,9.58,2.11,2.97,1.41,5.57,3.38,7.8,5.92,2.24,2.54,4,5.57,5.28,9.09,1.28,3.52,1.92,7.39,1.92,11.61-.05,4.73-.78,8.89-2.19,12.48-1.41,3.59-3.27,6.57-5.58,8.94-2.31,2.36-4.93,4.15-7.84,5.35-2.92,1.21-5.91,1.81-8.97,1.81s-5.98-.6-8.9-1.81c-2.92-1.21-5.53-2.99-7.84-5.35-2.31-2.36-4.18-5.34-5.62-8.94-1.43-3.59-2.17-7.75-2.22-12.48,0-4.22.64-8.09,1.92-11.61,1.28-3.52,3.04-6.55,5.28-9.09,2.24-2.54,4.85-4.51,7.84-5.92,2.99-1.41,6.17-2.11,9.54-2.11M73.55,53.68c1.51,0,2.91-.58,4.22-1.73,1.31-1.16,2.44-2.78,3.39-4.86.95-2.08,1.7-4.56,2.22-7.43.53-2.87.79-6.01.79-9.42,0-3.92-.3-7.34-.9-10.25-.6-2.91-1.41-5.34-2.41-7.28-1.01-1.93-2.14-3.39-3.39-4.37-1.26-.98-2.56-1.47-3.92-1.47s-2.6.49-3.88,1.47c-1.28.98-2.43,2.44-3.43,4.37-1.01,1.94-1.81,4.36-2.41,7.28-.6,2.92-.91,6.33-.91,10.25,0,3.42.26,6.56.79,9.42.53,2.87,1.27,5.34,2.22,7.43.95,2.09,2.08,3.71,3.39,4.86,1.31,1.16,2.71,1.73,4.22,1.73M73.55,0c-3.57,0-7,.76-10.18,2.25-3.16,1.49-5.97,3.6-8.33,6.28-2.35,2.67-4.22,5.88-5.56,9.56-1.34,3.67-2.01,7.75-2.01,12.13.05,4.9.84,9.28,2.33,13.03,1.5,3.76,3.5,6.94,5.94,9.43,2.44,2.5,5.25,4.41,8.34,5.69,3.09,1.28,6.27,1.92,9.47,1.92s6.46-.65,9.55-1.92c3.09-1.28,5.9-3.2,8.34-5.69,2.44-2.5,4.43-5.67,5.9-9.44,1.47-3.75,2.24-8.13,2.29-13.01,0-4.4-.68-8.47-2.01-12.14-1.34-3.68-3.21-6.89-5.56-9.56-2.36-2.68-5.15-4.79-8.29-6.28-3.16-1.5-6.59-2.26-10.22-2.26h0ZM73.55,52.18c-1.14,0-2.2-.44-3.23-1.36-1.14-1.01-2.16-2.48-3.02-4.36-.9-1.96-1.61-4.34-2.11-7.07-.51-2.76-.77-5.84-.77-9.15,0-3.8.29-7.15.87-9.95.57-2.77,1.34-5.09,2.27-6.89.9-1.73,1.91-3.03,3.01-3.87,1.02-.78,1.99-1.16,2.97-1.16s2,.38,3,1.15c1.08.84,2.08,2.15,2.98,3.88.94,1.8,1.7,4.12,2.28,6.89.58,2.8.87,6.15.87,9.95,0,3.31-.26,6.39-.77,9.15-.5,2.73-1.21,5.11-2.11,7.07-.86,1.88-1.88,3.35-3.02,4.36-1.03.91-2.09,1.36-3.23,1.36h0Z"/>
      <path class="cls-1" d="M158.3,2.56c-1.01,1.01-1.86,2.25-2.56,3.73-.7,1.48-1.28,3.18-1.73,5.09-.55,2.06-.94,4.39-1.17,6.97-.23,2.59-.38,5.23-.45,7.92-.08,2.69-.1,5.32-.08,7.88.03,2.56.04,4.85.04,6.86.1,3.22.31,6.11.64,8.67.33,2.56,1.29,5.03,2.9,7.39.3.3.5.55.6.75h-20.06c-.6-4.83-1.8-9.45-3.58-13.87-1.78-4.42-3.81-8.77-6.07-13.04-1.46-2.71-2.98-5.33-4.56-7.84-1.58-2.51-3.33-4.88-5.24-7.09-.05.25-.08,1.01-.08,2.26s-.01,2.75-.04,4.49c-.03,1.73-.04,3.58-.04,5.54v12.74c.1,3.72.42,6.99.94,9.8.53,2.82,1.59,5.15,3.2,7.01h-15.31c1.51-1.56,2.69-3.63,3.54-6.22.85-2.59,1.47-5.39,1.85-8.41s.58-6.09.6-9.24c.02-3.14-.01-6.07-.11-8.78-.05-1.71-.15-3.61-.3-5.69-.15-2.08-.43-4.16-.83-6.22-.4-2.06-.98-4.03-1.73-5.92-.75-1.89-1.76-3.48-3.02-4.79h20.28c3.87,7.14,7.34,13.52,10.41,19.15,1.31,2.41,2.59,4.76,3.84,7.05,1.26,2.29,2.38,4.34,3.36,6.15s2.07,3.82,3.28,6.03c.05-.7.1-1.48.15-2.34.05-.85.08-1.76.08-2.71.05-1.36.08-2.79.08-4.3s-.01-2.99-.04-4.45c-.03-1.46-.04-2.85-.04-4.19v-3.66c-.05-1.46-.11-2.94-.19-4.45-.08-1.51-.24-2.98-.49-4.41-.25-1.43-.64-2.83-1.17-4.18-.53-1.36-1.27-2.59-2.22-3.69h15.31M161.92,1.06h-22.2l2.14,2.48c.84.97,1.5,2.07,1.96,3.26.49,1.26.85,2.57,1.09,3.9.24,1.37.4,2.79.47,4.23.07,1.42.13,2.86.19,4.4v3.63c0,1.39.01,2.81.04,4.21.03,1.5.04,2.99.04,4.42,0,1.33-.02,2.64-.06,3.89-.24-.44-.47-.87-.7-1.29-.98-1.81-2.1-3.86-3.36-6.15-1.26-2.29-2.54-4.63-3.84-7.04-3.07-5.63-6.54-12.02-10.41-19.15l-.43-.79h-24.7l2.44,2.54c1.12,1.16,2.03,2.61,2.71,4.31.71,1.78,1.27,3.68,1.66,5.65.39,2,.66,4.03.81,6.04.15,2.06.25,3.95.3,5.63.1,2.7.14,5.63.11,8.73-.03,3.08-.22,6.13-.59,9.06-.36,2.9-.96,5.64-1.78,8.12-.78,2.36-1.86,4.26-3.2,5.65l-2.46,2.54h22.13l-2.15-2.48c-1.42-1.65-2.39-3.77-2.86-6.31-.51-2.72-.82-5.94-.92-9.57v-2.45s0-4.64,0-4.64v-5.62c0-1.94.01-3.8.04-5.52.01-.94.02-1.81.03-2.61.9,1.21,1.75,2.45,2.55,3.72,1.56,2.48,3.08,5.09,4.51,7.75,2.22,4.2,4.24,8.54,6,12.9,1.73,4.28,2.9,8.83,3.48,13.5l.16,1.31h23.82l-1.11-2.18c-.16-.32-.41-.65-.78-1.03-1.42-2.12-2.29-4.35-2.58-6.62-.32-2.5-.53-5.37-.63-8.53,0-1.96-.01-4.27-.04-6.83-.03-2.53,0-5.16.08-7.82.07-2.65.22-5.29.45-7.83.22-2.49.6-4.75,1.12-6.72.44-1.84.99-3.46,1.64-4.84.63-1.32,1.39-2.44,2.27-3.31l2.56-2.56h0Z"/>
      <path class="cls-1" d="M210.25,2.56v13.95c-1.81-2.31-4.03-4.11-6.67-5.39-2.64-1.28-5.54-2.17-8.71-2.68-.45,3.32-.74,6.87-.87,10.67-.13,3.8-.19,7.5-.19,11.12.05,4.67.15,9.35.3,14.02s.78,9.2,1.88,13.57h-15.98c.5-1.81.9-3.85,1.21-6.11s.53-4.62.68-7.09c.15-2.46.24-4.94.26-7.43.03-2.49.04-4.84.04-7.05,0-3.72-.05-7.41-.15-11.08-.1-3.67-.38-7.21-.83-10.63-3.17.5-6.07,1.4-8.71,2.68-2.64,1.28-4.86,3.08-6.67,5.39V2.56h44.41M211.75,1.06h-47.41v19.8l2.68-3.42c1.66-2.12,3.73-3.79,6.15-4.97,2.07-1,4.33-1.76,6.76-2.27.33,2.88.54,5.87.62,8.91.1,3.65.15,7.37.15,11.04,0,2.2-.01,4.56-.04,7.04-.03,2.45-.11,4.93-.26,7.35-.15,2.41-.37,4.76-.67,6.98-.29,2.18-.68,4.17-1.16,5.9l-.53,1.9h19.88l-.47-1.87c-1.07-4.25-1.69-8.71-1.84-13.25-.15-4.69-.25-9.4-.3-13.99,0-3.58.06-7.3.19-11.06.1-3.13.32-6.14.66-8.96,2.43.5,4.7,1.26,6.77,2.27,2.42,1.17,4.49,2.85,6.15,4.97l2.68,3.42V1.06h0Z"/>
      <path class="cls-1" d="M253.68,2.56c.55,1.66,1.21,3.57,1.96,5.73.75,2.16,1.53,4.45,2.34,6.86.8,2.41,1.65,4.89,2.53,7.43.88,2.54,1.72,5.01,2.53,7.43.8,2.41,1.58,4.7,2.34,6.86.75,2.16,1.41,4.07,1.96,5.73.6,1.66,1.17,3.22,1.7,4.67.53,1.46,1.09,2.82,1.7,4.07.6,1.26,1.32,2.43,2.15,3.51.83,1.08,1.85,2.07,3.05,2.98h-20.66c.65-.95.99-2.12,1.02-3.51.02-1.38-.14-2.84-.49-4.37-.35-1.53-.79-3.05-1.32-4.56s-.99-2.87-1.39-4.07h-19.53c-.45,1.26-.93,2.6-1.43,4.03-.5,1.43-.88,2.87-1.13,4.3-.25,1.43-.3,2.85-.15,4.26.15,1.41.65,2.71,1.51,3.92h-14.63c.91-.5,1.77-1.13,2.6-1.88s1.61-1.6,2.34-2.53c.73-.93,1.38-1.9,1.96-2.9.58-1,1.04-1.98,1.39-2.94.91-2.71,1.96-5.84,3.17-9.39,1.21-3.54,2.44-7.16,3.7-10.86,1.26-3.69,2.49-7.31,3.69-10.86,1.21-3.54,2.29-6.7,3.24-9.46-.55-.85-1.18-1.67-1.88-2.45-.71-.78-1.46-1.44-2.26-2h18.02M235.36,36.03h15.91c-.55-1.56-1.16-3.36-1.81-5.39-.65-2.04-1.35-4.11-2.07-6.22-.73-2.11-1.45-4.16-2.15-6.15-.71-1.98-1.38-3.71-2.04-5.16l-7.84,22.92M254.76,1.06h-23.92l3.97,2.74c.7.49,1.38,1.08,2,1.77.48.53.93,1.09,1.33,1.66-.9,2.59-1.89,5.51-3,8.76-1.21,3.54-2.44,7.16-3.69,10.86l-1.68,4.94-2.01,5.92c-1.21,3.55-2.26,6.68-3.17,9.4-.3.82-.74,1.74-1.27,2.67s-1.15,1.85-1.84,2.73c-.67.86-1.4,1.65-2.17,2.34-.74.67-1.52,1.24-2.32,1.68l-5.07,2.81h23.33l-1.68-2.37c-.71-1-1.12-2.05-1.24-3.21-.14-1.26-.09-2.55.14-3.84.24-1.35.6-2.71,1.07-4.06.37-1.06.73-2.07,1.07-3.03h17.39c.32.94.67,1.96,1.06,3.07.51,1.45.93,2.93,1.27,4.4.32,1.41.47,2.76.45,4.01-.02,1.09-.27,1.97-.76,2.69l-1.6,2.35h28l-3.6-2.7c-1.1-.82-2.03-1.73-2.76-2.69-.76-1-1.43-2.09-1.99-3.24-.58-1.2-1.13-2.53-1.64-3.93-.53-1.46-1.09-3.02-1.7-4.68-.56-1.68-1.22-3.61-1.95-5.71-.76-2.19-1.55-4.49-2.33-6.84-.8-2.39-1.65-4.89-2.53-7.44-.88-2.55-1.73-5.04-2.52-7.41-.82-2.45-1.61-4.77-2.34-6.88-.76-2.16-1.41-4.09-1.95-5.71l-.34-1.03h0ZM237.46,34.53l5.86-17.14c.17.45.33.91.5,1.38.7,1.98,1.42,4.03,2.14,6.13.72,2.09,1.41,4.17,2.06,6.19.39,1.22.77,2.37,1.13,3.43h-11.7Z"/>
      <path class="cls-1" d="M307.06,1.5c3.42,0,6.63,1.01,9.65,3.02.05,0,.41-.09,1.09-.26.68-.18,1.43-.36,2.26-.57.83-.2,1.95-.45,3.35-.75v13.72c-.15-.15-.72-.75-1.7-1.81-.98-1.06-2.19-2.2-3.62-3.43-1.43-1.23-3.02-2.34-4.75-3.32s-3.41-1.47-5.01-1.47c-.75,0-1.51.15-2.26.45-1.51.5-2.82,1.55-3.92,3.13-1.11,1.58-2.02,3.52-2.75,5.81-.73,2.29-1.26,4.8-1.58,7.54-.33,2.74-.45,5.49-.38,8.26.08,2.76.35,5.47.83,8.11.48,2.64,1.17,4.96,2.07,6.97.91,2.01,2.01,3.63,3.32,4.86,1.31,1.23,2.84,1.85,4.6,1.85.25,0,.49-.01.72-.04.23-.03.46-.06.72-.11,1.41-.35,2.79-1.04,4.15-2.07,1.36-1.03,2.64-2.21,3.84-3.54,1.21-1.33,2.3-2.71,3.28-4.15.98-1.43,1.8-2.7,2.45-3.81v15.99c-2.26,1.05-4.74,1.81-7.43,2.26-2.69.45-5.29.68-7.8.68-3.87,0-7.29-.73-10.25-2.19-2.97-1.46-5.48-3.41-7.54-5.84-2.06-2.44-3.66-5.23-4.79-8.37-1.13-3.14-1.81-6.4-2.04-9.76-.23-3.37,0-6.72.68-10.07.68-3.34,1.83-6.42,3.47-9.24,1.63-2.81,3.74-5.23,6.33-7.24,2.59-2.01,5.64-3.39,9.16-4.15,1.31-.3,2.59-.45,3.85-.45M307.06,0c-1.36,0-2.77.17-4.18.49-3.7.79-6.99,2.28-9.74,4.42-2.73,2.12-4.99,4.7-6.71,7.67-1.71,2.94-2.93,6.2-3.64,9.69-.7,3.46-.94,6.98-.71,10.46.23,3.49.95,6.92,2.12,10.17,1.19,3.3,2.89,6.27,5.05,8.83,2.18,2.59,4.88,4.68,8.02,6.22,3.16,1.55,6.83,2.34,10.92,2.34,2.58,0,5.29-.24,8.05-.7,2.81-.47,5.44-1.27,7.81-2.38l.87-.4v-22.43l-2.79,4.73c-.63,1.07-1.44,2.33-2.4,3.72-.94,1.38-2,2.72-3.15,3.99-1.14,1.26-2.37,2.39-3.64,3.36-1.18.89-2.38,1.5-3.57,1.81-.19.04-.38.07-.55.09-.16.02-.35.03-.55.03-1.38,0-2.54-.47-3.57-1.44-1.16-1.09-2.16-2.56-2.98-4.39-.85-1.89-1.51-4.12-1.96-6.63-.46-2.55-.73-5.2-.81-7.88-.07-2.69.05-5.39.37-8.04.31-2.63.83-5.08,1.52-7.26.68-2.13,1.54-3.95,2.55-5.4.92-1.32,1.96-2.16,3.17-2.57h.04s.04-.03.04-.03c.58-.23,1.14-.35,1.71-.35,1.34,0,2.78.43,4.28,1.28,1.64.93,3.16,1.99,4.51,3.15,1.38,1.19,2.56,2.31,3.5,3.31,1.33,1.43,1.62,1.74,1.73,1.85l2.56,2.56V1.08l-1.81.39c-1.39.3-2.53.55-3.39.76-.84.2-1.6.39-2.29.57-.17.05-.32.08-.44.11-3.1-1.93-6.44-2.91-9.93-2.91h0Z"/>
      <path class="cls-1" d="M375.37,2.56v13.95c-1.81-2.31-4.03-4.11-6.67-5.39-2.64-1.28-5.54-2.17-8.71-2.68-.45,3.32-.74,6.87-.87,10.67-.13,3.8-.19,7.5-.19,11.12.05,4.67.15,9.35.3,14.02s.78,9.2,1.88,13.57h-15.98c.5-1.81.9-3.85,1.21-6.11s.53-4.62.68-7.09c.15-2.46.24-4.94.26-7.43.03-2.49.04-4.84.04-7.05,0-3.72-.05-7.41-.15-11.08-.1-3.67-.38-7.21-.83-10.63-3.17.5-6.07,1.4-8.71,2.68-2.64,1.28-4.86,3.08-6.67,5.39V2.56h44.41M376.87,1.06h-47.41v19.8l2.68-3.42c1.66-2.12,3.73-3.79,6.15-4.97,2.07-1,4.33-1.76,6.76-2.27.33,2.88.54,5.87.62,8.91.1,3.65.15,7.37.15,11.04,0,2.2-.01,4.56-.04,7.04-.03,2.45-.11,4.93-.26,7.35-.15,2.41-.37,4.76-.67,6.98-.29,2.18-.68,4.17-1.16,5.9l-.53,1.9h19.88l-.47-1.87c-1.07-4.25-1.69-8.71-1.84-13.25-.15-4.69-.25-9.4-.3-13.99,0-3.58.06-7.3.19-11.06.1-3.13.32-6.14.66-8.96,2.43.5,4.7,1.26,6.77,2.27,2.42,1.17,4.49,2.85,6.15,4.97l2.68,3.42V1.06h0Z"/>
    </g>
  </g>
</svg>