<?xml version="1.0" encoding="UTF-8"?>
<svg id="Livello_2" data-name="Livello 2" xmlns="http://www.w3.org/2000/svg" viewBox="0 0 369.88 63.39">
  <defs>
    <style>
      .cls-1 {
        fill: none;
        stroke: #fff;
        stroke-miterlimit: 10;
        stroke-width: 1.5px;
      }
    </style>
  </defs>
  <g id="Livello_1-2" data-name="Livello 1">
    <g>
      <path class="cls-1" d="M25.15,6.78c-1.63.54-3.04,1.67-4.23,3.38-1.2,1.71-2.19,3.8-2.97,6.27-.79,2.47-1.36,5.18-1.71,8.14-.35,2.96-.49,5.93-.41,8.92.08,2.99.38,5.9.9,8.75.52,2.85,1.26,5.36,2.24,7.53.98,2.17,2.17,3.92,3.58,5.25,1.41,1.33,3.07,1.99,4.97,1.99.27,0,.53-.01.77-.04.25-.03.5-.07.77-.12,1.52-.38,3.01-1.13,4.48-2.24,1.47-1.11,2.85-2.39,4.15-3.83,1.3-1.44,2.48-2.93,3.54-4.48,1.06-1.55,1.94-2.92,2.65-4.11v17.26c-2.44,1.14-5.12,1.96-8.02,2.44-2.9.49-5.71.73-8.43.73-4.18,0-7.87-.79-11.08-2.36-3.2-1.57-5.92-3.68-8.14-6.31-2.23-2.63-3.95-5.65-5.17-9.04s-1.96-6.91-2.2-10.55,0-7.26.73-10.87c.73-3.61,1.98-6.93,3.75-9.98,1.76-3.04,4.04-5.65,6.84-7.82,2.8-2.17,6.09-3.66,9.89-4.48,1.41-.33,2.8-.49,4.15-.49,3.69,0,7.17,1.09,10.42,3.26.05,0,.45-.09,1.18-.28.73-.19,1.55-.39,2.44-.61.9-.22,2.1-.49,3.62-.81v14.82c-.16-.16-.77-.82-1.83-1.96-1.06-1.14-2.36-2.37-3.91-3.71-1.55-1.33-3.26-2.52-5.13-3.58-1.87-1.06-3.68-1.59-5.42-1.59-.82,0-1.63.16-2.44.49Z"/>
      <path class="cls-1" d="M102.11,1.89c-2.01,2.99-3.07,7.03-3.18,12.13v30.7c.11,2.99-.45,5.59-1.67,7.82-1.22,2.23-2.86,4.09-4.93,5.58-2.06,1.49-4.44,2.62-7.13,3.38-2.69.76-5.42,1.14-8.18,1.14s-5.48-.38-8.14-1.14c-2.66-.76-5.02-1.89-7.08-3.38-2.06-1.49-3.71-3.35-4.93-5.58-1.22-2.23-1.78-4.83-1.67-7.82V14.02c-.06-2.44-.37-4.72-.94-6.84s-1.32-3.88-2.24-5.29h19.46c-.92,1.41-1.67,3.16-2.24,5.25-.57,2.09-.85,4.36-.85,6.8v29.56c0,1.79.15,3.47.45,5.05s.79,2.94,1.47,4.11c.68,1.17,1.56,2.09,2.65,2.77,1.09.68,2.44,1.02,4.07,1.02s3-.34,4.11-1.02c1.11-.68,2.01-1.6,2.69-2.77.68-1.17,1.17-2.54,1.47-4.11s.45-3.26.45-5.05V14.02c0-2.5-.28-4.79-.85-6.88-.57-2.09-1.34-3.84-2.32-5.25h19.55Z"/>
      <path class="cls-1" d="M110.25,61.58c.54-1.95.98-4.15,1.3-6.6s.57-4.99.73-7.65c.16-2.66.26-5.33.28-8.02.03-2.69.04-5.22.04-7.61s-.01-4.93-.04-7.61c-.03-2.69-.12-5.35-.28-7.98-.16-2.63-.41-5.17-.73-7.61-.33-2.44-.76-4.64-1.3-6.6h17.27c-1.09,4.07-1.72,8.31-1.91,12.7-.19,4.4-.34,8.8-.45,13.19,0,4.78.04,9.41.12,13.89.08,4.48.42,9.03,1.02,13.64,4.89-.11,9.46-1.06,13.72-2.85,4.26-1.79,7.7-4.69,10.3-8.71v17.83h-40.07Z"/>
      <path class="cls-1" d="M158.46,1.89h47.97v15.07c-1.95-2.5-4.36-4.44-7.21-5.82-2.85-1.39-5.99-2.35-9.41-2.89-.49,3.58-.8,7.42-.94,11.52-.14,4.1-.2,8.1-.2,12.01.05,5.05.16,10.1.33,15.15.16,5.05.84,9.94,2.04,14.66h-17.27c.54-1.95.98-4.15,1.3-6.6s.57-4.99.73-7.65c.16-2.66.26-5.33.29-8.02.03-2.69.04-5.22.04-7.61,0-4.02-.05-8.01-.16-11.97-.11-3.96-.41-7.79-.9-11.48-3.42.54-6.56,1.51-9.41,2.89-2.85,1.38-5.25,3.33-7.21,5.82V1.89Z"/>
      <path class="cls-1" d="M264.57,1.89c-2.01,2.99-3.07,7.03-3.18,12.13v30.7c.11,2.99-.45,5.59-1.67,7.82-1.22,2.23-2.86,4.09-4.93,5.58-2.06,1.49-4.44,2.62-7.13,3.38-2.69.76-5.42,1.14-8.18,1.14s-5.48-.38-8.14-1.14c-2.66-.76-5.02-1.89-7.08-3.38-2.06-1.49-3.71-3.35-4.93-5.58-1.22-2.23-1.78-4.83-1.67-7.82V14.02c-.06-2.44-.37-4.72-.94-6.84s-1.32-3.88-2.24-5.29h19.46c-.92,1.41-1.67,3.16-2.24,5.25-.57,2.09-.85,4.36-.85,6.8v29.56c0,1.79.15,3.47.45,5.05s.79,2.94,1.47,4.11c.68,1.17,1.56,2.09,2.65,2.77,1.09.68,2.44,1.02,4.07,1.02s3-.34,4.11-1.02c1.11-.68,2.01-1.6,2.69-2.77.68-1.17,1.17-2.54,1.47-4.11s.45-3.26.45-5.05V14.02c0-2.5-.28-4.79-.85-6.88-.57-2.09-1.34-3.84-2.32-5.25h19.55Z"/>
      <path class="cls-1" d="M272.71,1.89h1.39c1.41,0,2.93-.01,4.56-.04,1.63-.03,3.31-.04,5.05-.04,2.01,0,4.06.03,6.15.08,2.09.06,4.08.16,5.99.33,1.9.16,3.66.38,5.29.65,1.63.27,3.01.65,4.15,1.14,3.75,1.3,6.39,3.14,7.94,5.5s2.32,5.17,2.32,8.43c.11,3.42-.84,6.49-2.85,9.2-2.01,2.71-4.97,4.61-8.88,5.7,3.15,1.41,5.35,4.04,6.6,7.9l.49,1.55c.16.54.38,1.25.65,2.12.27.87.62,1.96,1.06,3.26,1.09,3.04,2.21,5.69,3.38,7.94,1.17,2.25,2.78,4.25,4.85,5.99h-20.44c.65-.92,1-2.04,1.06-3.34.05-1.3-.07-2.67-.37-4.11-.3-1.44-.68-2.86-1.14-4.28-.46-1.41-.88-2.69-1.26-3.83-.44-1.3-.95-2.62-1.55-3.95-.6-1.33-1.33-2.52-2.2-3.58-.87-1.06-1.9-1.95-3.09-2.69-1.19-.73-2.61-1.13-4.23-1.18.05,4.45.19,9.01.41,13.68.22,4.67.87,9.09,1.96,13.27h-17.27c.49-1.79.9-3.85,1.22-6.19.33-2.33.57-4.76.73-7.29.16-2.53.27-5.06.33-7.61.05-2.55.08-4.94.08-7.17,0-2.61-.01-5.25-.04-7.94-.03-2.69-.11-5.35-.25-7.98s-.35-5.25-.65-7.86c-.3-2.61-.77-5.16-1.43-7.66ZM287.62,6.37v24.02h1.38c2.39,0,4.45-.33,6.19-.98,1.74-.65,3.18-1.52,4.32-2.61,1.14-1.09,1.97-2.39,2.48-3.91.51-1.52.75-3.12.69-4.8.05-1.68-.18-3.24-.69-4.68-.52-1.44-1.33-2.69-2.44-3.75-1.11-1.06-2.54-1.89-4.28-2.48-1.74-.6-3.77-.9-6.11-.9-.27,0-.53.01-.77.04s-.5.04-.77.04Z"/>
      <path class="cls-1" d="M329.07,1.89h39.33v15.07c-1.36-1.79-2.99-3.28-4.89-4.48-1.9-1.19-3.95-2.14-6.15-2.85s-4.45-1.21-6.76-1.51-4.52-.45-6.64-.45v20.11c3.69-.22,7.06-.9,10.1-2.04,3.04-1.14,5.54-2.96,7.49-5.46v19.06c-1.96-2.55-4.45-4.4-7.49-5.54-3.04-1.14-6.41-1.82-10.1-2.04,0,4.07.07,8.09.2,12.05.13,3.96.45,7.79.94,11.48h1.38c4.78-.27,9.11-1.3,12.99-3.09,3.88-1.79,7.1-4.61,9.65-8.47v17.83h-40.07c.54-1.95.98-4.15,1.3-6.6s.57-4.99.73-7.65c.16-2.66.26-5.33.28-8.02.03-2.69.04-5.22.04-7.61s-.01-4.93-.04-7.61c-.03-2.69-.12-5.35-.28-7.98-.16-2.63-.41-5.17-.73-7.61-.33-2.44-.76-4.64-1.3-6.6Z"/>
    </g>
  </g>
</svg>