<?xml version="1.0" encoding="UTF-8"?>
<svg id="Livello_2" data-name="Livello 2" xmlns="http://www.w3.org/2000/svg" viewBox="0 0 420.88 99.92">
  <defs>
    <style>
      .cls-1 {
        fill: #fff;
        stroke-width: 0px;
      }
    </style>
  </defs>
  <g id="Livello_1-2" data-name="Livello 1">
    <g>
      <path class="cls-1" d="M34.5,2.28c6,0,11.63,1.17,16.9,3.52,5.26,2.35,9.85,5.61,13.77,9.79,3.91,4.18,7,9.2,9.26,15.07,2.26,5.87,3.39,12.33,3.39,19.38s-1.13,13.51-3.39,19.38c-2.26,5.87-5.35,10.92-9.26,15.14-3.91,4.22-8.5,7.5-13.77,9.85-5.26,2.35-10.9,3.52-16.9,3.52H2.66c.96-3.48,1.72-7.52,2.28-12.13.56-4.61.93-9.7,1.11-15.27.26-6.44.39-13.26.39-20.49,0-3.57-.02-7.44-.07-11.61-.04-4.18-.18-8.39-.39-12.66-.22-4.26-.59-8.42-1.11-12.46S3.62,5.58,2.66,2.28h31.84M28.1,88.53h6.39c2.61,0,5.04-.96,7.31-2.87,2.26-1.91,4.22-4.57,5.87-7.96,1.65-3.39,2.94-7.44,3.85-12.13.91-4.7,1.37-9.87,1.37-15.53s-.46-10.83-1.37-15.53c-.91-4.7-2.2-8.74-3.85-12.13-1.65-3.39-3.61-6.02-5.87-7.89-2.26-1.87-4.7-2.81-7.31-2.81h-6.39v76.85M34.5.28H0l.74,2.56c.92,3.2,1.65,6.8,2.16,10.73.51,3.97.88,8.11,1.1,12.31.21,4.23.34,8.46.39,12.58.04,4.21.07,8.11.07,11.59,0,7.16-.13,14.03-.39,20.41-.17,5.51-.54,10.59-1.1,15.1-.55,4.5-1.3,8.49-2.23,11.85l-.7,2.53h34.46c6.25,0,12.21-1.24,17.71-3.7,5.49-2.45,10.34-5.92,14.42-10.32,4.07-4.38,7.32-9.69,9.66-15.78,2.34-6.08,3.53-12.84,3.53-20.1s-1.19-14.02-3.53-20.09c-2.35-6.09-5.6-11.38-9.67-15.72-4.08-4.35-8.93-7.8-14.41-10.24C46.71,1.52,40.75.28,34.5.28h0ZM30.1,13.67h4.39c2.15,0,4.12.77,6.03,2.35,2.03,1.68,3.83,4.11,5.35,7.23,1.57,3.22,2.81,7.14,3.68,11.64.88,4.55,1.33,9.65,1.33,15.15s-.45,10.59-1.33,15.15c-.88,4.5-2.12,8.42-3.68,11.64-1.52,3.13-3.33,5.59-5.36,7.31-1.91,1.61-3.87,2.4-6.02,2.4h-4.39V13.67h0Z"/>
      <path class="cls-1" d="M153.89,2.28v24.14c-2.18-2.87-4.79-5.26-7.83-7.18-3.05-1.91-6.33-3.43-9.85-4.57-3.52-1.13-7.13-1.93-10.83-2.41-3.7-.48-7.24-.72-10.63-.72v32.23c5.91-.35,11.31-1.44,16.18-3.26,4.87-1.83,8.87-4.74,12-8.74v30.53c-3.13-4.09-7.13-7.05-12-8.87-4.87-1.83-10.27-2.91-16.18-3.26,0,6.52.11,12.96.33,19.31.22,6.35.72,12.48,1.5,18.4h2.22c7.65-.43,14.59-2.09,20.81-4.96,6.22-2.87,11.37-7.39,15.46-13.57v28.58h-64.2c.87-3.13,1.57-6.65,2.09-10.57.52-3.91.91-8,1.17-12.27.26-4.26.41-8.55.46-12.85.04-4.31.07-8.37.07-12.2s-.02-7.89-.07-12.2c-.04-4.31-.2-8.57-.46-12.79-.26-4.22-.65-8.29-1.17-12.2-.52-3.91-1.22-7.44-2.09-10.57h63.02M155.89.28h-67.65l.7,2.53c.84,3.04,1.53,6.5,2.03,10.3.51,3.85.9,7.91,1.16,12.06.26,4.14.41,8.41.45,12.69.04,4.34.07,8.44.07,12.18s-.02,7.84-.07,12.18c-.04,4.28-.2,8.57-.45,12.75-.26,4.19-.65,8.27-1.16,12.12-.51,3.8-1.19,7.26-2.03,10.3l-.7,2.53h68.83v-37.22l-3.67,5.54c-3.86,5.83-8.79,10.16-14.63,12.86-5.95,2.75-12.69,4.35-20.03,4.77h-.4c-.65-5.31-1.07-10.84-1.26-16.47-.19-5.59-.3-11.33-.32-17.09,4.87.45,9.4,1.45,13.47,2.98,4.49,1.68,8.23,4.45,11.12,8.22l3.59,4.68V25.96l-3.58,4.57c-2.89,3.69-6.63,6.41-11.13,8.1-4.08,1.53-8.61,2.53-13.48,2.98V13.57c2.68.08,5.49.3,8.38.67,3.56.46,7.08,1.25,10.47,2.33,3.34,1.07,6.51,2.54,9.4,4.36,2.82,1.78,5.28,4.03,7.3,6.69l3.59,4.74V.28h0Z"/>
      <path class="cls-1" d="M188.86,2.28c4.44,0,8.94.15,13.5.46,4.57.31,8.87.98,12.92,2.02s7.68,2.59,10.9,4.63c3.22,2.04,5.65,4.76,7.31,8.15.96,1.92,1.65,4.07,2.09,6.46.43,2.39.59,4.81.46,7.24-.13,2.44-.5,4.81-1.11,7.11-.61,2.31-1.48,4.37-2.61,6.2-2.09,3.13-4.68,5.63-7.76,7.5-3.09,1.87-6.46,3.28-10.11,4.24-3.65.96-7.42,1.57-11.29,1.83-3.87.26-7.59.39-11.16.39.09,3.22.17,6.5.26,9.85.09,3.35.26,6.72.52,10.11.26,3.39.63,6.72,1.11,9.98.48,3.26,1.11,6.42,1.89,9.46h-27.66c.87-3.04,1.54-6.54,2.02-10.5.48-3.96.85-8.09,1.11-12.4.26-4.31.43-8.61.52-12.92.09-4.31.13-8.29.13-11.94-.09-8.26-.24-16.4-.46-24.4-.22-8-1.33-15.83-3.33-23.49.87.09,1.74.13,2.61.13h2.74c2.35,0,4.81-.02,7.37-.07,2.56-.04,5.24-.06,8.02-.06M191.86,51.47c6.44,0,11.74-1.72,15.92-5.15,4.18-3.43,6.35-8.59,6.52-15.46v-2.74c0-.43-.04-.74-.13-.91v-.91c-.35-3.04-1.15-5.63-2.41-7.76-1.26-2.13-2.87-3.89-4.83-5.29-1.96-1.39-4.22-2.41-6.79-3.07-2.57-.65-5.28-1.02-8.16-1.11v30.27c0,2.79-.02,5.26-.06,7.44-.04,2.18-.07,3.74-.07,4.7M165.45,0l.73,2.78c1.95,7.47,3.05,15.22,3.26,23.04.22,8.03.37,16.22.46,24.37,0,3.53-.04,7.53-.13,11.88-.09,4.27-.26,8.59-.52,12.84-.26,4.23-.63,8.36-1.1,12.28-.46,3.83-1.12,7.26-1.96,10.19l-.73,2.55h32.89l-.64-2.5c-.76-2.97-1.39-6.09-1.85-9.25-.47-3.19-.84-6.51-1.09-9.85-.26-3.37-.43-6.74-.52-10.01l-.21-7.81c2.98-.04,6.08-.17,9.24-.38,3.99-.27,7.91-.9,11.66-1.89,3.82-1,7.4-2.5,10.64-4.46,3.33-2.01,6.15-4.74,8.39-8.1l.02-.03.02-.03c1.23-1.99,2.19-4.26,2.84-6.74.64-2.43,1.04-4.96,1.17-7.52.14-2.58-.03-5.17-.49-7.71-.47-2.57-1.23-4.92-2.27-7-1.8-3.69-4.5-6.71-8.02-8.95-3.39-2.15-7.25-3.79-11.47-4.88-4.14-1.07-8.61-1.77-13.28-2.08-4.6-.31-9.18-.46-13.64-.46-2.72,0-5.43.02-8.06.06-2.47.04-4.94.07-7.34.07h-2.74c-.8,0-1.62-.04-2.41-.12l-2.86-.29h0ZM193.88,49.4c.01-.75.03-1.62.05-2.59.04-2.22.07-4.74.07-7.48V11.18c1.97.16,3.87.48,5.66.93,2.31.59,4.37,1.52,6.12,2.76,1.72,1.22,3.15,2.79,4.27,4.67,1.09,1.85,1.81,4.16,2.13,6.86v1.26l.13.26s0,.11,0,.19v2.71c-.17,6.31-2.06,10.87-5.79,13.94-3.35,2.76-7.59,4.31-12.63,4.64h0Z"/>
      <path class="cls-1" d="M325.86,2.28v24.14c-3.13-4-6.98-7.11-11.55-9.33-4.57-2.22-9.59-3.76-15.07-4.63-.78,5.74-1.28,11.9-1.5,18.46-.22,6.57-.33,12.98-.33,19.25.09,8.09.26,16.18.52,24.27.26,8.09,1.35,15.92,3.26,23.49h-27.66c.87-3.13,1.57-6.65,2.09-10.57.52-3.91.91-8,1.17-12.27.26-4.26.41-8.55.46-12.85.04-4.31.06-8.37.06-12.2,0-6.44-.09-12.83-.26-19.18-.18-6.35-.65-12.48-1.44-18.4-5.48.87-10.5,2.41-15.07,4.63-4.57,2.22-8.42,5.33-11.55,9.33V2.28h76.85M327.86.28h-80.85v31.94l3.57-4.57c2.93-3.74,6.58-6.69,10.85-8.76,3.8-1.84,7.98-3.22,12.47-4.1.62,5.18,1.01,10.59,1.16,16.12.17,6.32.26,12.75.26,19.13,0,3.72-.02,7.82-.06,12.18-.04,4.28-.2,8.57-.45,12.75-.26,4.19-.65,8.27-1.16,12.12-.51,3.79-1.19,7.26-2.03,10.3l-.7,2.53h32.86l-.63-2.49c-1.87-7.39-2.95-15.15-3.2-23.06-.26-8.1-.44-16.25-.52-24.23,0-6.2.11-12.65.33-19.16.19-5.68.6-11.12,1.22-16.2,4.49.88,8.68,2.25,12.48,4.1,4.27,2.07,7.92,5.02,10.85,8.76l3.57,4.57V.28h0Z"/>
      <path class="cls-1" d="M418.25,2.28c-.87,3.13-1.57,6.65-2.09,10.57-.52,3.92-.91,7.98-1.17,12.2-.26,4.22-.44,8.48-.52,12.79-.09,4.31-.13,8.37-.13,12.2s.04,7.89.13,12.2c.09,4.31.26,8.59.52,12.85.26,4.26.65,8.35,1.17,12.27.52,3.92,1.22,7.44,2.09,10.57h-27.79c.87-3.04,1.57-6.52,2.09-10.44.52-3.92.91-7.96,1.17-12.13.26-4.18.41-8.39.46-12.66.04-4.26.07-8.26.07-12h-31.58c0,3.74.04,7.74.13,12,.09,4.26.26,8.48.52,12.66.26,4.17.63,8.22,1.11,12.13.48,3.91,1.15,7.39,2.02,10.44h-27.66c.87-3.13,1.57-6.65,2.09-10.57.52-3.91.91-8,1.17-12.27.26-4.26.41-8.55.46-12.85.04-4.31.07-8.37.07-12.2s-.02-7.89-.07-12.2c-.04-4.31-.2-8.57-.46-12.79-.26-4.22-.65-8.29-1.17-12.2-.52-3.91-1.22-7.44-2.09-10.57h27.66c-.7,2.52-1.28,5.35-1.76,8.48-.48,3.13-.85,6.42-1.11,9.85-.26,3.44-.46,6.94-.59,10.5-.13,3.57-.24,7.05-.33,10.44h31.58c0-3.39-.07-6.87-.2-10.44-.13-3.57-.35-7.07-.65-10.5-.31-3.43-.7-6.72-1.17-9.85-.48-3.13-1.07-5.96-1.76-8.48h27.79M420.88.28h-33.05l.7,2.53c.67,2.44,1.25,5.21,1.71,8.25.47,3.07.86,6.34,1.16,9.73.3,3.4.52,6.9.65,10.4.1,2.83.17,5.64.19,8.37h-27.52c.07-2.67.17-5.47.27-8.37.13-3.52.33-7.03.58-10.43.26-3.38.62-6.64,1.09-9.7.46-3.04,1.04-5.81,1.71-8.25l.7-2.53h-32.92l.7,2.53c.84,3.04,1.53,6.5,2.03,10.3.51,3.85.9,7.91,1.16,12.06.26,4.14.41,8.41.45,12.69.04,4.34.07,8.44.07,12.18s-.02,7.84-.07,12.18c-.04,4.28-.2,8.57-.45,12.75-.26,4.19-.65,8.27-1.16,12.12-.51,3.8-1.19,7.26-2.03,10.3l-.7,2.53h32.95l-.73-2.55c-.84-2.93-1.5-6.34-1.96-10.13-.47-3.85-.84-7.89-1.1-12.02-.26-4.16-.43-8.39-.52-12.57-.07-3.46-.11-6.8-.13-9.96h27.57c0,3.11-.03,6.46-.06,9.98-.04,4.23-.2,8.46-.45,12.55-.26,4.11-.65,8.15-1.16,12-.51,3.79-1.19,7.21-2.03,10.15l-.73,2.55h33.08l-.7-2.54c-.84-3.02-1.52-6.49-2.03-10.3-.51-3.84-.9-7.92-1.16-12.12-.26-4.24-.43-8.54-.52-12.77-.09-4.25-.13-8.34-.13-12.16s.04-7.91.13-12.16c.08-4.23.26-8.5.52-12.71.26-4.16.65-8.21,1.16-12.06.51-3.81,1.19-7.27,2.03-10.3l.71-2.54h0Z"/>
    </g>
  </g>
</svg>