<?xml version="1.0" encoding="UTF-8"?>
<svg id="Livello_2" data-name="Livello 2" xmlns="http://www.w3.org/2000/svg" viewBox="0 0 327.88 71.35">
  <defs>
    <style>
      .cls-1 {
        fill: #fff;
        stroke-width: 0px;
      }
    </style>
  </defs>
  <g id="Livello_1-2" data-name="Livello 1">
    <g>
      <path class="cls-1" d="M23.91,2.76c4.13,0,8.01.81,11.63,2.42,3.62,1.62,6.78,3.86,9.48,6.74,2.69,2.87,4.82,6.33,6.38,10.37,1.56,4.04,2.33,8.49,2.33,13.34s-.78,9.3-2.33,13.34c-1.56,4.04-3.68,7.51-6.38,10.42-2.7,2.9-5.85,5.16-9.48,6.78-3.62,1.62-7.5,2.43-11.63,2.43H2c.66-2.39,1.18-5.18,1.57-8.35.39-3.17.64-6.68.76-10.51.18-4.43.27-9.13.27-14.1,0-2.45-.02-5.12-.05-7.99-.03-2.87-.12-5.78-.27-8.71-.15-2.93-.4-5.79-.76-8.58-.36-2.78-.87-5.31-1.53-7.59h21.92M19.51,62.13h4.4c1.8,0,3.47-.66,5.03-1.98,1.56-1.32,2.9-3.14,4.04-5.48,1.14-2.34,2.02-5.12,2.65-8.35.63-3.23.94-6.79.94-10.69s-.31-7.45-.94-10.69c-.63-3.23-1.51-6.02-2.65-8.35-1.14-2.34-2.49-4.15-4.04-5.43-1.56-1.29-3.23-1.93-5.03-1.93h-4.4v52.9M23.91,1.26H0l.55,1.92c.64,2.19,1.13,4.67,1.48,7.36.35,2.72.6,5.57.75,8.46.15,2.89.24,5.8.27,8.65.03,3.01.05,5.62.05,7.98,0,4.91-.09,9.63-.27,14.04-.12,3.79-.37,7.28-.75,10.39-.38,3.09-.9,5.83-1.53,8.14l-.52,1.9h23.88c4.32,0,8.44-.86,12.24-2.56,3.79-1.69,7.14-4.09,9.96-7.13,2.81-3.03,5.06-6.69,6.68-10.9,1.62-4.2,2.44-8.87,2.44-13.88s-.82-9.68-2.43-13.88c-1.62-4.21-3.87-7.86-6.68-10.86-2.82-3.01-6.17-5.39-9.96-7.08-3.8-1.7-7.92-2.55-12.24-2.55h0ZM21.01,10.72h2.9c1.45,0,2.78.52,4.07,1.59,1.38,1.14,2.61,2.8,3.65,4.93,1.08,2.21,1.92,4.89,2.52,7.98.61,3.12.92,6.62.92,10.4s-.31,7.28-.92,10.4c-.6,3.09-1.45,5.77-2.53,7.98-1.04,2.14-2.27,3.82-3.66,4.99-1.29,1.09-2.62,1.62-4.06,1.62h-2.9V10.72h0Z"/>
      <path class="cls-1" d="M106.09,2.76v16.62c-1.5-1.98-3.29-3.62-5.39-4.94-2.1-1.32-4.36-2.36-6.78-3.14-2.43-.78-4.91-1.33-7.46-1.66-2.55-.33-4.98-.49-7.32-.49v22.18c4.07-.24,7.78-.99,11.14-2.25,3.35-1.26,6.11-3.26,8.26-6.02v21.02c-2.16-2.81-4.91-4.85-8.26-6.11-3.35-1.26-7.07-2.01-11.14-2.25,0,4.49.07,8.92.22,13.29.15,4.37.49,8.59,1.03,12.66h1.53c5.27-.3,10.04-1.44,14.33-3.41,4.28-1.98,7.83-5.09,10.64-9.34v19.67h-44.19c.6-2.16,1.08-4.58,1.44-7.28.36-2.69.63-5.51.81-8.44.18-2.93.28-5.88.31-8.85.03-2.96.05-5.76.05-8.4s-.02-5.43-.05-8.4c-.03-2.96-.13-5.9-.31-8.8-.18-2.9-.45-5.7-.81-8.4-.36-2.7-.84-5.12-1.44-7.28h43.38M107.59,1.26h-46.85l.53,1.9c.58,2.09,1.05,4.47,1.4,7.07.35,2.63.62,5.42.8,8.29.18,2.84.28,5.78.31,8.72.03,3.11.05,5.85.05,8.38s-.01,5.27-.05,8.38c-.03,2.95-.14,5.9-.31,8.77-.18,2.9-.45,5.7-.8,8.34-.35,2.61-.82,4.99-1.4,7.07l-.53,1.9h47.66v-26.15l-2.75,4.16c-2.64,4-6.02,6.96-10.02,8.81-4.08,1.88-8.7,2.98-13.74,3.27h-.16c-.44-3.61-.72-7.38-.86-11.22-.13-3.8-.2-7.7-.22-11.62,3.29.32,6.35,1,9.11,2.03,3.07,1.15,5.63,3.04,7.6,5.61l2.69,3.51v-29.79l-2.68,3.43c-1.97,2.52-4.53,4.38-7.61,5.54-2.76,1.04-5.82,1.72-9.11,2.03V10.66c1.8.06,3.69.21,5.63.46,2.44.32,4.86.86,7.19,1.6,2.29.74,4.46,1.74,6.44,2.99,1.93,1.21,3.61,2.75,4.99,4.58l2.7,3.55V1.26h0Z"/>
      <path class="cls-1" d="M138.79,1.59c2.16,0,4.28.27,6.38.81,2.09.54,4.04,1.41,5.84,2.6.06.06.21.15.45.27.12,0,.58-.1,1.39-.31.81-.21,1.69-.42,2.65-.63.96-.21,1.83-.42,2.6-.63.78-.21,1.2-.31,1.26-.31v17.33c-1.02-1.2-2.28-2.54-3.77-4.04-1.5-1.5-3.11-2.9-4.85-4.22-1.74-1.32-3.53-2.41-5.39-3.28-1.86-.87-3.65-1.3-5.39-1.3-2.16,0-4.12.49-5.88,1.48-1.77.99-2.98,2.29-3.64,3.91-.66,1.62-.52,3.41.4,5.39.93,1.98,3.01,3.95,6.24,5.93l18.32,11.41c2.39,1.44,4.23,3.28,5.52,5.52,1.29,2.25,2.03,4.63,2.25,7.14.21,2.51-.13,5.03-1.03,7.54s-2.33,4.78-4.31,6.78c-1.98,2.01-4.48,3.64-7.5,4.9-3.02,1.26-6.57,1.89-10.64,1.89-1.32,0-2.83-.12-4.54-.36-1.71-.24-3.37-.51-4.98-.81-1.62-.3-3.1-.64-4.45-1.03-1.35-.39-2.35-.7-3.01-.94l-5.75,1.35v-20.93c1.14,1.8,2.36,3.56,3.68,5.3,1.2,1.44,2.53,2.93,4,4.49,1.47,1.56,3.04,2.87,4.72,3.95,1.2.78,2.54,1.38,4.04,1.8,1.5.42,3.02.63,4.58.63s3.04-.21,4.45-.63c1.41-.42,2.62-1.05,3.64-1.89.6-.48,1.18-1.23,1.75-2.25.57-1.02.87-2.17.9-3.46.03-1.29-.33-2.63-1.08-4.04-.75-1.41-2.14-2.74-4.18-4l-16.89-10.6c-1.32-.84-2.62-1.81-3.91-2.92-1.29-1.11-2.43-2.34-3.41-3.68-.99-1.35-1.8-2.8-2.43-4.36-.63-1.56-.94-3.17-.94-4.85-.06-2.87.57-5.48,1.89-7.81,1.32-2.34,3.05-4.33,5.21-5.97,2.16-1.65,4.61-2.92,7.36-3.82,2.75-.9,5.57-1.35,8.44-1.35M138.79.09c-3.02,0-6.02.48-8.91,1.42-2.9.95-5.53,2.31-7.81,4.05-2.31,1.77-4.2,3.93-5.61,6.43-1.44,2.56-2.14,5.45-2.08,8.58,0,1.83.35,3.65,1.05,5.38.67,1.67,1.55,3.24,2.61,4.68,1.05,1.44,2.28,2.76,3.65,3.93,1.33,1.15,2.7,2.17,4.08,3.05l16.89,10.6c1.8,1.11,3.03,2.27,3.65,3.43.62,1.17.93,2.28.9,3.3-.02,1.05-.26,1.95-.71,2.76-.59,1.05-1.07,1.56-1.38,1.81-.87.72-1.92,1.26-3.13,1.62-1.26.38-2.61.57-4.02.57s-2.82-.19-4.18-.57c-1.34-.38-2.56-.92-3.63-1.61-1.58-1.01-3.07-2.26-4.44-3.72-1.41-1.5-2.73-2.98-3.91-4.4-1.28-1.69-2.49-3.43-3.59-5.17l-2.77-4.37v28l1.84-.43,5.32-1.25c.66.23,1.54.5,2.68.82,1.39.4,2.93.76,4.59,1.07,1.64.3,3.34.58,5.05.82,1.78.25,3.37.37,4.74.37,4.25,0,8.02-.67,11.22-2,3.2-1.33,5.89-3.09,7.99-5.23,2.12-2.15,3.69-4.62,4.65-7.33.97-2.71,1.34-5.46,1.12-8.17-.23-2.72-1.05-5.34-2.44-7.76-1.41-2.46-3.45-4.5-6.05-6.06l-18.3-11.39c-2.97-1.82-4.88-3.59-5.68-5.29-.75-1.59-.87-2.96-.37-4.19.53-1.3,1.51-2.34,2.98-3.17,1.53-.86,3.26-1.29,5.15-1.29,1.5,0,3.1.39,4.75,1.16,1.75.82,3.47,1.87,5.12,3.11,1.67,1.27,3.25,2.65,4.69,4.09,1.46,1.46,2.7,2.79,3.69,3.95l2.64,3.1V1.89h-1.5c-.23,0-.33.01-1.65.37-.75.2-1.6.41-2.54.61-1.01.22-1.9.43-2.71.64-.32.08-.56.14-.73.18-1.9-1.25-3.99-2.18-6.2-2.74-2.21-.57-4.48-.86-6.75-.86h0Z"/>
      <path class="cls-1" d="M191.33,2.76c-.6,2.16-1.08,4.58-1.44,7.28-.36,2.69-.63,5.49-.81,8.4-.18,2.9-.29,5.84-.32,8.8-.03,2.96-.04,5.76-.04,8.4s.01,5.43.04,8.4c.03,2.96.14,5.91.32,8.85.18,2.93.45,5.75.81,8.44.36,2.69.84,5.12,1.44,7.28h-19.04c.6-2.16,1.08-4.58,1.44-7.28s.63-5.51.81-8.44c.18-2.93.28-5.88.31-8.85.03-2.96.05-5.76.05-8.4s-.02-5.43-.05-8.4c-.03-2.96-.13-5.9-.31-8.8-.18-2.9-.45-5.7-.81-8.4-.36-2.7-.84-5.12-1.44-7.28h19.04M193.3,1.26h-22.99l.53,1.9c.58,2.09,1.05,4.47,1.4,7.07.35,2.63.62,5.42.8,8.29.18,2.84.28,5.78.31,8.72.03,3.11.05,5.85.05,8.38s-.01,5.27-.05,8.38c-.03,2.95-.14,5.9-.31,8.77-.18,2.9-.45,5.7-.8,8.34-.35,2.61-.82,4.99-1.4,7.07l-.53,1.9h22.99l-.53-1.9c-.58-2.08-1.05-4.46-1.4-7.07-.35-2.66-.62-5.46-.8-8.34-.18-2.89-.28-5.84-.31-8.77-.03-2.88-.04-5.7-.04-8.38s.01-5.51.04-8.38c.03-2.93.14-5.86.31-8.72.18-2.85.44-5.64.8-8.29.35-2.61.82-4.99,1.4-7.07l.53-1.9h0Z"/>
      <path class="cls-1" d="M228.42,1.5c4.13,0,7.99,1.2,11.59,3.59,1.68-.42,3.01-.75,4-.99.99-.24,2.32-.54,4-.9v16.35c-.12-.12-.47-.49-1.03-1.12-.57-.63-1.3-1.38-2.2-2.25-.9-.87-1.93-1.8-3.1-2.78-1.17-.99-2.4-1.9-3.68-2.74-1.29-.84-2.6-1.54-3.95-2.11-1.35-.57-2.68-.85-4-.85-.96,0-1.89.18-2.78.54-1.92.84-3.53,2.19-4.85,4.04-1.32,1.86-2.38,4.04-3.19,6.56s-1.38,5.28-1.71,8.31c-.33,3.02-.49,6.15-.49,9.39,0,2.87.22,5.88.67,9.03.45,3.14,1.18,6.03,2.2,8.67,1.02,2.63,2.34,4.84,3.95,6.6,1.62,1.77,3.56,2.71,5.84,2.83,1.98,0,3.55-.57,4.71-1.71,1.17-1.14,2.02-2.57,2.56-4.31.54-1.74.78-3.7.72-5.88-.06-2.18-.35-4.34-.85-6.47-.51-2.12-1.2-4.12-2.07-5.97-.87-1.86-1.9-3.35-3.1-4.49h20.93c-1.2,1.86-1.9,3.8-2.11,5.84-.21,2.04-.37,4.1-.49,6.2-.06,1.62-.06,3.23,0,4.85.06,1.62.21,3.2.45,4.76.18,1.08.45,2.16.81,3.23-2.69,3.23-5.96,5.73-9.79,7.5-3.83,1.77-7.84,2.65-12.04,2.65-4.61-.12-8.68-1.08-12.21-2.87-3.53-1.8-6.5-4.16-8.89-7.09-2.4-2.93-4.27-6.27-5.61-10.01-1.35-3.74-2.13-7.62-2.34-11.63-.21-4.01.12-7.98.99-11.9.87-3.92,2.28-7.54,4.22-10.87,1.95-3.32,4.45-6.17,7.5-8.53,3.05-2.36,6.65-4,10.78-4.9,1.56-.36,3.08-.54,4.58-.54M228.42,0c-1.61,0-3.26.19-4.92.58-4.31.94-8.14,2.68-11.36,5.17-3.19,2.48-5.84,5.49-7.88,8.96-2.02,3.44-3.49,7.24-4.39,11.3-.89,4.04-1.24,8.18-1.02,12.3.22,4.14,1.03,8.2,2.42,12.06,1.4,3.89,3.37,7.4,5.86,10.45,2.52,3.08,5.67,5.6,9.37,7.48,3.71,1.89,8.04,2.91,12.85,3.04h0c4.43,0,8.69-.94,12.7-2.79,4.02-1.85,7.49-4.51,10.31-7.9l.54-.64-.26-.79c-.33-.99-.58-2-.75-3.01-.23-1.48-.37-3.02-.43-4.57-.06-1.57-.06-3.17,0-4.74.12-2.05.28-4.11.49-6.1.18-1.79.82-3.53,1.88-5.18l1.49-2.31h-27.43l2.72,2.59c1.05,1,1.99,2.36,2.77,4.04.82,1.75,1.48,3.67,1.97,5.69.48,2.02.76,4.09.81,6.16.05,2.01-.17,3.83-.65,5.4-.46,1.49-1.19,2.73-2.17,3.68-.88.85-2.06,1.27-3.63,1.28-1.87-.11-3.43-.87-4.77-2.34-1.48-1.62-2.71-3.68-3.66-6.13-.97-2.51-1.68-5.31-2.12-8.34-.44-3.06-.66-6.03-.66-8.81,0-3.16.16-6.26.49-9.22.32-2.9.87-5.6,1.64-8.01.76-2.36,1.76-4.43,2.98-6.15,1.17-1.64,2.55-2.8,4.23-3.54.67-.27,1.42-.41,2.18-.41,1.11,0,2.26.25,3.41.74,1.25.53,2.5,1.2,3.72,1.99,1.23.8,2.42,1.69,3.53,2.63,1.12.95,2.14,1.87,3.03,2.72.87.84,1.59,1.57,2.13,2.17.78.86.99,1.08,1.09,1.18l2.56,2.53V1.35l-1.81.39c-1.61.34-2.97.65-4.04.91-.86.21-1.99.49-3.38.83-3.67-2.31-7.66-3.48-11.86-3.48h0Z"/>
      <path class="cls-1" d="M324.25,2.76c-1.2,1.2-2.22,2.68-3.05,4.44-.84,1.77-1.53,3.79-2.06,6.06-.66,2.46-1.12,5.22-1.39,8.31-.27,3.09-.45,6.23-.54,9.43-.09,3.2-.12,6.33-.09,9.39.03,3.05.05,5.78.05,8.17.12,3.83.37,7.28.76,10.33.39,3.05,1.54,5.99,3.46,8.8.36.36.6.66.72.9h-23.89c-.72-5.75-2.14-11.26-4.27-16.53-2.13-5.27-4.54-10.45-7.23-15.54-1.74-3.23-3.55-6.35-5.43-9.34-1.89-2.99-3.97-5.81-6.24-8.44-.06.3-.09,1.2-.09,2.69s-.02,3.28-.05,5.34c-.03,2.07-.05,4.27-.05,6.6v15.18c.12,4.43.49,8.32,1.12,11.68.63,3.35,1.9,6.14,3.82,8.35h-18.23c1.8-1.86,3.2-4.33,4.22-7.41,1.02-3.08,1.75-6.42,2.2-10.01.45-3.59.69-7.26.72-11,.03-3.74-.02-7.23-.13-10.46-.06-2.03-.18-4.29-.36-6.78-.18-2.48-.51-4.95-.99-7.41-.48-2.45-1.17-4.8-2.07-7.05-.9-2.25-2.1-4.14-3.59-5.7h24.16c4.61,8.5,8.74,16.11,12.39,22.81,1.56,2.87,3.08,5.67,4.58,8.4,1.5,2.73,2.83,5.16,4,7.32,1.17,2.16,2.47,4.55,3.91,7.19.06-.84.12-1.77.18-2.78.06-1.02.09-2.1.09-3.23.06-1.62.09-3.32.09-5.12s-.02-3.56-.05-5.3c-.03-1.74-.05-3.4-.05-4.98v-4.36c-.06-1.74-.13-3.5-.22-5.3-.09-1.8-.29-3.55-.58-5.25-.3-1.71-.76-3.37-1.39-4.98-.63-1.62-1.51-3.08-2.65-4.4h18.23M327.88,1.26h-25.13l2.14,2.48c1.02,1.18,1.82,2.52,2.39,3.96.59,1.51,1.03,3.1,1.31,4.7.29,1.64.48,3.35.56,5.07.09,1.7.16,3.42.22,5.25v4.33c0,1.65.02,3.34.05,5.01.03,1.79.05,3.57.05,5.27s-.03,3.44-.09,5.06v.03s0,.03,0,.03c0,.21,0,.41,0,.61-.47-.87-.92-1.7-1.35-2.5-1.17-2.16-2.5-4.6-4-7.33-1.5-2.72-3.02-5.52-4.58-8.39-3.66-6.71-7.79-14.31-12.4-22.81l-.43-.79h-28.57l2.44,2.54c1.36,1.41,2.46,3.17,3.28,5.22.86,2.14,1.53,4.43,1.99,6.78.47,2.39.79,4.83.96,7.23.18,2.45.3,4.71.36,6.72.12,3.21.16,6.71.13,10.41-.03,3.68-.27,7.32-.71,10.83-.43,3.48-1.15,6.75-2.14,9.73-.94,2.86-2.25,5.16-3.87,6.84l-2.46,2.54h25.06l-2.15-2.48c-1.73-2-2.9-4.57-3.48-7.65-.61-3.26-.98-7.11-1.1-11.44v-2.92s0-5.52,0-5.52v-6.69c0-2.32.02-4.53.05-6.58.02-1.51.03-2.82.04-3.95,1.26,1.65,2.46,3.37,3.57,5.13,1.86,2.95,3.67,6.07,5.38,9.25,2.65,5.01,5.06,10.19,7.16,15.39,2.07,5.13,3.47,10.56,4.17,16.15l.16,1.31h27.66l-1.11-2.18c-.18-.36-.47-.74-.89-1.17-1.73-2.57-2.78-5.27-3.14-8.04-.38-2.99-.63-6.41-.75-10.19,0-2.34-.01-5.1-.04-8.14-.03-3.02,0-6.16.09-9.33.09-3.16.27-6.31.53-9.34.26-2.99.71-5.7,1.35-8.05.52-2.21,1.18-4.15,1.97-5.81.76-1.6,1.69-2.96,2.76-4.03l2.56-2.56h0Z"/>
    </g>
  </g>
</svg>