<?xml version="1.0" encoding="UTF-8"?>
<svg id="Livello_2" data-name="Livello 2" xmlns="http://www.w3.org/2000/svg" viewBox="0 0 238.58 60.23">
  <defs>
    <style>
      .cls-1 {
        fill: #fff;
        stroke-width: 0px;
      }
    </style>
  </defs>
  <g id="Livello_1-2" data-name="Livello 1">
    <g>
      <path class="cls-1" d="M17.96,2.48c-1.01,3.77-1.6,7.69-1.77,11.76-.18,4.07-.31,8.14-.41,12.21,0,4.42.04,8.71.11,12.86.08,4.15.39,8.36.94,12.63,4.52-.1,8.76-.98,12.7-2.64,3.95-1.66,7.13-4.35,9.54-8.07v16.51H1.97c.5-1.81.91-3.85,1.21-6.11s.53-4.62.68-7.09c.15-2.46.24-4.94.26-7.43.02-2.49.04-4.84.04-7.05s-.01-4.56-.04-7.05c-.03-2.49-.11-4.95-.26-7.39-.15-2.44-.38-4.79-.68-7.05-.3-2.26-.71-4.3-1.21-6.11h15.99M19.91.98H0l.53,1.9c.48,1.74.88,3.73,1.17,5.9.29,2.21.52,4.54.67,6.94.15,2.38.23,4.84.26,7.31.03,2.61.04,4.91.04,7.03s-.01,4.43-.04,7.04c-.03,2.47-.11,4.94-.26,7.35-.15,2.42-.37,4.77-.67,6.98-.29,2.18-.68,4.16-1.17,5.9l-.53,1.9h40.57v-23.08l-2.76,4.26c-2.23,3.44-5.21,5.97-8.86,7.5-3.36,1.41-6.99,2.24-10.8,2.47-.44-3.74-.7-7.47-.76-11.1-.08-4.08-.11-8.4-.11-12.83.1-4.02.24-8.12.41-12.15.17-3.94.75-7.79,1.72-11.44l.5-1.89h0Z"/>
      <path class="cls-1" d="M92.98,2.48c-1.86,2.76-2.84,6.51-2.94,11.23v28.43c.1,2.76-.42,5.18-1.55,7.24-1.13,2.06-2.65,3.78-4.56,5.17-1.91,1.38-4.11,2.43-6.6,3.13s-5.01,1.06-7.58,1.06-5.08-.35-7.54-1.06c-2.46-.7-4.65-1.75-6.56-3.13-1.91-1.38-3.43-3.1-4.56-5.17-1.13-2.06-1.65-4.47-1.54-7.24V13.71c-.05-2.26-.34-4.37-.87-6.33-.53-1.96-1.22-3.59-2.07-4.9h18.02c-.85,1.31-1.54,2.93-2.07,4.86-.53,1.94-.79,4.03-.79,6.3v27.37c0,1.66.14,3.22.41,4.67.28,1.46.73,2.73,1.36,3.81.63,1.08,1.44,1.94,2.45,2.56,1,.63,2.26.94,3.77.94s2.78-.31,3.81-.94c1.03-.63,1.86-1.48,2.49-2.56.63-1.08,1.08-2.35,1.36-3.81s.42-3.02.42-4.67V13.71c0-2.31-.26-4.44-.79-6.37-.53-1.93-1.24-3.56-2.15-4.86h18.1M95.8.98h-23.77l1.63,2.35c.8,1.16,1.46,2.64,1.94,4.4.49,1.8.74,3.81.74,5.98v27.29c0,1.56-.13,3.03-.39,4.4-.24,1.28-.64,2.4-1.18,3.33-.51.87-1.15,1.54-1.97,2.04-.79.48-1.8.72-3.03.72s-2.22-.24-2.97-.71c-.8-.5-1.44-1.17-1.95-2.05-.54-.93-.94-2.05-1.18-3.33-.26-1.36-.39-2.84-.39-4.4V13.64c0-2.12.25-4.1.74-5.9.48-1.78,1.12-3.27,1.88-4.44l1.52-2.32h-23.56l1.52,2.32c.76,1.17,1.4,2.67,1.88,4.47.49,1.84.77,3.85.82,5.98v28.37c-.11,3.01.48,5.7,1.73,7.99,1.24,2.25,2.92,4.15,5,5.66,2.04,1.48,4.41,2.61,7.03,3.36,2.59.74,5.26,1.11,7.95,1.11s5.37-.37,7.98-1.11c2.64-.75,5.02-1.88,7.07-3.36,2.08-1.51,3.76-3.41,5-5.66,1.25-2.28,1.84-4.97,1.73-7.99V13.71c.09-4.38,1-7.89,2.68-10.4l1.57-2.34h0Z"/>
      <path class="cls-1" d="M110.7,2.4c1.86,0,3.76.03,5.69.08,1.93.05,3.78.15,5.54.3,1.76.15,3.39.35,4.9.6,1.51.25,2.79.6,3.84,1.06,3.47,1.21,5.92,2.9,7.35,5.09s2.15,4.79,2.15,7.8c.1,3.17-.78,6.01-2.64,8.52-1.86,2.51-4.6,4.27-8.22,5.28,2.92,1.31,4.95,3.75,6.11,7.31l.45,1.43c.15.5.35,1.16.6,1.96.25.8.58,1.81.98,3.02,1,2.82,2.05,5.27,3.13,7.35,1.08,2.09,2.58,3.93,4.49,5.54h-18.92c.6-.85.93-1.88.98-3.09.05-1.21-.06-2.47-.34-3.81-.28-1.33-.63-2.65-1.06-3.96-.43-1.31-.82-2.49-1.17-3.54-.4-1.21-.88-2.42-1.43-3.66-.55-1.23-1.23-2.34-2.04-3.32-.8-.98-1.76-1.81-2.87-2.49-1.11-.68-2.41-1.04-3.92-1.09.05,4.12.18,8.34.38,12.67.2,4.32.8,8.42,1.81,12.29h-15.99c.45-1.66.83-3.57,1.13-5.73.3-2.16.53-4.41.68-6.75.15-2.34.25-4.69.3-7.05.05-2.36.08-4.57.08-6.64,0-2.41-.01-4.86-.04-7.35-.03-2.49-.1-4.95-.23-7.39-.13-2.44-.33-4.86-.6-7.28-.28-2.41-.72-4.77-1.32-7.09h1.28c1.31,0,2.71-.01,4.22-.04,1.51-.02,3.07-.04,4.67-.04M114.32,28.87h1.28c2.21,0,4.12-.3,5.73-.91,1.61-.6,2.94-1.41,4-2.41,1.06-1,1.82-2.21,2.3-3.62.48-1.41.69-2.89.64-4.45.05-1.56-.16-3-.64-4.33-.48-1.33-1.23-2.49-2.26-3.47-1.03-.98-2.35-1.75-3.96-2.3-1.61-.55-3.49-.83-5.65-.83-.25,0-.49.01-.72.04-.23.03-.46.04-.72.04v22.24M110.7.9c-1.55,0-3.13.01-4.7.04-1.44.03-2.85.04-4.2.04h-3.22l.49,1.88c.58,2.23,1.01,4.54,1.28,6.88.27,2.37.47,4.79.59,7.18.12,2.4.2,4.86.22,7.33.03,2.61.04,5.01.04,7.34,0,2-.03,4.22-.08,6.6-.05,2.35-.15,4.7-.3,6.98-.15,2.28-.37,4.52-.67,6.64-.29,2.09-.66,3.95-1.09,5.54l-.52,1.9h19.89l-.49-1.88c-.98-3.75-1.57-7.78-1.76-11.98-.17-3.71-.29-7.37-.35-10.89.59.15,1.12.37,1.61.67.96.59,1.8,1.32,2.49,2.16.71.87,1.33,1.88,1.83,2.98.53,1.18.99,2.36,1.38,3.52.35,1.05.74,2.23,1.17,3.54.41,1.25.75,2.52,1.01,3.8.25,1.21.35,2.36.31,3.44-.04.92-.27,1.67-.71,2.29l-1.67,2.36h25.93l-3.15-2.65c-1.75-1.47-3.14-3.18-4.12-5.08-1.04-2.01-2.07-4.43-3.05-7.17-.39-1.17-.71-2.16-.96-2.96-.25-.8-.45-1.44-.6-1.94l-.46-1.46c-.89-2.75-2.28-4.92-4.14-6.49,2.51-1.14,4.53-2.73,6.03-4.76,2.06-2.78,3.04-5.96,2.93-9.46,0-3.25-.8-6.15-2.39-8.58-1.61-2.45-4.32-4.36-8.06-5.67-1.15-.49-2.54-.87-4.14-1.14-1.54-.26-3.23-.46-5.02-.62-1.79-.15-3.68-.26-5.63-.31-1.98-.05-3.91-.08-5.73-.08h0ZM115.82,27.37V8.05c1.96,0,3.67.26,5.1.75,1.4.48,2.54,1.14,3.41,1.97.86.82,1.48,1.77,1.88,2.89.41,1.14.6,2.42.55,3.78v.05s0,.05,0,.05c.04,1.37-.15,2.69-.56,3.92-.4,1.19-1.03,2.17-1.91,3.01-.9.86-2.08,1.57-3.49,2.09-1.38.52-3.06.79-4.99.81h0Z"/>
      <path class="cls-1" d="M189.11,2.48v13.95c-1.26-1.66-2.77-3.04-4.52-4.15-1.76-1.11-3.66-1.99-5.69-2.64-2.04-.65-4.12-1.12-6.26-1.39-2.14-.28-4.18-.42-6.14-.42v18.62c3.42-.2,6.53-.83,9.35-1.88,2.81-1.06,5.13-2.74,6.94-5.05v17.64c-1.81-2.36-4.12-4.07-6.94-5.13-2.82-1.06-5.93-1.68-9.35-1.89,0,3.77.06,7.49.19,11.16.12,3.67.41,7.21.87,10.63h1.28c4.42-.25,8.43-1.21,12.03-2.87,3.59-1.66,6.57-4.27,8.93-7.84v16.51h-37.1c.5-1.81.91-3.85,1.21-6.11s.53-4.62.68-7.09c.15-2.46.24-4.94.26-7.43.02-2.49.04-4.84.04-7.05s-.01-4.56-.04-7.05c-.03-2.49-.11-4.95-.26-7.39-.15-2.44-.38-4.79-.68-7.05-.3-2.26-.71-4.3-1.21-6.11h36.42M190.61.98h-39.89l.53,1.9c.48,1.74.88,3.73,1.17,5.9.29,2.21.52,4.54.67,6.94.15,2.38.23,4.84.26,7.31.03,2.61.04,4.91.04,7.03s-.01,4.43-.04,7.04c-.03,2.47-.11,4.94-.26,7.35-.15,2.42-.37,4.77-.67,6.98-.29,2.18-.68,4.16-1.17,5.9l-.53,1.9h40.57v-23l-2.75,4.16c-2.19,3.32-4.99,5.77-8.31,7.31-3.37,1.56-7.19,2.47-11.36,2.72-.35-2.96-.58-6.04-.69-9.18-.11-3.1-.17-6.28-.18-9.48,2.64.27,5.1.83,7.32,1.66,2.53.95,4.64,2.51,6.27,4.63l2.69,3.51V15.17l-2.68,3.43c-1.63,2.08-3.74,3.62-6.28,4.57-2.22.83-4.68,1.39-7.32,1.66v-15.47c1.43.05,2.92.18,4.45.37,2.04.26,4.05.71,5.99,1.34,1.91.61,3.71,1.45,5.35,2.48,1.6,1,2.99,2.28,4.13,3.78l2.7,3.55V.98h0Z"/>
      <path class="cls-1" d="M216.56,1.5c1.81,0,3.59.23,5.35.68,1.76.45,3.39,1.18,4.9,2.19.05.05.18.13.38.23.1,0,.49-.09,1.17-.26.68-.18,1.42-.35,2.22-.53.8-.18,1.53-.35,2.19-.53.65-.17,1-.26,1.06-.26v14.55c-.86-1-1.91-2.14-3.17-3.39-1.26-1.26-2.61-2.44-4.07-3.54-1.46-1.1-2.97-2.02-4.52-2.75-1.56-.73-3.07-1.09-4.52-1.09-1.81,0-3.46.41-4.94,1.24-1.48.83-2.5,1.92-3.05,3.28-.55,1.36-.44,2.87.34,4.52.78,1.66,2.53,3.32,5.24,4.98l15.38,9.58c2.01,1.21,3.55,2.75,4.64,4.64,1.08,1.89,1.71,3.88,1.88,6,.18,2.11-.11,4.22-.87,6.33s-1.96,4.01-3.62,5.69c-1.66,1.69-3.76,3.05-6.3,4.11-2.54,1.06-5.52,1.58-8.93,1.58-1.11,0-2.38-.1-3.81-.3-1.43-.2-2.83-.43-4.18-.68s-2.6-.54-3.73-.87c-1.13-.33-1.97-.59-2.53-.79l-4.83,1.13v-17.57c.95,1.51,1.99,2.99,3.09,4.45,1,1.21,2.12,2.46,3.35,3.77,1.23,1.31,2.55,2.41,3.96,3.32,1,.65,2.14,1.16,3.39,1.51,1.26.35,2.54.53,3.85.53s2.55-.17,3.73-.53c1.18-.35,2.2-.88,3.05-1.58.5-.4.99-1.03,1.47-1.89.48-.85.73-1.82.75-2.9.03-1.08-.28-2.21-.9-3.39-.63-1.18-1.8-2.3-3.51-3.35l-14.18-8.9c-1.11-.7-2.2-1.52-3.28-2.45-1.08-.93-2.04-1.96-2.87-3.09s-1.51-2.35-2.04-3.66c-.53-1.31-.79-2.66-.79-4.07-.05-2.41.48-4.6,1.58-6.56,1.1-1.96,2.56-3.63,4.37-5.01,1.81-1.38,3.87-2.45,6.18-3.2,2.31-.75,4.67-1.13,7.09-1.13M216.56,0c-2.56,0-5.1.41-7.55,1.2-2.46.8-4.69,1.96-6.63,3.44-1.97,1.51-3.57,3.35-4.77,5.47-1.23,2.19-1.83,4.65-1.78,7.33,0,1.56.3,3.12.9,4.6.57,1.42,1.32,2.76,2.22,3.98.9,1.22,1.94,2.35,3.1,3.34,1.12.97,2.29,1.84,3.45,2.58l14.18,8.9c1.48.91,2.48,1.85,2.98,2.79.5.94.75,1.84.73,2.65-.02.84-.2,1.56-.56,2.21-.47.85-.86,1.26-1.1,1.45-.71.58-1.56,1.02-2.54,1.32-1.03.31-2.15.46-3.3.46s-2.33-.16-3.44-.47c-1.1-.31-2.11-.75-2.98-1.32-1.31-.84-2.55-1.88-3.68-3.09-1.18-1.25-2.28-2.49-3.27-3.68-1.07-1.41-2.08-2.86-3-4.32l-2.77-4.37v24.64l1.84-.43,4.4-1.03c.55.19,1.27.41,2.19.67,1.17.34,2.48.64,3.88.9,1.38.26,2.81.49,4.25.69,1.5.21,2.85.32,4.02.32,3.6,0,6.8-.57,9.51-1.7,2.72-1.13,5-2.62,6.79-4.44,1.8-1.83,3.14-3.93,3.96-6.24.82-2.3,1.14-4.65.95-6.96-.19-2.32-.89-4.55-2.08-6.62-1.21-2.1-2.95-3.84-5.17-5.18l-15.36-9.56c-2.46-1.5-4.03-2.96-4.68-4.34-.6-1.27-.7-2.36-.31-3.32.42-1.04,1.21-1.87,2.4-2.54,1.27-.71,2.64-1.05,4.21-1.05,1.23,0,2.54.32,3.89.95,1.45.68,2.88,1.55,4.25,2.59,1.39,1.06,2.71,2.21,3.92,3.41,1.22,1.22,2.26,2.33,3.08,3.3l2.64,3.1V1.51h-1.5c-.23,0-.36.02-1.44.31-.63.17-1.34.34-2.12.51-.85.19-1.6.36-2.28.54-.21.06-.38.1-.51.13-1.6-1.04-3.34-1.8-5.19-2.28-1.87-.48-3.8-.73-5.73-.73h0Z"/>
    </g>
  </g>
</svg>