<?xml version="1.0" encoding="UTF-8"?>
<svg id="Livello_2" data-name="Livello 2" xmlns="http://www.w3.org/2000/svg" viewBox="0 0 515.73 344.08">
  <defs>
    <style>
      .cls-1 {
        fill: #1d1d1b;
      }

      .cls-1, .cls-2 {
        stroke-width: 0px;
      }

      .cls-2 {
        fill: #fff;
      }
    </style>
  </defs>
  <g id="Livello_1-2" data-name="Livello 1">
    <g>
      <g>
        <path class="cls-2" d="M511.62,15.17s-1.98-8.29-10.42-8.76c-2.53-.15-4.7-.45-6.51-.82-6.28-1.25-12.67-2.03-19.08-2.09l-93.44,5.09s-37.94,1.28-84.87,9.28c-40.64,6.91-78.16,18.17-121.3,39.36l-85.32,45.61-50.32,27.77h0s-22.4,10.7-21.82,15.77c.6,5.07-.23,7.68-.23,7.68l-9.99,7.37c-2.14,1.57-3.78,3.78-4.48,6.35-.54,1.96-.57,4.23.87,6.26,3.46,4.89,8.24,9.74,15.94,8.07,9.84-2.14,15.26-9.71,15.26-9.71,0,0,12.85,6.89,26.63,4.31,13.78-2.6,52.95-16.59,52.95-16.59l110.09-29.86,1.92,3.67c3.06,5.86,9.93,8.62,16.19,6.51,4.4-1.48,7.51-5.01,8.66-9.14.77-2.76.67-5.79-.5-8.66l-.4-.98s62.98-28.52,97.32-46.01c0,0,39.61-20.03,83.99-31.24,27.34-6.9,39.79-11.46,45.32-13.92,2.96-1.34,6.34-1.33,9.3,0l6.09,2.72s11.11,3.37,15.81-.95c4.68-4.32,2.35-17.07,2.35-17.07ZM207.94,75.27c-1.75-4,10.51-13.21,27.37-20.58,16.87-7.36,31.95-10.09,33.69-6.1,1.75,4.01-10.5,13.22-27.37,20.58-16.87,7.36-31.94,10.1-33.69,6.1Z"/>
        <path class="cls-2" d="M515.06,14.53c0-.06-.02-.12-.03-.19-.9-3.74-4.89-10.94-13.63-11.44-2.11-.12-4.12-.37-6.01-.75-6.96-1.39-13.42-2.1-19.74-2.16-.07,0-.15,0-.22.01l-93.36,5.09c-.38,0-38.72,1.38-85.33,9.31-43.93,7.48-81.64,19.72-122.26,39.67-.03.01-.07.03-.11.05l-85.35,45.63-50.25,27.72c-.79.38-6.05,2.93-11.32,6.09-9.23,5.52-12.81,9.35-12.36,13.2.29,2.5.19,4.27.07,5.27l-8.91,6.55c-2.85,2.1-4.9,5.03-5.78,8.25-.93,3.43-.45,6.61,1.39,9.21,2.52,3.57,6.2,7.82,11.59,9.32,2.31.64,4.95.79,7.95.13,7.58-1.64,12.82-6.09,15.44-8.84,4.69,2,15.16,5.56,26.36,3.46,13.63-2.57,50.44-15.65,53.35-16.69l107.24-29.09.62,1.17c3.88,7.43,12.46,10.88,20.41,8.21,4.41-1.48,8.05-4.76,9.99-9,1.62-3.53,1.96-7.51,1.01-11.24,12.83-5.83,64.74-29.56,94.54-44.74.4-.2,39.8-20,83.26-30.97,27.18-6.87,39.97-11.47,45.9-14.13,2.05-.91,4.4-.91,6.46,0l6.09,2.72c.13.06.27.12.4.15,1.34.41,13.21,3.79,19.19-1.73,5.81-5.36,3.87-17.83,3.42-20.27ZM311.22,90.06c-.08.04-.16.08-.24.12-10.2,4.84-20.48,9.64-29.61,13.87-17.69,8.2-31.09,14.28-31.38,14.4-.83.38-1.46,1.06-1.78,1.85-.34.82-.38,1.77-.02,2.66l.4.97c.84,2.07.96,4.29.38,6.39h0c-.14.51-.32,1.01-.54,1.5-1.16,2.52-3.24,4.39-5.86,5.28-4.66,1.57-9.69-.46-11.98-4.81l-1.92-3.67c-.76-1.46-2.43-2.19-4.01-1.76l-110.09,29.87c-.09.02-.18.04-.26.07-.39.14-39.07,13.94-52.42,16.45-12.34,2.31-24.21-3.89-24.32-3.95-1.54-.82-3.47-.37-4.49,1.03-.05.07-4.85,6.54-13.17,8.34-4.69,1.02-8.26-.91-12.34-6.66-.39-.55-.85-1.49-.35-3.33.46-1.7,1.59-3.28,3.18-4.45l1.1-.81h0s6.18-4.56,6.18-4.56l2.72-2c.59-.44,1.03-1.05,1.26-1.76.02-.09.1-.32.18-.74.27-1.24.67-3.94.24-8,1.32-2.33,10.37-8.11,19.8-12.63.06-.03.12-.06.18-.09l50.29-27.74,85.26-45.59c39.98-19.63,77.07-31.67,120.29-39.03,46.13-7.85,84.02-9.2,84.48-9.22l93.31-5.1c2.08.02,4.18.12,6.31.31,3.86.31,7.83.88,12.01,1.72,2.21.45,4.57.74,7,.88,5.4.3,6.96,5.19,7.19,6.01.78,4.4.9,11.72-1.3,13.75-1.55,1.44-5.3,1.48-8.68.99h0c-1.17-.17-2.28-.41-3.25-.67l-.27-.08-5.88-2.63c-3.87-1.73-8.3-1.73-12.16,0-5.68,2.55-18.06,6.99-44.75,13.73-44.24,11.17-84.31,31.32-84.72,31.52-10.2,5.19-23.01,11.4-35.95,17.54Z"/>
      </g>
      <g>
        <path class="cls-1" d="M487.11,15.9c-.37.1-.74.18-1.1.22-2.92.36-5.84.72-8.76,1.09-1.15.14-2.31.29-3.37.75-1.72.77-3.57,2.37-5.18,1.41-.83-.5-1.2-1.54-2.01-2.06-1.18-.78-2.83-.13-3.81.89s-1.56,2.37-2.51,3.42c-2.13,2.41-5.61,2.95-8.81,3.36-.54-1.54,1.5-2.72,2.01-4.27.45-1.43-.56-3-1.91-3.69-1.34-.67-2.91-.7-4.42-.69-.96,0-1.97.02-2.75.57-.82.58-1.17,1.6-1.47,2.57-1.28,4.02-2.57,8.06-3.85,12.09-1.36-1.61-.19-4,.43-6.02.64-2.02.6-4.33-.45-6.18-1.05-1.84-3.25-3.08-5.33-2.65-2.08.42-3.67,2.75-3.01,4.77.39,1.19,1.43,2.12,1.62,3.37.3,2.11-1.9,3.62-3.81,4.59-.01-3.31-1.1-6.62-3.07-9.29-.28-.38-.59-.76-1.03-.93-.79-.3-1.65.16-2.5.25-1.4.13-2.64-.82-3.96-1.29-1.32-.47-3.27-.08-3.39,1.32-.09.96.77,1.71,1.49,2.35,2.16,1.88,3.89,4.28,4.98,6.94-3.82.94-8.18-1.14-9.87-4.69-.94-1.96-1.35-4.54-3.35-5.41-2.52,1.2-3.08,4.45-3.76,7.16-.68,2.71-2.68,5.82-5.43,5.28-1.04-1.96-.11-4.38,1.12-6.22,1.23-1.85,2.8-3.6,3.14-5.79.12-.84-.08-1.89-.87-2.17-.48-.17-1.01,0-1.48.18-2.7.99-5.39,1.98-8.08,2.96-.45.17-.93.34-1.25.69-.45.5-.54,1.22-.67,1.88-.38,1.87-1.4,3.6-2.83,4.84,1.13.97,1.48,2.76.8,4.09-.68,1.34-2.33,2.1-3.79,1.75-.38-.09-.78-.27-.97-.6-.42-.7.15-1.54.62-2.19,1.79-2.44,2.68-5.52,2.44-8.55-.03-.51-.12-1.06-.46-1.45-.39-.46-1.04-.59-1.63-.7-3.59-.66-8.27-.81-9.83,2.49,2.38-.08,4.17,3.04,2.89,5.05-1.05,1.64-3.32,2.09-4.48,3.66-.96,1.28-.95,3.01-.92,4.61.02,1.59-.02,3.34-1.02,4.58-1.01,1.24-3.37,1.4-4-.07-.55-1.31.55-2.65,1.44-3.74,2.19-2.7,3.54-6.06,3.83-9.52-1.03-1.24-2.51-2.12-4.1-2.42-.79,1.33-1.64,2.72-2.97,3.51s-3.29.75-4.2-.52c-.66-.94-.79-2.48-1.92-2.72-.56-.11-1.11.19-1.6.48-2.27,1.33-4.65,2.78-5.82,5.15-1.15,2.36-.38,5.84,2.15,6.57-.66,2.52-2.88,4.55-5.44,5-2.9-3.37-4.93-7.49-5.83-11.84-.19-.95-.4-1.99-1.17-2.56-.51-.38-1.16-.47-1.78-.55-2.09-.26-4.3-.26-6.38-.52,1.5,4.76,1.78,9.88.81,14.77-1.57-3.07-.18-6.99-1.59-10.14-1.45-3.23-5.25-4.55-8.65-5.54-2.01-.58-4.04-1.16-6.12-1.24-3.16-.11-6.24.93-9.38,1.02-1.78.05-3.55-.2-5.32-.18-1.82.02-3.62.31-5.41.6-3.85.63-7.7,1.26-11.55,1.89-4.69.76-9.37,1.53-14.01,2.47-14.01,2.85-27.68,7.35-40.64,13.38-4.46,2.08-8.89,4.35-12.7,7.47-2.06,1.69-3.94,3.62-6.17,5.06-4.21,2.73-9.36,4.52-12.08,8.74-2.3,3.56-4.47,8.19-8.48,6.8-.56-.2-1.1-.51-1.71-.51-.82,0-1.53.57-2.17,1.09-5.34,4.3-11.98,6.98-18.82,7.57,1.19,1.77-1.45,3.59-3.51,4.12-3.58.89-7.15,1.8-10.73,2.7,2.03,1.6.39,5.11-2,6.13-2.39,1.02-5.16.72-7.59,1.62-4.42,1.64-6.49,6.65-7.77,11.2-1.7-1.31-3.4-2.62-5.1-3.93-.46-.36-.95-.72-1.52-.79-.67-.07-1.32.27-1.91.6-3.53,1.97-7.05,3.96-10.58,5.94,3.63,1.45,5.46,6.27,3.69,9.75-3.99-1.15-6.97-4.48-10.77-6.15-3.79-1.67-9.63-.4-9.93,3.73,3.84.73,7.47,2.59,10.28,5.31-1.43,3.12-1.66,6.78-.65,10.07-2.59-.05-2.44-3.98-3.73-6.23-2.74-4.75-10.92-.45-15.32-3.74,2.43,2.12,4.23,4.95,5.13,8.04-3.97.12-7.71-1.84-11.65-2.25-3.95-.42-8.87,1.87-8.72,5.83,2.49,1.53,2.83,5.59.65,7.52-.88-3.04-4.16-4.88-7.32-5.03-1.13-.07-2.25.05-3.35.28-.9-.47-1.85-.85-2.86-1.13-7.91-2.2-16.1,2.42-18.3,10.33-.02.09-.05.17-.06.25-2.77,1.98-4.93,4.55-4.74,7.81-1.94-1.16-4.27-1.66-6.52-1.37,3.98,5.52,8.73,10.49,14.09,14.7-7.27-.89-14.2-4.28-19.37-9.46-1.37-1.38-2.59-2.48-4.23-3.25-.34-.17-.68-.3-1.06-.44.11-.27.23-.53.36-.78,1.31-2.46,3.91-4.07,6.35-5.51,53.61-31.46,108.37-60.96,164.14-88.43,6.51-3.2,17.89-9.43,24.59-12.22,38.02-15.79,81.46-24.33,126.72-28.02,22.62-1.85,45.65-2,68.32-2.71,24.19-.74,48.38-1.22,72.58-1.4.93-.01,1.85-.02,2.78-.02.43,1.57-1.26,2.61-2.96,3.07Z"/>
        <path class="cls-1" d="M67.29,134.47c-.9-.47-1.85-.85-2.86-1.13-7.91-2.2-16.1,2.42-18.3,10.33-.02.09-.05.17-.06.25-2.04,7.82,2.57,15.86,10.39,18.04s16.09-2.42,18.29-10.32c1.92-6.9-1.35-14.01-7.45-17.17ZM57.53,158.11c-5.67-1.58-9.08-7.49-7.59-13.17l.05-.21v-.04c1.66-5.75,7.63-9.09,13.37-7.49.72.2,1.42.48,2.08.83,4.53,2.34,6.82,7.62,5.45,12.54-1.61,5.76-7.6,9.14-13.36,7.54ZM67.29,134.47c-.9-.47-1.85-.85-2.86-1.13-7.91-2.2-16.1,2.42-18.3,10.33-.02.09-.05.17-.06.25-2.04,7.82,2.57,15.86,10.39,18.04s16.09-2.42,18.29-10.32c1.92-6.9-1.35-14.01-7.45-17.17ZM57.53,158.11c-5.67-1.58-9.08-7.49-7.59-13.17l.05-.21v-.04c1.66-5.75,7.63-9.09,13.37-7.49.72.2,1.42.48,2.08.83,4.53,2.34,6.82,7.62,5.45,12.54-1.61,5.76-7.6,9.14-13.36,7.54ZM67.29,134.47c-.9-.47-1.85-.85-2.86-1.13-7.91-2.2-16.1,2.42-18.3,10.33-.02.09-.05.17-.06.25-2.04,7.82,2.57,15.86,10.39,18.04s16.09-2.42,18.29-10.32c1.92-6.9-1.35-14.01-7.45-17.17ZM57.53,158.11c-5.67-1.58-9.08-7.49-7.59-13.17l.05-.21v-.04c1.66-5.75,7.63-9.09,13.37-7.49.72.2,1.42.48,2.08.83,4.53,2.34,6.82,7.62,5.45,12.54-1.61,5.76-7.6,9.14-13.36,7.54ZM67.29,134.47c-.9-.47-1.85-.85-2.86-1.13-7.91-2.2-16.1,2.42-18.3,10.33-.02.09-.05.17-.06.25-2.04,7.82,2.57,15.86,10.39,18.04s16.09-2.42,18.29-10.32c1.92-6.9-1.35-14.01-7.45-17.17ZM57.53,158.11c-5.67-1.58-9.08-7.49-7.59-13.17l.05-.21v-.04c1.66-5.75,7.63-9.09,13.37-7.49.72.2,1.42.48,2.08.83,4.53,2.34,6.82,7.62,5.45,12.54-1.61,5.76-7.6,9.14-13.36,7.54ZM492.04,13.68s0-.03,0-.05c-.11-1.17-.6-2.27-1.43-3.16-.29-.31-.6-.59-.96-.85-.89-.64-2.01-1.14-3.43-1.54-1.15-.32-2.55-.59-4.22-.78-3.15-.39-7.24-.57-12.36-.53-55.86.37-131.34,5.81-132.1,5.87h-.04s-.03,0-.03,0c-.68.06-68.83,6.39-121.6,28.6-52.41,22.07-126.87,64.01-127.61,64.43l-.04.02-.04.02-56.31,33.18c-5.27,2.56-13.52,7.68-10.98,13.77l.03.06.02.05c.08.19.19.37.28.53.19.33.39.69.62,1.08,0,.01.02.04.03.05.42.72.86,1.41,1.32,2.08.6.87,1.21,1.7,1.85,2.48,2.29,2.81,4.89,5.04,7.78,6.69.94.54,1.91,1.02,2.91,1.42h0c.95.41,1.94.75,2.95,1.03.15.04.31.08.47.12l.11.03.1.02c2.17.44,21.4,4.21,29.5,1.4,31.53-10.94,74.68-23.48,76.38-23.98,1.86-.49,49.43-12.98,81.8-22.43.98-.29,1.95-.57,2.91-.85,5.47-1.61,10.42-3.12,14.54-4.44.56-.18,1.09-.35,1.62-.52l1.23-.4c11.99-3.96,22.27-7.88,34.03-13.03,8.65-3.78,18.09-8.23,29.61-13.87.08-.04.16-.08.24-.12,8.99-4.4,19.24-9.52,31.36-15.59,49.39-24.79,92.86-34.81,93.3-34.91h.1s.09-.04.09-.04c6.04-1.68,31.23-8.84,45.39-15.55,1.24-.59,2.39-1.17,3.45-1.75,2.22-1.21,3.97-2.39,5.07-3.51,1.53-1.58,2.23-3.26,2.08-5.03ZM435,35.67s-31.2,7.06-71.3,24.52c-7.38,3.21-15.06,6.78-22.91,10.71-6.3,3.16-12.1,6.06-17.47,8.73-.16.08-.31.15-.46.23-6.52,3.25-12.41,6.15-17.82,8.77-.55.27-1.09.54-1.64.8-24.39,11.8-38.91,17.84-58.46,24.25l-.08.02c-.47.15-.94.31-1.43.46-28.83,9.27-99.26,27.73-99.26,27.73,0,0-8.15,2.36-20.04,5.95,0,0-.01,0-.02.01-15.75,4.75-38.05,11.67-56.55,18.09-7.31,2.53-27.39-1.54-27.39-1.54-.14-.04-.28-.07-.41-.1-7.98-2.22-12.28-8.22-14.48-11.93-.22-.36-.42-.71-.59-1.02-.03-.06-.08-.14-.11-.21-1.49-3.57,9.17-8.71,9.17-8.71l56.45-33.27s74.39-41.99,127.2-64.23c52.81-22.23,120.41-28.3,120.41-28.3,0,0,75.46-5.49,131.83-5.86,7.73-.05,12.68.39,15.47,1.17.97.27,1.68.58,2.16.92,1.14.83.96,1.87-.18,3.04-7.16,7.29-52.12,19.76-52.12,19.76ZM67.29,134.47c-.9-.47-1.85-.85-2.86-1.13-7.91-2.2-16.1,2.42-18.3,10.33-.02.09-.05.17-.06.25-2.04,7.82,2.57,15.86,10.39,18.04s16.09-2.42,18.29-10.32c1.92-6.9-1.35-14.01-7.45-17.17ZM57.53,158.11c-5.67-1.58-9.08-7.49-7.59-13.17l.05-.21v-.04c1.66-5.75,7.63-9.09,13.37-7.49.72.2,1.42.48,2.08.83,4.53,2.34,6.82,7.62,5.45,12.54-1.61,5.76-7.6,9.14-13.36,7.54Z"/>
        <path class="cls-1" d="M317.22,28.57s-25.32-1.43-56.94,8.24c-31.64,9.67-44.95,20.06-53.79,27.24-3.87,3.15-7.41,10.34-6.54,12.95,1.21,3.65,4.09,4.67,8.18,4.84,3.83.15,10.25-.31,20.67-2.77,17.65-4.17,37.98-12.93,44.14-15.68,1.1-.49,10.7-4.82,11.78-5.38,4.63-2.41,13-6.51,30.99-15.41,28.34-14.02,1.5-14.04,1.5-14.04ZM271.79,55.72s-15.36,10.79-30,16.46c-13.7,5.3-16.7,6.29-29.02,8.32-2.34.39-4.76.22-6.97-.65-.08-.02-.14-.05-.22-.08-1.87-.77-3.16-2.62-3.11-4.64.03-.85.23-1.84.74-2.95,3.94-8.67,34.99-22.1,34.99-22.1,0,0,17.8-6.19,26.07-7,9.23-.9,12.41-.56,14.15,2.94,1.73,3.5-6.63,9.71-6.63,9.71Z"/>
        <path class="cls-1" d="M68.5,150.68c-1.37,4.93-6.49,7.81-11.41,6.44s-7.82-6.49-6.45-11.41c.47-1.69,1.38-3.14,2.58-4.27,0,0,.01,0,.01-.01,1.48-1.37,3.37-2.24,5.39-2.45,1.12-.12,2.28-.03,3.43.29,4.93,1.37,7.81,6.49,6.44,11.42Z"/>
        <circle class="cls-1" cx="119.22" cy="141.34" r="4.08"/>
        <path class="cls-1" d="M236.82,136.58c-2.52-.7-4.76-2.36-6.11-4.76l-.07-.14-4.09-9.53,2.76-1.18,4.06,9.45c1.73,3,5.46,4.32,8.69,3.07,3.3-1.27,5.18-4.82,4.37-8.27l-3-11.14,2.9-.78,3.01,11.19c1.17,4.94-1.5,10-6.2,11.8-2.07.79-4.28.85-6.31.29Z"/>
        <path class="cls-1" d="M16.69,178c-2.55-.71-4.62-2.43-5.76-4.79-.12-.25-.23-.5-.33-.77-1.78-4.64.14-9.98,4.47-12.42l.14-.07,9.53-4.09,1.18,2.76-9.45,4.06c-3,1.73-4.32,5.46-3.07,8.69.07.19.15.36.23.54.83,1.72,2.4,2.92,4.33,3.32,2.05.42,4.2-.15,5.76-1.53l11.01-9.68,1.98,2.25-11.01,9.68c-2.26,1.99-5.38,2.82-8.34,2.21-.23-.05-.45-.1-.67-.16Z"/>
        <path class="cls-1" d="M495.89,30.29c-.45-.13-.89-.28-1.32-.48l-13.39-5.97,1.22-2.74,13.39,5.97c1.89.85,4.12.75,5.95-.25,1.72-.94,2.87-2.57,3.14-4.45.03-.19.05-.39.06-.59.22-3.46-2.17-6.63-5.52-7.38l-10.23-1.07.31-2.98,10.47,1.1c4.84,1.04,8.28,5.57,7.96,10.53-.02.28-.05.56-.09.83-.42,2.82-2.12,5.24-4.67,6.64-2.23,1.23-4.87,1.52-7.3.84Z"/>
        <path class="cls-1" d="M133.33,127.37c-.11.04-.2.1-.31.14-.57.27-1.13.53-1.7.8,0,0,0,0-.01,0-.54.56-1.08,1.11-1.6,1.67.18-.09.36-.19.56-.28,0,0,.01-.02.02-.01.16-.11.31-.22.48-.33.57-.39,1.13-.78,1.71-1.17h.01c.65-.45,1.31-.89,1.96-1.32-.38.15-.76.33-1.12.5ZM191.36,74.59c-40.41,12.06-69.5,59.36-69.79,59.84l-1.74,2.87-2.38,3.91,4.16-3.17,2.15-1.63c9.48-7.23,22.5-10.82,32.01-13.43,3.16-.87,5.88-1.62,8.07-2.38,3.29-1.15,6.28-3.01,8.64-5.4,3.17-3.21,7.55-8.86,10.44-17.62,4.91-14.87,9.92-20.47,9.97-20.53l3.7-4.01-5.23,1.56ZM180.07,96.63c-2.71,8.2-6.79,13.47-9.72,16.45-2.04,2.07-4.63,3.68-7.49,4.67-2.09.73-4.77,1.47-7.88,2.33-3.82,1.05-8.22,2.26-12.73,3.79-.01,0-.02.01-.03.01-.7.24-1.41.48-2.11.73t-.02.01c-1.05.39-2.09.79-3.14,1.2,0,0,0,0-.01,0-.8.32-1.6.64-2.39.99-.02.01-.06.03-.08.04-.38.15-.76.33-1.12.5-.11.04-.2.1-.31.14-.57.27-1.13.53-1.7.8,0,0,0,0-.01,0-.11.05-.23.11-.34.18h-.01c-.16.08-.33.16-.49.24h-.01c-.57.29-1.13.6-1.69.91h0c-.1.04-.18.09-.27.15-.11.05-.21.11-.31.16.15-.21.29-.42.46-.63,1.3-1.83,2.87-3.96,4.68-6.29,0,0,0-.02.02-.03,10.85-13.93,30.48-35.23,54.59-44.12-2.04,3.33-4.96,8.99-7.85,17.73ZM133.33,127.37c-.11.04-.2.1-.31.14-.57.27-1.13.53-1.7.8,0,0,0,0-.01,0-.54.56-1.08,1.11-1.6,1.67.18-.09.36-.19.56-.28,0,0,.01-.02.02-.01.16-.11.31-.22.48-.33.57-.39,1.13-.78,1.71-1.17h.01c.65-.45,1.31-.89,1.96-1.32-.38.15-.76.33-1.12.5Z"/>
        <path class="cls-1" d="M126.12,131.1c4.07-4.73,8.28-9.32,12.62-13.8,4.32-4.5,8.79-8.84,13.4-13.04,2.28-2.12,4.65-4.15,7.02-6.18,2.43-1.95,4.82-3.96,7.36-5.78,5.03-3.66,10.29-7.16,16.11-9.42l-4.15,2.12-3.96,2.45c-2.57,1.73-5.11,3.52-7.54,5.45-4.91,3.79-9.58,7.9-14.13,12.12-4.55,4.23-8.96,8.6-13.29,13.07-4.3,4.48-8.58,9-12.68,13.66l-.76-.65Z"/>
        <path class="cls-1" d="M127.04,131.34c8.23-8.96,16.9-17.5,26.07-25.5,9.19-7.85,18.75-15.87,30.09-20.38,0,0-4.08,2.02-4.08,2.02-14.36,8.48-26.63,20.06-38.59,31.57-4.32,4.26-8.61,8.55-12.75,12.96,0,0-.74-.68-.74-.68h0Z"/>
        <path class="cls-1" d="M128.48,130.75c13.01-13.16,33.93-33.02,51.25-39.1,0,0-3.68,1.67-3.68,1.67-13.03,7.08-24.26,17.01-35.19,26.93-3.94,3.67-7.87,7.37-11.66,11.19l-.72-.69h0Z"/>
        <path class="cls-1" d="M127.1,132.03c7.51-6.98,15.37-13.57,23.61-19.67,8.25-5.97,16.83-12.07,26.67-15.05,0,0-3.55,1.44-3.55,1.44-12.59,6.23-23.65,15.13-34.47,23.99-3.91,3.28-7.8,6.6-11.59,10.02l-.68-.73h0Z"/>
        <path class="cls-1" d="M128.82,131c6.9-5.88,14.12-11.36,21.69-16.35,7.56-4.88,15.47-9.79,24.34-11.83,0,0-3.2,1.09-3.2,1.09-11.43,4.82-21.61,12.14-31.53,19.5-3.59,2.73-7.17,5.48-10.64,8.35l-.65-.76h0Z"/>
        <path class="cls-1" d="M126.88,132.1c6.92-4.98,14.1-9.58,21.56-13.71,7.44-4.03,15.22-8.09,23.67-9.39,0,0-3.08.81-3.08.81-11.04,3.79-21.11,9.93-30.96,16.08-3.57,2.29-7.14,4.6-10.61,7.02l-.58-.81h0Z"/>
        <path class="cls-1" d="M124.63,131.55c6.44-3.68,13.07-7,19.91-9.87,6.81-2.79,13.92-5.58,21.36-5.87-10.96,1.72-21.02,6.83-30.95,11.54-3.29,1.65-6.59,3.32-9.82,5.08,0,0-.49-.87-.49-.87h0Z"/>
      </g>
    </g>
    <g>
      <g>
        <path class="cls-2" d="M493.8,28.92s-2.89-8.01-11.33-7.55c-2.53.14-4.72.08-6.56-.09-6.38-.55-12.82-.61-19.19.04l-92.29,15.43s-37.56,5.48-83.31,18.64c-39.62,11.38-75.66,26.73-116.18,52.58l-79.73,54.8-46.93,33.18h0s-21.08,13.12-19.93,18.09c1.16,4.97.62,7.66.62,7.66l-9.12,8.43c-1.95,1.8-3.34,4.18-3.75,6.81-.31,2.01-.09,4.27,1.56,6.13,3.99,4.47,9.27,8.76,16.74,6.25,9.54-3.22,14.09-11.34,14.09-11.34,0,0,13.54,5.42,26.94,1.33,13.41-4.11,50.78-22.37,50.78-22.37l106.09-41.89,2.31,3.43c3.69,5.48,10.83,7.47,16.81,4.68,4.21-1.96,6.91-5.81,7.59-10.04.46-2.83.02-5.83-1.46-8.55l-.51-.93s59.42-35.33,91.62-56.53c0,0,37.14-24.3,80-40.37,26.4-9.9,38.27-15.8,43.5-18.87,2.79-1.66,6.15-2.02,9.24-1.04l6.36,2.02s11.42,2.11,15.6-2.7c4.17-4.81.44-17.22.44-17.22ZM198.66,122.36c-2.18-3.78,8.98-14.3,24.92-23.49,15.94-9.19,30.64-13.58,32.81-9.8,2.18,3.79-8.97,14.3-24.92,23.49-15.94,9.19-30.63,13.58-32.81,9.8Z"/>
        <path class="cls-2" d="M497.15,27.91c-.01-.06-.03-.12-.05-.18-1.31-3.62-6.08-10.33-14.81-9.86-2.11.11-4.14.09-6.06-.08-7.07-.61-13.57-.6-19.86.04-.07,0-.14.02-.22.04l-92.22,15.42c-.37.05-38.33,5.66-83.77,18.73-42.83,12.31-78.95,28.65-117.1,53-.03.01-.07.04-.1.06l-79.76,54.82-46.86,33.12c-.74.47-5.69,3.59-10.58,7.31-8.56,6.51-11.69,10.72-10.82,14.49.57,2.45.66,4.22.65,5.23l-8.12,7.5c-2.6,2.41-4.31,5.54-4.83,8.84-.55,3.51.28,6.62,2.4,9,2.91,3.27,7.03,7.08,12.56,7.98,2.37.38,5.01.23,7.91-.75,7.35-2.47,12.06-7.48,14.36-10.5,4.89,1.47,15.69,3.85,26.58.52,13.26-4.06,48.4-21.15,51.17-22.51l103.35-40.81.74,1.09c4.68,6.96,13.59,9.43,21.19,5.89,4.22-1.96,7.48-5.63,8.93-10.05,1.21-3.68,1.11-7.68-.25-11.29,12.1-7.22,61.06-36.57,88.99-54.96.37-.24,37.33-24.29,79.31-40.02,26.25-9.84,38.45-15.84,44.05-19.13,1.94-1.13,4.27-1.4,6.42-.71l6.36,2.02c.14.04.28.09.42.11,1.38.26,13.55,2.3,18.88-3.85,5.18-5.97,1.87-18.15,1.15-20.52ZM302.95,125.59c-.08.05-.15.1-.23.15-9.6,5.94-19.28,11.85-27.89,17.07-16.67,10.11-29.32,17.64-29.59,17.8-.79.47-1.33,1.21-1.57,2.04-.25.85-.18,1.8.28,2.65l.51.92c1.07,1.97,1.43,4.15,1.09,6.3h0c-.08.52-.21,1.04-.37,1.55-.87,2.63-2.73,4.72-5.24,5.9-4.46,2.07-9.68.62-12.44-3.45l-2.31-3.43c-.91-1.36-2.66-1.91-4.19-1.31l-106.1,41.9c-.09.03-.17.06-.25.1-.37.18-37.28,18.19-50.27,22.17-12.01,3.67-24.5-1.18-24.61-1.23-1.62-.65-3.49.01-4.35,1.52-.04.07-4.1,7.04-12.17,9.75-4.54,1.53-8.31.01-13-5.25-.44-.51-1.01-1.39-.72-3.27.27-1.74,1.22-3.44,2.67-4.77l1-.92h0s5.63-5.22,5.63-5.22l2.48-2.29c.54-.5.91-1.16,1.06-1.89.01-.09.06-.33.1-.75.13-1.26.23-3.99-.65-7.98,1.06-2.46,9.4-9.21,18.27-14.75.06-.03.11-.07.17-.11l46.9-33.15,79.67-54.76c37.55-23.94,73.08-40.03,115.22-52.14,44.98-12.92,82.48-18.47,82.93-18.54l92.17-15.42c2.07-.21,4.17-.35,6.3-.4,3.87-.12,7.88.01,12.13.37,2.25.2,4.62.23,7.05.1,5.4-.3,7.5,4.38,7.81,5.18,1.26,4.29,2.19,11.55.24,13.81-1.38,1.6-5.11,2.06-8.52,1.94h0c-1.18-.04-2.32-.15-3.3-.3l-.28-.04-6.14-1.96c-4.04-1.29-8.44-.8-12.09,1.34-5.36,3.16-17.17,8.95-42.95,18.61-42.73,16.01-80.32,40.48-80.7,40.73-9.56,6.29-21.6,13.89-33.78,21.42Z"/>
      </g>
      <g>
        <path class="cls-1" d="M469.52,32.37c-.36.14-.72.26-1.07.34-2.87.68-5.72,1.36-8.59,2.05-1.13.26-2.27.54-3.26,1.12-1.62.95-3.28,2.75-4.99,1.98-.88-.41-1.36-1.4-2.23-1.82-1.26-.64-2.83.18-3.69,1.31s-1.29,2.53-2.12,3.68c-1.85,2.63-5.25,3.56-8.38,4.32-.7-1.47,1.19-2.87,1.52-4.46.29-1.47-.89-2.92-2.31-3.45-1.4-.52-2.97-.37-4.47-.2-.95.11-1.95.24-2.67.87-.75.67-.99,1.72-1.18,2.72-.82,4.14-1.66,8.29-2.48,12.44-1.53-1.45-.64-3.95-.24-6.04.41-2.08.12-4.37-1.13-6.09-1.25-1.71-3.57-2.7-5.6-2.04-2.02.65-3.34,3.14-2.46,5.07.51,1.14,1.66,1.95,1.98,3.17.54,2.06-1.49,3.81-3.28,4.98-.38-3.29-1.83-6.46-4.08-8.89-.32-.35-.67-.69-1.12-.81-.82-.21-1.63.34-2.46.52-1.37.28-2.71-.52-4.08-.84-1.37-.32-3.26.28-3.22,1.69.02.96.95,1.61,1.75,2.17,2.36,1.63,4.34,3.82,5.72,6.35-3.69,1.36-8.25-.22-10.33-3.57-1.15-1.85-1.85-4.36-3.93-5-2.38,1.47-2.56,4.76-2.94,7.54-.38,2.77-2.02,6.09-4.81,5.85-1.25-1.83-.59-4.34.42-6.3,1.02-1.97,2.38-3.89,2.48-6.1.03-.85-.28-1.87-1.1-2.06-.5-.11-1,.12-1.45.34-2.57,1.29-5.14,2.56-7.7,3.84-.43.21-.88.44-1.17.82-.39.54-.4,1.27-.46,1.94-.17,1.9-.99,3.73-2.28,5.12,1.23.84,1.78,2.58,1.25,3.97-.53,1.4-2.08,2.35-3.57,2.16-.39-.04-.8-.18-1.03-.49-.49-.65-.02-1.54.37-2.25,1.51-2.62,2.05-5.79,1.48-8.77-.09-.5-.24-1.04-.62-1.39-.44-.42-1.1-.47-1.7-.52-3.65-.26-8.3.11-9.49,3.57,2.36-.35,4.48,2.56,3.43,4.7-.86,1.74-3.07,2.45-4.04,4.14-.81,1.38-.61,3.1-.4,4.69.2,1.58.35,3.32-.5,4.66-.87,1.35-3.19,1.76-3.98.38-.69-1.24.25-2.69,1.01-3.88,1.87-2.93,2.84-6.42,2.75-9.89-1.17-1.12-2.73-1.83-4.34-1.95-.64,1.41-1.33,2.88-2.56,3.82s-3.19,1.11-4.23-.05c-.76-.86-1.06-2.38-2.21-2.49-.57-.05-1.08.31-1.53.65-2.11,1.57-4.31,3.28-5.21,5.76-.89,2.47.27,5.85,2.86,6.29-.38,2.57-2.36,4.85-4.85,5.58-3.26-3.03-5.73-6.9-7.1-11.12-.3-.92-.62-1.93-1.44-2.41-.55-.32-1.2-.34-1.83-.35-2.1-.03-4.3.22-6.4.19,2.02,4.56,2.87,9.62,2.45,14.59-1.9-2.88-.96-6.92-2.7-9.9-1.8-3.05-5.72-3.94-9.21-4.54-2.06-.35-4.14-.7-6.22-.55-3.15.24-6.1,1.62-9.21,2.05-1.76.25-3.55.2-5.3.41-1.81.22-3.56.71-5.31,1.2-3.76,1.05-7.51,2.11-11.27,3.16-4.57,1.28-9.14,2.56-13.65,4.01-13.61,4.39-26.69,10.38-38.91,17.81-4.2,2.56-8.35,5.31-11.79,8.84-1.86,1.91-3.51,4.03-5.58,5.71-3.88,3.18-8.8,5.53-11.03,10.02-1.89,3.8-3.54,8.64-7.67,7.7-.58-.13-1.15-.38-1.75-.31-.82.09-1.46.74-2.04,1.32-4.83,4.87-11.14,8.27-17.87,9.62,1.38,1.63-1.04,3.73-3.04,4.48-3.46,1.28-6.91,2.58-10.36,3.87,2.2,1.37.96,5.04-1.31,6.31-2.26,1.27-5.05,1.29-7.37,2.45-4.21,2.12-5.72,7.33-6.48,12-1.83-1.12-3.67-2.23-5.51-3.34-.5-.3-1.03-.61-1.6-.61-.68,0-1.28.41-1.83.81-3.29,2.35-6.57,4.72-9.86,7.07,3.77,1.04,6.12,5.62,4.75,9.28-4.09-.7-7.43-3.68-11.39-4.91-3.95-1.24-9.61.67-9.45,4.81,3.89.3,7.71,1.75,10.81,4.13-1.08,3.26-.9,6.93.48,10.08-2.58.24-2.87-3.69-4.4-5.78-3.25-4.42-10.9.77-15.64-2.02,2.65,1.84,4.75,4.45,5.99,7.42-3.93.56-7.87-.97-11.83-.94-3.98.02-8.6,2.84-8.01,6.77,2.64,1.25,3.44,5.24,1.49,7.4-1.21-2.92-4.68-4.38-7.83-4.19-1.13.06-2.23.3-3.3.65-.94-.37-1.93-.64-2.97-.81-8.1-1.31-15.73,4.19-17.04,12.29-.01.09-.03.18-.03.26-2.54,2.27-4.4,5.07-3.85,8.29-2.06-.94-4.43-1.17-6.63-.64,4.57,5.05,9.84,9.46,15.63,13.05-7.32-.08-14.59-2.68-20.3-7.25-1.51-1.22-2.85-2.17-4.57-2.76-.35-.13-.71-.23-1.1-.32.08-.28.17-.55.27-.82,1.03-2.59,3.43-4.48,5.7-6.18,49.79-37.22,100.94-72.61,153.31-106.1,6.11-3.9,16.73-11.36,23.08-14.87,36.03-19.92,78.26-33.22,122.83-41.91,22.27-4.34,45.15-7.05,67.6-10.27,23.96-3.42,47.95-6.58,71.98-9.44.92-.11,1.84-.23,2.76-.33.61,1.52-.96,2.73-2.6,3.38Z"/>
        <path class="cls-1" d="M65.46,196.79c-.94-.37-1.93-.64-2.97-.81-8.1-1.31-15.73,4.19-17.04,12.29-.01.09-.03.18-.03.26-1.16,8,4.31,15.48,12.33,16.78s15.72-4.19,17.03-12.28c1.14-7.07-2.9-13.77-9.31-16.24ZM58.38,221.37c-5.81-.94-9.86-6.44-9.01-12.25l.03-.22v-.04c1.01-5.9,6.57-9.88,12.45-8.92.74.12,1.47.32,2.16.59,4.76,1.82,7.63,6.82,6.81,11.86-.96,5.9-6.54,9.93-12.45,8.98ZM65.46,196.79c-.94-.37-1.93-.64-2.97-.81-8.1-1.31-15.73,4.19-17.04,12.29-.01.09-.03.18-.03.26-1.16,8,4.31,15.48,12.33,16.78s15.72-4.19,17.03-12.28c1.14-7.07-2.9-13.77-9.31-16.24ZM58.38,221.37c-5.81-.94-9.86-6.44-9.01-12.25l.03-.22v-.04c1.01-5.9,6.57-9.88,12.45-8.92.74.12,1.47.32,2.16.59,4.76,1.82,7.63,6.82,6.81,11.86-.96,5.9-6.54,9.93-12.45,8.98ZM65.46,196.79c-.94-.37-1.93-.64-2.97-.81-8.1-1.31-15.73,4.19-17.04,12.29-.01.09-.03.18-.03.26-1.16,8,4.31,15.48,12.33,16.78s15.72-4.19,17.03-12.28c1.14-7.07-2.9-13.77-9.31-16.24ZM58.38,221.37c-5.81-.94-9.86-6.44-9.01-12.25l.03-.22v-.04c1.01-5.9,6.57-9.88,12.45-8.92.74.12,1.47.32,2.16.59,4.76,1.82,7.63,6.82,6.81,11.86-.96,5.9-6.54,9.93-12.45,8.98ZM65.46,196.79c-.94-.37-1.93-.64-2.97-.81-8.1-1.31-15.73,4.19-17.04,12.29-.01.09-.03.18-.03.26-1.16,8,4.31,15.48,12.33,16.78s15.72-4.19,17.03-12.28c1.14-7.07-2.9-13.77-9.31-16.24ZM58.38,221.37c-5.81-.94-9.86-6.44-9.01-12.25l.03-.22v-.04c1.01-5.9,6.57-9.88,12.45-8.92.74.12,1.47.32,2.16.59,4.76,1.82,7.63,6.82,6.81,11.86-.96,5.9-6.54,9.93-12.45,8.98ZM474.18,29.62s0-.03-.01-.05c-.24-1.15-.85-2.18-1.78-2.98-.32-.27-.66-.52-1.05-.74-.96-.54-2.12-.91-3.58-1.15-1.17-.19-2.6-.3-4.28-.31-3.17-.04-7.26.24-12.34.85-55.47,6.56-129.89,20.35-130.63,20.5h-.04s-.03,0-.03,0c-.67.13-67.7,13.98-117.68,41.92-49.64,27.75-118.98,77.69-119.67,78.19l-.03.02-.03.02-52.27,39.23c-4.95,3.13-12.58,9.14-9.38,14.9l.03.06.02.04c.1.18.23.35.33.5.22.31.46.64.74,1,0,.01.02.03.03.05.5.67,1.01,1.31,1.54,1.92.69.8,1.39,1.55,2.12,2.26,2.59,2.54,5.42,4.46,8.47,5.79.99.43,2.01.8,3.05,1.09h0c.99.3,2.01.53,3.05.7.16.03.32.04.49.07l.11.02h.1c2.21.2,21.73,1.81,29.47-1.88,30.13-14.37,71.61-31.63,73.25-32.3,1.79-.69,47.68-18.38,78.8-31.37.95-.39,1.88-.78,2.79-1.17,5.26-2.21,10.01-4.25,13.95-6.03.53-.24,1.05-.47,1.55-.7l1.18-.54c11.48-5.26,21.26-10.3,32.37-16.73,8.18-4.71,17.07-10.19,27.89-17.07.08-.05.15-.1.23-.15,8.45-5.37,18.07-11.6,29.43-18.98,46.33-30.12,88.43-44.9,88.85-45.04l.1-.03.09-.04c5.82-2.34,30.06-12.25,43.39-20.5,1.17-.72,2.25-1.43,3.23-2.12,2.07-1.45,3.68-2.82,4.65-4.05,1.35-1.74,1.85-3.49,1.51-5.23ZM419.92,57.8s-30.23,10.48-68.14,32.28c-6.98,4.01-14.22,8.4-21.58,13.19-5.91,3.84-11.35,7.37-16.39,10.62-.15.1-.29.19-.43.27-6.12,3.95-11.65,7.49-16.73,10.69-.52.33-1.03.65-1.55.98-22.93,14.44-36.69,22.05-55.4,30.58l-.08.03c-.45.2-.9.41-1.37.62-27.62,12.41-95.57,38.57-95.57,38.57,0,0-7.84,3.25-19.26,8.14,0,0-.01,0-.02.02-15.13,6.47-36.52,15.82-54.2,24.26-6.98,3.33-27.39,1.51-27.39,1.51-.15-.02-.29-.04-.42-.06-8.17-1.32-13.12-6.81-15.71-10.25-.26-.34-.49-.66-.7-.94-.04-.06-.09-.13-.13-.19-1.87-3.38,8.15-9.67,8.15-9.67l52.41-39.33s69.27-49.99,119.29-77.95c50.01-27.95,116.52-41.49,116.52-41.49,0,0,74.39-13.83,130.37-20.46,7.67-.9,12.65-1.02,15.51-.56,1,.16,1.73.39,2.25.68,1.22.69,1.17,1.75.16,3.04-6.31,8.04-49.6,25.43-49.6,25.43ZM65.46,196.79c-.94-.37-1.93-.64-2.97-.81-8.1-1.31-15.73,4.19-17.04,12.29-.01.09-.03.18-.03.26-1.16,8,4.31,15.48,12.33,16.78s15.72-4.19,17.03-12.28c1.14-7.07-2.9-13.77-9.31-16.24ZM58.38,221.37c-5.81-.94-9.86-6.44-9.01-12.25l.03-.22v-.04c1.01-5.9,6.57-9.88,12.45-8.92.74.12,1.47.32,2.16.59,4.76,1.82,7.63,6.82,6.81,11.86-.96,5.9-6.54,9.93-12.45,8.98Z"/>
        <path class="cls-1" d="M302.09,63.81s-25.32,1.39-55.68,14.5c-30.37,13.12-42.45,24.92-50.43,33.04-3.49,3.56-6.21,11.1-5.06,13.6,1.61,3.49,4.58,4.19,8.67,3.91,3.82-.27,10.15-1.45,20.24-5.05,17.07-6.1,36.32-17.06,42.13-20.48,1.04-.61,10.09-5.97,11.11-6.65,4.33-2.9,12.2-7.91,29.09-18.75,26.61-17.07-.06-14.12-.06-14.12ZM259.95,95.84s-14.07,12.43-27.99,19.69c-13.03,6.78-15.9,8.1-27.92,11.48-2.28.64-4.71.75-7,.13-.08-.01-.15-.03-.22-.06-1.95-.56-3.43-2.25-3.6-4.27-.06-.85.03-1.85.41-3.01,2.96-9.05,32.32-25.84,32.32-25.84,0,0,17.01-8.12,25.13-9.85,9.07-1.92,12.27-1.93,14.39,1.35,2.11,3.29-5.51,10.38-5.51,10.38Z"/>
        <path class="cls-1" d="M68.46,212.77c-.82,5.05-5.58,8.48-10.63,7.66-5.06-.82-8.49-5.58-7.67-10.63.28-1.73,1.03-3.28,2.09-4.53,0,0,0,0,.01-.02,1.32-1.53,3.1-2.6,5.09-3.03,1.1-.24,2.26-.28,3.44-.09,5.05.82,8.48,5.58,7.66,10.64Z"/>
        <circle class="cls-1" cx="117.83" cy="197.86" r="4.08"/>
        <path class="cls-1" d="M234.17,180.07c-2.58-.42-4.99-1.82-6.6-4.05l-.09-.14-5.13-9.01,2.61-1.48,5.08,8.94c2.06,2.79,5.9,3.68,8.98,2.09,3.14-1.63,4.61-5.37,3.42-8.7l-4.22-10.74,2.79-1.1,4.24,10.78c1.71,4.78-.38,10.1-4.85,12.42-1.97,1.02-4.16,1.32-6.24.99Z"/>
        <path class="cls-1" d="M20,245.67c-2.61-.42-4.87-1.9-6.26-4.12-.15-.23-.29-.48-.41-.72-2.28-4.41-.97-9.93,3.06-12.84l.14-.09,9.01-5.13,1.48,2.61-8.94,5.08c-2.79,2.05-3.69,5.9-2.09,8.98.09.18.19.35.29.51,1.01,1.61,2.71,2.63,4.67,2.81,2.08.19,4.16-.62,5.56-2.16l9.87-10.84,2.22,2.02-9.87,10.84c-2.03,2.23-5.03,3.4-8.04,3.13-.23-.02-.46-.05-.68-.09Z"/>
        <path class="cls-1" d="M479.84,45.7c-.46-.07-.92-.18-1.37-.33l-13.97-4.45.91-2.86,13.97,4.45c1.98.63,4.18.29,5.89-.91,1.6-1.13,2.56-2.87,2.63-4.77,0-.2,0-.39,0-.59-.16-3.46-2.89-6.35-6.3-6.73l-10.28.07-.02-3,10.53-.07c4.92.5,8.85,4.62,9.08,9.58.01.28.01.56,0,.84-.1,2.85-1.52,5.44-3.9,7.12-2.08,1.47-4.68,2.05-7.16,1.65Z"/>
        <path class="cls-1" d="M130.3,182.41c-.1.05-.19.12-.29.18-.54.33-1.07.65-1.6.99,0,0,0,0-.01,0-.47.61-.95,1.22-1.4,1.84.17-.11.34-.23.52-.34,0,0,.01-.02.02-.02.14-.13.28-.26.44-.39.52-.45,1.04-.91,1.57-1.36h.01c.6-.52,1.21-1.03,1.81-1.53-.36.2-.71.41-1.06.62ZM182.12,123.52c-38.82,16.47-62.48,66.71-62.72,67.22l-1.41,3.04-1.93,4.15,3.79-3.61,1.95-1.86c8.62-8.24,21.16-13.25,30.32-16.9,3.04-1.22,5.66-2.26,7.75-3.26,3.14-1.51,5.91-3.69,7.98-6.32,2.79-3.54,6.52-9.64,8.42-18.67,3.23-15.32,7.59-21.44,7.63-21.51l3.24-4.4-5.03,2.13ZM173.34,146.67c-1.78,8.45-5.25,14.14-7.84,17.43-1.8,2.28-4.19,4.17-6.92,5.47-2,.96-4.58,1.99-7.57,3.19-3.68,1.47-7.92,3.15-12.23,5.18-.01,0-.02.02-.03.01-.67.32-1.35.63-2.02.96t-.02.02c-1,.51-1.99,1.02-2.99,1.54,0,0,0,0-.01,0-.76.4-1.52.82-2.27,1.25-.02.02-.06.03-.08.05-.36.2-.71.41-1.06.62-.1.05-.19.12-.29.18-.54.33-1.07.65-1.6.99,0,0,0,0-.01,0-.1.06-.21.14-.32.21h-.01c-.16.09-.31.2-.46.3h-.01c-.53.36-1.06.72-1.58,1.09h0c-.09.05-.17.11-.25.18-.1.06-.19.13-.29.2.13-.22.24-.45.38-.68,1.09-1.96,2.41-4.25,3.95-6.77,0,0,0-.02.01-.03,9.23-15.05,26.38-38.4,49.35-49.9-1.66,3.54-3.93,9.48-5.83,18.5ZM130.3,182.41c-.1.05-.19.12-.29.18-.54.33-1.07.65-1.6.99,0,0,0,0-.01,0-.47.61-.95,1.22-1.4,1.84.17-.11.34-.23.52-.34,0,0,.01-.02.02-.02.14-.13.28-.26.44-.39.52-.45,1.04-.91,1.57-1.36h.01c.6-.52,1.21-1.03,1.81-1.53-.36.2-.71.41-1.06.62Z"/>
        <path class="cls-1" d="M123.55,186.91c3.52-5.16,7.19-10.19,11.01-15.12,3.79-4.95,7.76-9.76,11.87-14.45,2.04-2.36,4.16-4.64,6.29-6.92,2.2-2.21,4.35-4.47,6.68-6.56,4.59-4.2,9.43-8.26,14.97-11.15l-3.89,2.57-3.66,2.88c-2.37,2.01-4.69,4.06-6.89,6.25-4.46,4.31-8.65,8.91-12.7,13.62-4.05,4.71-7.95,9.55-11.75,14.46-3.78,4.93-7.52,9.9-11.08,14.98l-.83-.56Z"/>
        <path class="cls-1" d="M124.49,187.05c7.19-9.82,14.86-19.27,23.07-28.24,8.26-8.82,16.87-17.86,27.64-23.59,0,0-3.83,2.46-3.83,2.46-13.33,10.03-24.24,22.89-34.85,35.66-3.82,4.71-7.6,9.45-11.23,14.3,0,0-.81-.59-.81-.59h0Z"/>
        <path class="cls-1" d="M125.85,186.3c11.47-14.53,30.05-36.58,46.59-44.54,0,0-3.48,2.07-3.48,2.07-12.16,8.49-22.23,19.6-31.98,30.67-3.51,4.08-7,8.2-10.35,12.42l-.79-.61h0Z"/>
        <path class="cls-1" d="M124.63,187.73c6.69-7.77,13.77-15.19,21.28-22.17,7.53-6.85,15.39-13.86,24.84-17.91,0,0-3.37,1.83-3.37,1.83-11.82,7.59-21.83,17.66-31.59,27.67-3.52,3.7-7.02,7.42-10.4,11.24l-.76-.65h0Z"/>
        <path class="cls-1" d="M126.22,186.52c6.21-6.61,12.77-12.85,19.74-18.65,6.97-5.69,14.29-11.44,22.87-14.46,0,0-3.06,1.44-3.06,1.44-10.83,6.06-20.13,14.46-29.17,22.88-3.26,3.11-6.51,6.24-9.65,9.48l-.73-.69h0Z"/>
        <path class="cls-1" d="M124.41,187.83c6.33-5.72,12.95-11.09,19.91-16.02,6.95-4.83,14.23-9.73,22.49-11.96,0,0-2.97,1.15-2.97,1.15-10.55,5-19.88,12.21-28.99,19.42-3.29,2.67-6.58,5.37-9.77,8.15l-.67-.74h0Z"/>
        <path class="cls-1" d="M122.12,187.53c6-4.37,12.22-8.4,18.69-12.02,6.46-3.53,13.22-7.09,20.57-8.21-10.7,2.93-20.13,9.12-29.48,14.9-3.09,2.01-6.19,4.03-9.2,6.14,0,0-.59-.81-.59-.81h0Z"/>
      </g>
    </g>
    <g>
      <g>
        <path class="cls-2" d="M481.76,52.85s-3.98-7.87-12.6-6.32c-2.59.46-4.84.68-6.75.74-6.63.25-13.25,1-19.72,2.48l-92.9,27.59s-37.91,10.41-83.26,29.74c-39.27,16.73-74.36,37.08-112.73,68.8l-74.98,66.45-44.02,40.07h-.01s-20,16.16-18.18,21.13c1.82,4.96,1.61,7.79,1.61,7.79l-8.3,9.82c-1.78,2.1-2.9,4.72-2.99,7.47-.07,2.1.45,4.4,2.38,6.1,4.67,4.09,10.64,7.83,18,4.29,9.39-4.52,13.03-13.45,13.03-13.45,0,0,14.6,3.85,27.86-2.06,13.26-5.93,49.35-29.44,49.35-29.44l103.72-56.54,2.81,3.24c4.49,5.16,12.07,6.3,17.87,2.67,4.08-2.55,6.36-6.85,6.53-11.29.11-2.97-.72-6-2.59-8.61l-.64-.89s56.59-43.87,86.98-69.74c0,0,35.09-29.7,77.1-51.65,25.88-13.53,37.32-21.11,42.31-24.92,2.66-2.06,6.07-2.86,9.37-2.24l6.79,1.27s12,.72,15.69-4.76c3.68-5.48-1.74-17.76-1.74-17.76ZM190.3,186.39c-2.72-3.61,7.41-15.84,22.62-27.31,15.22-11.47,29.76-17.85,32.48-14.24,2.72,3.62-7.4,15.84-22.62,27.31-15.22,11.47-29.75,17.85-32.48,14.24Z"/>
        <path class="cls-2" d="M485.07,51.39c-.02-.06-.05-.12-.08-.18-1.8-3.55-7.56-9.85-16.48-8.25-2.15.39-4.24.62-6.23.69-7.35.27-14.02,1.11-20.41,2.57-.07.02-.15.04-.22.06l-92.83,27.57c-.38.1-38.67,10.69-83.72,29.89-42.46,18.09-77.5,39.48-113.62,69.35-.03.02-.06.05-.1.08l-75.01,66.48-43.95,40c-.71.57-5.39,4.41-9.94,8.86-7.97,7.78-10.66,12.5-9.28,16.26.89,2.45,1.22,4.25,1.33,5.29l-7.4,8.74c-2.36,2.8-3.73,6.24-3.84,9.7-.12,3.67,1.13,6.77,3.61,8.94,3.4,2.99,8.12,6.39,13.92,6.61,2.48.09,5.18-.4,8.04-1.78,7.24-3.47,11.45-9.22,13.43-12.62,5.21.89,16.61,1.96,27.38-2.85,13.11-5.86,47.05-27.89,49.73-29.64l101.03-55.08.9,1.03c5.69,6.56,15.16,7.97,22.53,3.37,4.09-2.55,6.97-6.73,7.9-11.47.78-3.94.17-8.04-1.69-11.57,11.52-8.96,58.11-45.34,84.48-67.79.35-.3,35.29-29.71,76.43-51.21,25.73-13.45,37.5-21.16,42.84-25.26,1.85-1.41,4.21-1.98,6.5-1.55l6.79,1.27c.14.03.3.05.44.06,1.45.1,14.22.64,18.91-6.36,4.57-6.79-.39-18.89-1.43-21.24ZM297.89,176.47c-.07.06-.14.12-.21.18-9.12,7.33-18.31,14.63-26.49,21.09-15.85,12.51-27.89,21.85-28.15,22.05-.75.58-1.21,1.42-1.35,2.29-.15.91.04,1.88.62,2.69l.64.88c1.35,1.89,2,4.09,1.92,6.34h0c-.02.55-.08,1.1-.19,1.64-.56,2.82-2.21,5.2-4.64,6.73-4.32,2.7-9.87,1.87-13.22-1.97l-2.81-3.24c-1.11-1.29-2.98-1.62-4.47-.81l-103.72,56.55c-.08.04-.17.09-.24.14-.36.24-36,23.44-48.85,29.17-11.88,5.29-25.33,1.9-25.45,1.86-1.74-.46-3.58.46-4.28,2.12-.03.08-3.32,7.75-11.26,11.57-4.48,2.15-8.54,1.07-14.03-3.74-.52-.47-1.22-1.3-1.15-3.27.06-1.82.81-3.69,2.14-5.25l.91-1.07h0s5.13-6.08,5.13-6.08l2.26-2.67c.49-.58.78-1.31.84-2.07,0-.09.02-.35,0-.79-.02-1.32-.27-4.13-1.68-8.12.77-2.67,8.49-10.67,16.91-17.48.05-.04.11-.09.16-.14l43.99-40.03,74.93-66.41c35.55-29.38,70.02-50.43,111.8-68.23,44.58-19,82.43-29.46,82.88-29.59l92.77-27.56c2.1-.48,4.24-.89,6.43-1.21,3.96-.62,8.1-.99,12.51-1.16,2.33-.08,4.78-.35,7.26-.79,5.51-1,8.26,3.55,8.69,4.33,1.84,4.25,3.72,11.59,2,14.16-1.22,1.82-4.99,2.77-8.51,3.08h-.01c-1.22.11-2.4.14-3.43.11h-.29s-6.56-1.24-6.56-1.24c-4.31-.81-8.78.25-12.26,2.92-5.11,3.93-16.51,11.38-41.78,24.59-41.88,21.89-77.4,51.81-77.77,52.12-9.03,7.68-20.43,17.02-32,26.31Z"/>
      </g>
      <g>
        <path class="cls-1" d="M457.25,59.49c-.35.19-.71.36-1.05.49-2.86,1.06-5.71,2.13-8.57,3.2-1.12.41-2.26.85-3.21,1.57-1.55,1.19-3.02,3.24-4.88,2.67-.95-.31-1.58-1.26-2.52-1.59-1.38-.5-2.88.54-3.62,1.81s-1.01,2.76-1.71,4.05c-1.57,2.94-4.94,4.32-8.06,5.5-.91-1.42.86-3.1,1-4.78.11-1.55-1.29-2.89-2.81-3.26-1.51-.36-3.1,0-4.62.37-.96.23-1.98.5-2.64,1.24-.68.78-.8,1.9-.87,2.94-.32,4.36-.65,8.73-.97,13.1-1.75-1.3-1.16-3.98-1.01-6.17.15-2.19-.43-4.5-1.94-6.11-1.5-1.6-4.02-2.32-6.01-1.39-1.99.92-3.04,3.65-1.89,5.53.67,1.1,1.95,1.79,2.44,3,.81,2.05-1.05,4.11-2.74,5.53-.81-3.34-2.7-6.4-5.32-8.62-.37-.31-.77-.62-1.26-.69-.87-.12-1.63.56-2.46.85-1.38.47-2.85-.19-4.3-.35-1.44-.16-3.31.7-3.1,2.14.14.99,1.19,1.54,2.07,2.01,2.63,1.37,4.95,3.38,6.68,5.8-3.62,1.86-8.51.82-11.07-2.35-1.42-1.75-2.45-4.25-4.68-4.64-2.25,1.81-2.03,5.22-2.07,8.12-.04,2.89-1.3,6.51-4.2,6.62-1.52-1.73-1.16-4.39-.37-6.53.8-2.16,1.95-4.3,1.77-6.59-.08-.87-.53-1.89-1.4-1.98-.53-.05-1.01.25-1.45.54-2.48,1.65-4.95,3.29-7.43,4.92-.41.27-.85.57-1.09,1-.33.61-.25,1.36-.22,2.05.07,1.97-.54,3.96-1.69,5.55,1.37.7,2.16,2.42,1.79,3.92-.37,1.51-1.84,2.68-3.4,2.67-.4,0-.85-.08-1.13-.37-.59-.6-.22-1.58.1-2.36,1.22-2.89,1.37-6.21.41-9.2-.16-.5-.38-1.04-.81-1.35-.5-.37-1.19-.35-1.81-.32-3.78.2-8.52,1.17-9.3,4.87,2.38-.66,4.93,2.06,4.13,4.39-.66,1.9-2.85,2.91-3.63,4.77-.66,1.52-.24,3.27.18,4.87.41,1.6.79,3.37.08,4.85-.72,1.5-3.06,2.22-4.04.89-.87-1.18-.08-2.8.55-4.11,1.55-3.25,2.11-6.96,1.57-10.51-1.34-1-3.04-1.53-4.71-1.45-.48,1.53-1,3.13-2.15,4.25s-3.14,1.55-4.35.49c-.89-.79-1.4-2.31-2.59-2.27-.59.02-1.07.46-1.49.87-1.97,1.88-4.01,3.92-4.62,6.58-.6,2.65,1.02,5.98,3.74,6.1-.06,2.69-1.8,5.28-4.28,6.35-3.73-2.7-6.77-6.36-8.71-10.53-.42-.91-.88-1.91-1.79-2.3-.6-.26-1.28-.19-1.92-.12-2.16.24-4.39.77-6.56,1.01,2.65,4.43,4.17,9.53,4.37,14.68-2.32-2.72-1.86-6.99-4.03-9.83-2.23-2.9-6.38-3.32-10.05-3.5-2.16-.1-4.35-.19-6.46.22-3.21.65-6.06,2.44-9.2,3.28-1.78.48-3.62.65-5.4,1.09-1.83.46-3.57,1.18-5.31,1.9-3.73,1.56-7.45,3.12-11.18,4.68-4.54,1.89-9.07,3.79-13.52,5.86-13.43,6.24-26.12,14.06-37.73,23.25-3.99,3.17-7.9,6.52-11,10.58-1.67,2.2-3.09,4.59-5,6.58-3.58,3.76-8.34,6.81-10.07,11.71-1.46,4.14-2.54,9.32-6.9,8.89-.61-.06-1.23-.24-1.84-.1-.83.2-1.4.94-1.93,1.62-4.35,5.62-10.39,9.91-17.14,12.15,1.62,1.5-.59,3.97-2.55,4.99-3.39,1.76-6.78,3.53-10.16,5.3,2.43,1.13,1.62,5.06-.54,6.65-2.16,1.6-5.03,1.97-7.26,3.46-4.06,2.72-4.94,8.26-5.14,13.15-2.03-.92-4.06-1.82-6.08-2.74-.55-.25-1.13-.5-1.72-.43-.7.09-1.27.58-1.78,1.06-3.08,2.84-6.15,5.69-9.23,8.52,4.01.59,7,5,6.06,8.93-4.29-.2-8.1-2.83-12.33-3.6-4.22-.77-9.79,1.91-9.1,6.15,4.04-.19,8.15.81,11.63,2.87-.69,3.49-.04,7.23,1.77,10.3-2.62.58-3.42-3.42-5.26-5.38-3.9-4.13-11.11,2.17-16.33-.09,2.96,1.55,5.45,3.97,7.1,6.87-3.97,1.07-8.21,0-12.28.53-4.08.53-8.48,4.01-7.38,7.97,2.88.95,4.2,4.95,2.47,7.42-1.61-2.85-5.37-3.91-8.58-3.31-1.16.21-2.25.59-3.31,1.09-1.02-.26-2.07-.41-3.15-.45-8.5-.32-15.64,6.3-15.96,14.8,0,.09,0,.19,0,.27-2.32,2.66-3.88,5.77-2.9,9.01-2.23-.71-4.7-.64-6.9.19,5.34,4.61,11.32,8.47,17.73,11.42-7.53.85-15.34-.9-21.79-4.87-1.71-1.06-3.2-1.87-5.05-2.25-.38-.09-.76-.14-1.17-.19.04-.3.1-.59.18-.87.73-2.79,2.96-5.04,5.07-7.07,46.45-44.58,94.52-87.46,144.09-128.53,5.79-4.79,15.75-13.8,21.84-18.22,34.5-25.05,76.21-44.09,120.92-58.68,22.34-7.3,45.51-12.98,68.18-19.15,24.19-6.56,48.45-12.85,72.78-18.85.93-.23,1.86-.47,2.79-.69.81,1.48-.64,2.93-2.25,3.8Z"/>
        <path class="cls-1" d="M62.85,279.83c-1.02-.26-2.07-.41-3.15-.45-8.5-.32-15.64,6.3-15.96,14.8,0,.09,0,.19,0,.27-.18,8.37,6.4,15.36,14.8,15.68,8.49.32,15.63-6.3,15.95-14.79.28-7.41-4.73-13.78-11.64-15.51ZM58.7,305.98c-6.1-.23-10.95-5.37-10.81-11.44v-.23s0-.04,0-.04c.28-6.19,5.49-10.99,11.66-10.75.78.03,1.55.14,2.3.34,5.12,1.27,8.71,6.04,8.51,11.33-.23,6.19-5.46,11.04-11.65,10.81ZM62.85,279.83c-1.02-.26-2.07-.41-3.15-.45-8.5-.32-15.64,6.3-15.96,14.8,0,.09,0,.19,0,.27-.18,8.37,6.4,15.36,14.8,15.68,8.49.32,15.63-6.3,15.95-14.79.28-7.41-4.73-13.78-11.64-15.51ZM58.7,305.98c-6.1-.23-10.95-5.37-10.81-11.44v-.23s0-.04,0-.04c.28-6.19,5.49-10.99,11.66-10.75.78.03,1.55.14,2.3.34,5.12,1.27,8.71,6.04,8.51,11.33-.23,6.19-5.46,11.04-11.65,10.81ZM62.85,279.83c-1.02-.26-2.07-.41-3.15-.45-8.5-.32-15.64,6.3-15.96,14.8,0,.09,0,.19,0,.27-.18,8.37,6.4,15.36,14.8,15.68,8.49.32,15.63-6.3,15.95-14.79.28-7.41-4.73-13.78-11.64-15.51ZM58.7,305.98c-6.1-.23-10.95-5.37-10.81-11.44v-.23s0-.04,0-.04c.28-6.19,5.49-10.99,11.66-10.75.78.03,1.55.14,2.3.34,5.12,1.27,8.71,6.04,8.51,11.33-.23,6.19-5.46,11.04-11.65,10.81ZM62.85,279.83c-1.02-.26-2.07-.41-3.15-.45-8.5-.32-15.64,6.3-15.96,14.8,0,.09,0,.19,0,.27-.18,8.37,6.4,15.36,14.8,15.68,8.49.32,15.63-6.3,15.95-14.79.28-7.41-4.73-13.78-11.64-15.51ZM58.7,305.98c-6.1-.23-10.95-5.37-10.81-11.44v-.23s0-.04,0-.04c.28-6.19,5.49-10.99,11.66-10.75.78.03,1.55.14,2.3.34,5.12,1.27,8.71,6.04,8.51,11.33-.23,6.19-5.46,11.04-11.65,10.81ZM461.68,56.07s0-.03-.02-.05c-.39-1.15-1.15-2.14-2.2-2.84-.36-.24-.75-.45-1.17-.62-1.05-.43-2.3-.67-3.83-.72-1.23-.05-2.71.02-4.43.23-3.27.36-7.43,1.17-12.58,2.44-56.18,13.8-130.91,37.42-131.65,37.67h-.04s-.03.02-.03.02c-.67.22-67.8,22.98-115.62,58.04-47.49,34.83-112.42,94.97-113.06,95.57l-.03.03-.03.03-48.74,46.96c-4.69,3.84-11.77,10.99-7.75,16.51l.04.05.03.04c.13.17.28.33.41.47.27.29.56.6.89.93,0,.01.03.03.04.04.6.62,1.21,1.22,1.83,1.78.81.74,1.63,1.42,2.46,2.05,2.98,2.28,6.13,3.9,9.44,4.87,1.08.32,2.17.57,3.28.73h.01c1.06.19,2.13.29,3.22.33.17,0,.33,0,.51,0h.11s.1,0,.1,0c2.29-.08,22.56-.9,30.05-5.68,29.14-18.6,69.58-41.61,71.18-42.51,1.76-.94,46.67-24.95,77-42.26.92-.53,1.83-1.04,2.72-1.56,5.13-2.94,9.75-5.64,13.58-7.97.52-.31,1.02-.61,1.51-.92l1.15-.7c11.13-6.87,20.54-13.29,31.15-21.31,7.81-5.88,16.25-12.64,26.49-21.09.07-.06.14-.12.21-.18,8-6.59,17.1-14.22,27.84-23.25,43.79-36.84,85.18-57.38,85.59-57.58l.09-.04.08-.05c5.68-3.14,29.33-16.41,41.99-26.58,1.11-.89,2.13-1.75,3.05-2.59,1.94-1.75,3.42-3.36,4.26-4.75,1.16-1.96,1.46-3.82.88-5.56ZM409.5,91.92s-29.73,14.61-65.93,41.84c-6.67,5-13.54,10.44-20.5,16.3-5.59,4.7-10.73,9.02-15.49,12.99-.14.12-.28.23-.41.34-5.79,4.84-11.02,9.18-15.84,13.12-.49.41-.97.8-1.46,1.2-21.74,17.75-34.91,27.32-53.06,38.47l-.07.04c-.43.26-.87.54-1.33.81-26.81,16.27-93.32,51.79-93.32,51.79,0,0-7.65,4.33-18.76,10.81,0,.01-.01,0-.02.02-14.73,8.58-35.52,20.9-52.62,31.82-6.75,4.31-27.96,5.03-27.96,5.03-.16,0-.3,0-.44,0-8.57-.32-14.35-5.33-17.45-8.54-.31-.31-.59-.61-.84-.88-.05-.05-.11-.12-.16-.18-2.36-3.24,7.15-10.98,7.15-10.98l48.87-47.08s64.85-60.18,112.7-95.27c47.85-35.08,114.49-57.45,114.49-57.45,0,0,74.7-23.67,131.39-37.59,7.77-1.9,12.87-2.66,15.87-2.54,1.05.04,1.83.18,2.4.41,1.35.56,1.42,1.65.55,3.11-5.46,9.06-47.75,32.44-47.75,32.44ZM62.85,279.83c-1.02-.26-2.07-.41-3.15-.45-8.5-.32-15.64,6.3-15.96,14.8,0,.09,0,.19,0,.27-.18,8.37,6.4,15.36,14.8,15.68,8.49.32,15.63-6.3,15.95-14.79.28-7.41-4.73-13.78-11.64-15.51ZM58.7,305.98c-6.1-.23-10.95-5.37-10.81-11.44v-.23s0-.04,0-.04c.28-6.19,5.49-10.99,11.66-10.75.78.03,1.55.14,2.3.34,5.12,1.27,8.71,6.04,8.51,11.33-.23,6.19-5.46,11.04-11.65,10.81Z"/>
        <path class="cls-1" d="M289.15,113.08s-25.84,4.65-55.38,21.98c-29.55,17.35-40.46,31.01-47.63,40.37-3.14,4.1-4.98,12.2-3.47,14.62,2.1,3.38,5.24,3.72,9.4,2.91,3.89-.77,10.25-2.78,20.16-7.76,16.77-8.44,35.16-22.15,40.69-26.4.99-.76,9.62-7.42,10.57-8.25,4.08-3.54,11.54-9.68,27.52-22.97,25.18-20.93-1.86-14.51-1.86-14.51ZM249.92,151.35s-12.88,14.56-26.26,23.79c-12.53,8.63-15.31,10.35-27.23,15.35-2.26.95-4.75,1.37-7.18,1.03-.08,0-.15-.02-.24-.03-2.07-.33-3.82-1.87-4.25-3.93-.17-.87-.21-1.9.04-3.15,1.89-9.68,29.93-30.67,29.93-30.67,0,0,16.45-10.51,24.57-13.32,9.08-3.13,12.36-3.55,14.96-.44,2.59,3.11-4.34,11.37-4.34,11.37Z"/>
        <path class="cls-1" d="M67.97,295.87c-.2,5.29-4.66,9.43-9.95,9.23-5.3-.2-9.43-4.66-9.24-9.95.07-1.82.64-3.5,1.58-4.93,0,0,0,0,0-.02,1.16-1.74,2.85-3.07,4.85-3.76,1.1-.39,2.29-.58,3.53-.53,5.29.2,9.43,4.66,9.23,9.96Z"/>
        <circle class="cls-1" cx="116.81" cy="274.27" r="4.23"/>
        <path class="cls-1" d="M234.12,241.2c-2.7-.1-5.36-1.23-7.29-3.32l-.11-.13-6.41-8.61,2.49-1.86,6.36,8.54c2.47,2.6,6.53,3.04,9.5,1.01,3.02-2.07,4.06-6.1,2.41-9.38l-5.7-10.5,2.73-1.48,5.72,10.54c2.37,4.7.89,10.43-3.41,13.38-1.89,1.3-4.11,1.89-6.29,1.81Z"/>
        <path class="cls-1" d="M22.34,335.83c-2.74-.1-5.24-1.33-6.96-3.44-.18-.22-.35-.45-.52-.69-2.91-4.24-2.26-10.08,1.52-13.58l.13-.11,8.61-6.41,1.86,2.49-8.54,6.36c-2.6,2.47-3.04,6.53-1.01,9.5.12.17.24.33.36.49,1.24,1.53,3.12,2.36,5.15,2.3,2.16-.07,4.19-1.17,5.44-2.92l8.76-12.4,2.54,1.79-8.76,12.4c-1.8,2.55-4.74,4.13-7.87,4.23-.24,0-.48,0-.71,0Z"/>
        <path class="cls-1" d="M469.55,71.87c-.48-.02-.97-.07-1.45-.16l-14.92-2.8.57-3.05,14.92,2.8c2.11.4,4.33-.23,5.94-1.69,1.51-1.37,2.27-3.27,2.1-5.24-.02-.2-.04-.4-.08-.61-.61-3.54-3.78-6.16-7.33-6.11l-10.56,1.38-.4-3.08,10.81-1.41c5.12-.11,9.68,3.62,10.55,8.7.05.29.09.57.11.86.26,2.94-.87,5.79-3.11,7.81-1.96,1.77-4.55,2.7-7.15,2.6Z"/>
        <path class="cls-1" d="M127.67,256.8c-.1.07-.18.15-.28.22-.51.41-1.01.8-1.52,1.22,0,0-.01,0-.01,0-.41.69-.82,1.38-1.21,2.07.16-.14.32-.28.49-.42,0,0,.01-.02.02-.02.13-.15.26-.3.4-.45.48-.53.95-1.06,1.44-1.59h.01c.55-.61,1.11-1.21,1.66-1.8-.34.25-.68.51-1.01.77ZM173.44,189.69c-37.81,21.87-55.74,76.5-55.92,77.05l-1.07,3.31-1.45,4.51,3.43-4.19,1.77-2.16c7.81-9.56,20.07-16.3,29.02-21.22,2.97-1.64,5.53-3.05,7.55-4.34,3.04-1.95,5.6-4.55,7.4-7.52,2.42-3.99,5.47-10.74,6.29-20.26,1.37-16.16,5.07-23,5.11-23.07l2.77-4.93-4.89,2.83ZM167.36,214.6c-.76,8.92-3.6,15.2-5.84,18.91-1.56,2.57-3.78,4.82-6.42,6.51-1.93,1.24-4.45,2.63-7.37,4.24-3.6,1.98-7.74,4.25-11.91,6.88-.01,0-.02.02-.03.02-.65.41-1.31.82-1.95,1.24t-.02.02c-.97.65-1.91,1.3-2.87,1.96,0,0-.01,0-.01,0-.73.51-1.46,1.03-2.17,1.58-.02.02-.05.04-.07.06-.34.25-.68.51-1.01.77-.1.07-.18.15-.28.22-.51.41-1.01.8-1.52,1.22,0,0-.01,0-.01,0-.1.08-.2.17-.3.26h-.01c-.15.12-.3.25-.44.37h-.01c-.5.44-1,.87-1.49,1.32h-.01c-.09.07-.16.14-.24.22-.1.08-.18.16-.27.24.1-.24.19-.49.31-.75.87-2.15,1.94-4.67,3.2-7.47,0-.01,0-.02.01-.03,7.58-16.64,22.23-42.81,44.38-57.56-1.25,3.85-2.83,10.25-3.64,19.75ZM127.67,256.8c-.1.07-.18.15-.28.22-.51.41-1.01.8-1.52,1.22,0,0-.01,0-.01,0-.41.69-.82,1.38-1.21,2.07.16-.14.32-.28.49-.42,0,0,.01-.02.02-.02.13-.15.26-.3.4-.45.48-.53.95-1.06,1.44-1.59h.01c.55-.61,1.11-1.21,1.66-1.8-.34.25-.68.51-1.01.77Z"/>
        <path class="cls-1" d="M121.3,262.29c2.96-5.75,6.1-11.38,9.39-16.94,3.27-5.57,6.73-11.02,10.36-16.36,1.79-2.69,3.69-5.3,5.59-7.91,1.98-2.55,3.91-5.15,6.03-7.59,4.19-4.9,8.64-9.68,13.96-13.36l-3.67,3.14-3.4,3.42c-2.18,2.36-4.31,4.77-6.29,7.3-4.04,5-7.76,10.26-11.32,15.61-3.57,5.35-6.96,10.82-10.24,16.36-3.26,5.55-6.48,11.13-9.49,16.81l-.92-.47Z"/>
        <path class="cls-1" d="M122.29,262.31c6.14-11,12.82-21.69,20.13-31.95,7.37-10.11,15.07-20.5,25.41-27.76,0,0-3.62,3.01-3.62,3.01-12.43,12-22,26.6-31.29,41.08-3.32,5.32-6.61,10.68-9.73,16.12,0,0-.91-.5-.91-.5h0Z"/>
        <path class="cls-1" d="M123.59,261.37c9.94-16.39,26.24-41.41,42.23-51.7,0,0-3.31,2.57-3.31,2.57-11.42,10.27-20.35,22.96-28.97,35.59-3.09,4.64-6.16,9.32-9.06,14.08l-.89-.53h0Z"/>
        <path class="cls-1" d="M122.51,262.99c5.89-8.84,12.22-17.36,19.05-25.49,6.87-8,14.05-16.2,23.25-21.57,0,0-3.23,2.31-3.23,2.31-11.19,9.3-20.19,20.92-28.95,32.45-3.15,4.25-6.28,8.52-9.26,12.87l-.86-.57h0Z"/>
        <path class="cls-1" d="M124,261.54c5.54-7.58,11.49-14.83,17.92-21.68,6.44-6.74,13.23-13.58,21.67-17.77,0,0-2.96,1.87-2.96,1.87-10.36,7.61-18.85,17.42-27.08,27.22-2.96,3.61-5.9,7.25-8.71,10.97l-.84-.61h0Z"/>
        <path class="cls-1" d="M122.3,263.12c5.78-6.68,11.9-13.04,18.43-19,6.53-5.85,13.39-11.81,21.59-15.15,0,0-2.91,1.56-2.91,1.56-10.21,6.48-18.88,15.07-27.32,23.64-3.04,3.17-6.08,6.35-9.01,9.62l-.78-.68h0Z"/>
        <path class="cls-1" d="M119.91,263.1c5.61-5.25,11.49-10.19,17.69-14.73,6.19-4.45,12.68-8.97,20.1-11.05-10.62,4.37-19.53,11.93-28.41,19.06-2.92,2.46-5.85,4.92-8.68,7.48,0,0-.71-.76-.71-.76h0Z"/>
      </g>
    </g>
  </g>
</svg>